<?xml version="1.0" encoding="UTF-8" standalone="no"?><svg xmlns="http://www.w3.org/2000/svg" xmlns:xlink="http://www.w3.org/1999/xlink" contentScriptType="application/ecmascript" contentStyleType="text/css" height="748px" preserveAspectRatio="none" style="width:763px;height:748px;" version="1.1" viewBox="0 0 763 748" width="763px" zoomAndPan="magnify"><defs><filter height="300%" id="f4m2q949c150l" width="300%" x="-1" y="-1"><feGaussianBlur result="blurOut" stdDeviation="2.0"/><feColorMatrix in="blurOut" result="blurOut2" type="matrix" values="0 0 0 0 0 0 0 0 0 0 0 0 0 0 0 0 0 0 .4 0"/><feOffset dx="4.0" dy="4.0" in="blurOut2" result="blurOut3"/><feBlend in="SourceGraphic" in2="blurOut3" mode="normal"/></filter></defs><g><!--class Operation--><rect fill="#FEFECE" filter="url(#f4m2q949c150l)" height="99.2188" id="Operation" style="stroke: #A80036; stroke-width: 1.5;" width="254" x="419.5" y="8"/><ellipse cx="511.25" cy="24" fill="#ADD1B2" rx="11" ry="11" style="stroke: #A80036; stroke-width: 1.0;"/><path d="M513.5938,19.6719 L513.7656,19.75 C513.9844,19.4375 514.1875,19.3438 514.4844,19.3438 C514.7813,19.3438 515.0625,19.4844 515.2188,19.75 C515.3125,19.9063 515.3281,20.0313 515.3281,20.4688 L515.3281,21.8906 C515.3281,22.3125 515.2969,22.5 515.1875,22.6563 C515.0156,22.875 514.75,23.0156 514.4844,23.0156 C514.2656,23.0156 514.0313,22.9063 513.8906,22.7656 C513.75,22.6406 513.7188,22.5156 513.6563,22.1094 C513.5625,21.7031 513.3906,21.4844 512.9063,21.2031 C512.4375,20.9531 511.8281,20.7969 511.25,20.7969 C509.5156,20.7969 508.2656,22.1094 508.2656,23.8906 L508.2656,24.9844 C508.2656,26.6875 509.5625,27.7813 511.6094,27.7813 C512.375,27.7813 513.0625,27.6563 513.4844,27.3906 C513.6719,27.2969 513.6719,27.2969 514.125,26.8125 C514.3125,26.625 514.5156,26.5469 514.7344,26.5469 C515.2031,26.5469 515.5938,26.9375 515.5938,27.3906 C515.5938,27.7813 515.2656,28.2344 514.6875,28.6406 C513.9375,29.1875 512.7813,29.4844 511.5625,29.4844 C508.6719,29.4844 506.5625,27.5938 506.5625,25.0156 L506.5625,23.8906 C506.5625,21.1719 508.5625,19.0938 511.1875,19.0938 C512.0625,19.0938 512.6563,19.2344 513.5938,19.6719 Z "/><text fill="#000000" font-family="sans-serif" font-size="12" lengthAdjust="spacingAndGlyphs" textLength="62" x="531.75" y="28.1543">Operation</text><line style="stroke: #A80036; stroke-width: 1.5;" x1="420.5" x2="672.5" y1="40" y2="40"/><text fill="#000000" font-family="sans-serif" font-size="11" lengthAdjust="spacingAndGlyphs" textLength="139" x="425.5" y="54.2104">private String operation;</text><line style="stroke: #A80036; stroke-width: 1.5;" x1="420.5" x2="672.5" y1="60.8047" y2="60.8047"/><text fill="#000000" font-family="sans-serif" font-size="11" lengthAdjust="spacingAndGlyphs" textLength="105" x="425.5" y="75.0151">public Operation();</text><text fill="#000000" font-family="sans-serif" font-size="11" lengthAdjust="spacingAndGlyphs" textLength="161" x="425.5" y="87.8198">public String getOperation();</text><text fill="#000000" font-family="sans-serif" font-size="11" lengthAdjust="spacingAndGlyphs" textLength="242" x="425.5" y="100.6245">public void setOperation(String operation);</text><!--class OperationMathematique--><rect fill="#FEFECE" filter="url(#f4m2q949c150l)" height="99.2188" id="OperationMathematique" style="stroke: #A80036; stroke-width: 1.5;" width="412" x="340.5" y="184"/><ellipse cx="466.25" cy="200" fill="#ADD1B2" rx="11" ry="11" style="stroke: #A80036; stroke-width: 1.0;"/><path d="M468.5938,195.6719 L468.7656,195.75 C468.9844,195.4375 469.1875,195.3438 469.4844,195.3438 C469.7813,195.3438 470.0625,195.4844 470.2188,195.75 C470.3125,195.9063 470.3281,196.0313 470.3281,196.4688 L470.3281,197.8906 C470.3281,198.3125 470.2969,198.5 470.1875,198.6563 C470.0156,198.875 469.75,199.0156 469.4844,199.0156 C469.2656,199.0156 469.0313,198.9063 468.8906,198.7656 C468.75,198.6406 468.7188,198.5156 468.6563,198.1094 C468.5625,197.7031 468.3906,197.4844 467.9063,197.2031 C467.4375,196.9531 466.8281,196.7969 466.25,196.7969 C464.5156,196.7969 463.2656,198.1094 463.2656,199.8906 L463.2656,200.9844 C463.2656,202.6875 464.5625,203.7813 466.6094,203.7813 C467.375,203.7813 468.0625,203.6563 468.4844,203.3906 C468.6719,203.2969 468.6719,203.2969 469.125,202.8125 C469.3125,202.625 469.5156,202.5469 469.7344,202.5469 C470.2031,202.5469 470.5938,202.9375 470.5938,203.3906 C470.5938,203.7813 470.2656,204.2344 469.6875,204.6406 C468.9375,205.1875 467.7813,205.4844 466.5625,205.4844 C463.6719,205.4844 461.5625,203.5938 461.5625,201.0156 L461.5625,199.8906 C461.5625,197.1719 463.5625,195.0938 466.1875,195.0938 C467.0625,195.0938 467.6563,195.2344 468.5938,195.6719 Z "/><text fill="#000000" font-family="sans-serif" font-size="12" lengthAdjust="spacingAndGlyphs" textLength="152" x="486.75" y="204.1543">OperationMathematique</text><line style="stroke: #A80036; stroke-width: 1.5;" x1="341.5" x2="751.5" y1="216" y2="216"/><text fill="#000000" font-family="sans-serif" font-size="11" lengthAdjust="spacingAndGlyphs" textLength="133" x="346.5" y="230.2104">private double resultat;</text><line style="stroke: #A80036; stroke-width: 1.5;" x1="341.5" x2="751.5" y1="236.8047" y2="236.8047"/><text fill="#000000" font-family="sans-serif" font-size="11" lengthAdjust="spacingAndGlyphs" textLength="185" x="346.5" y="251.0151">public OperationMathematique();</text><text fill="#000000" font-family="sans-serif" font-size="11" lengthAdjust="spacingAndGlyphs" textLength="400" x="346.5" y="263.8198">public void resoudre(String uneOperation) throws OperationException;</text><text fill="#000000" font-family="sans-serif" font-size="11" lengthAdjust="spacingAndGlyphs" textLength="132" x="346.5" y="276.6245">public String toString();</text><!--class Calculette--><rect fill="#FEFECE" filter="url(#f4m2q949c150l)" height="99.2188" id="Calculette" style="stroke: #A80036; stroke-width: 1.5;" width="224" x="434.5" y="360"/><ellipse cx="510.75" cy="376" fill="#ADD1B2" rx="11" ry="11" style="stroke: #A80036; stroke-width: 1.0;"/><path d="M513.0938,371.6719 L513.2656,371.75 C513.4844,371.4375 513.6875,371.3438 513.9844,371.3438 C514.2813,371.3438 514.5625,371.4844 514.7188,371.75 C514.8125,371.9063 514.8281,372.0313 514.8281,372.4688 L514.8281,373.8906 C514.8281,374.3125 514.7969,374.5 514.6875,374.6563 C514.5156,374.875 514.25,375.0156 513.9844,375.0156 C513.7656,375.0156 513.5313,374.9063 513.3906,374.7656 C513.25,374.6406 513.2188,374.5156 513.1563,374.1094 C513.0625,373.7031 512.8906,373.4844 512.4063,373.2031 C511.9375,372.9531 511.3281,372.7969 510.75,372.7969 C509.0156,372.7969 507.7656,374.1094 507.7656,375.8906 L507.7656,376.9844 C507.7656,378.6875 509.0625,379.7813 511.1094,379.7813 C511.875,379.7813 512.5625,379.6563 512.9844,379.3906 C513.1719,379.2969 513.1719,379.2969 513.625,378.8125 C513.8125,378.625 514.0156,378.5469 514.2344,378.5469 C514.7031,378.5469 515.0938,378.9375 515.0938,379.3906 C515.0938,379.7813 514.7656,380.2344 514.1875,380.6406 C513.4375,381.1875 512.2813,381.4844 511.0625,381.4844 C508.1719,381.4844 506.0625,379.5938 506.0625,377.0156 L506.0625,375.8906 C506.0625,373.1719 508.0625,371.0938 510.6875,371.0938 C511.5625,371.0938 512.1563,371.2344 513.0938,371.6719 Z "/><text fill="#000000" font-family="sans-serif" font-size="12" lengthAdjust="spacingAndGlyphs" textLength="63" x="531.25" y="380.1543">Calculette</text><line style="stroke: #A80036; stroke-width: 1.5;" x1="435.5" x2="657.5" y1="392" y2="392"/><text fill="#000000" font-family="sans-serif" font-size="11" lengthAdjust="spacingAndGlyphs" textLength="119" x="440.5" y="406.2104">private int compteur;</text><line style="stroke: #A80036; stroke-width: 1.5;" x1="435.5" x2="657.5" y1="412.8047" y2="412.8047"/><text fill="#000000" font-family="sans-serif" font-size="11" lengthAdjust="spacingAndGlyphs" textLength="105" x="440.5" y="427.0151">public Calculette();</text><text fill="#000000" font-family="sans-serif" font-size="11" lengthAdjust="spacingAndGlyphs" textLength="212" x="440.5" y="439.8198">public void calculer(String operation);</text><text fill="#000000" font-family="sans-serif" font-size="11" lengthAdjust="spacingAndGlyphs" textLength="132" x="440.5" y="452.6245">public String toString();</text><!--class WindowListener--><rect fill="#FEFECE" filter="url(#f4m2q949c150l)" height="48" id="WindowListener" style="stroke: #A80036; stroke-width: 1.5;" width="131" x="6" y="385.5"/><ellipse cx="21" cy="401.5" fill="#B4A7E5" rx="11" ry="11" style="stroke: #A80036; stroke-width: 1.0;"/><path d="M21.9531,398.2813 L21.9531,404.7969 L23.6719,404.7969 C24.125,404.7969 24.2656,404.8281 24.4375,404.9531 C24.6719,405.125 24.7813,405.375 24.7813,405.6563 C24.7813,406.2188 24.4219,406.5 23.6719,406.5 L18.5313,406.5 C18.125,406.5 17.9219,406.4531 17.7656,406.3281 C17.5469,406.1719 17.4063,405.9063 17.4063,405.6563 C17.4063,405.3594 17.5625,405.0781 17.8125,404.9219 C17.9688,404.8125 18.0938,404.7969 18.5313,404.7969 L20.25,404.7969 L20.25,398.2813 L18.5313,398.2813 C18.1094,398.2813 17.9219,398.25 17.7656,398.1406 C17.5469,397.9688 17.4063,397.7188 17.4063,397.4375 C17.4063,397.1563 17.5625,396.8594 17.8125,396.7031 C17.9688,396.6094 18.0938,396.5938 18.5313,396.5938 L23.6719,396.5938 C24.125,396.5938 24.2656,396.625 24.4375,396.7344 C24.6719,396.9063 24.7813,397.1719 24.7813,397.4375 C24.7813,397.7344 24.6406,398.0156 24.375,398.1719 C24.25,398.25 24.0625,398.2813 23.6719,398.2813 Z "/><text fill="#000000" font-family="sans-serif" font-size="12" font-style="italic" lengthAdjust="spacingAndGlyphs" textLength="99" x="35" y="405.6543">WindowListener</text><line style="stroke: #A80036; stroke-width: 1.5;" x1="7" x2="136" y1="417.5" y2="417.5"/><line style="stroke: #A80036; stroke-width: 1.5;" x1="7" x2="136" y1="425.5" y2="425.5"/><!--class ActionListener--><rect fill="#FEFECE" filter="url(#f4m2q949c150l)" height="48" id="ActionListener" style="stroke: #A80036; stroke-width: 1.5;" width="121" x="172" y="385.5"/><ellipse cx="187" cy="401.5" fill="#B4A7E5" rx="11" ry="11" style="stroke: #A80036; stroke-width: 1.0;"/><path d="M187.9531,398.2813 L187.9531,404.7969 L189.6719,404.7969 C190.125,404.7969 190.2656,404.8281 190.4375,404.9531 C190.6719,405.125 190.7813,405.375 190.7813,405.6563 C190.7813,406.2188 190.4219,406.5 189.6719,406.5 L184.5313,406.5 C184.125,406.5 183.9219,406.4531 183.7656,406.3281 C183.5469,406.1719 183.4063,405.9063 183.4063,405.6563 C183.4063,405.3594 183.5625,405.0781 183.8125,404.9219 C183.9688,404.8125 184.0938,404.7969 184.5313,404.7969 L186.25,404.7969 L186.25,398.2813 L184.5313,398.2813 C184.1094,398.2813 183.9219,398.25 183.7656,398.1406 C183.5469,397.9688 183.4063,397.7188 183.4063,397.4375 C183.4063,397.1563 183.5625,396.8594 183.8125,396.7031 C183.9688,396.6094 184.0938,396.5938 184.5313,396.5938 L189.6719,396.5938 C190.125,396.5938 190.2656,396.625 190.4375,396.7344 C190.6719,396.9063 190.7813,397.1719 190.7813,397.4375 C190.7813,397.7344 190.6406,398.0156 190.375,398.1719 C190.25,398.25 190.0625,398.2813 189.6719,398.2813 Z "/><text fill="#000000" font-family="sans-serif" font-size="12" font-style="italic" lengthAdjust="spacingAndGlyphs" textLength="89" x="201" y="405.6543">ActionListener</text><line style="stroke: #A80036; stroke-width: 1.5;" x1="173" x2="292" y1="417.5" y2="417.5"/><line style="stroke: #A80036; stroke-width: 1.5;" x1="173" x2="292" y1="425.5" y2="425.5"/><!--class Frame--><rect fill="#FEFECE" filter="url(#f4m2q949c150l)" height="48" id="Frame" style="stroke: #A80036; stroke-width: 1.5;" width="71" x="328" y="385.5"/><ellipse cx="343" cy="401.5" fill="#ADD1B2" rx="11" ry="11" style="stroke: #A80036; stroke-width: 1.0;"/><path d="M345.3438,397.1719 L345.5156,397.25 C345.7344,396.9375 345.9375,396.8438 346.2344,396.8438 C346.5313,396.8438 346.8125,396.9844 346.9688,397.25 C347.0625,397.4063 347.0781,397.5313 347.0781,397.9688 L347.0781,399.3906 C347.0781,399.8125 347.0469,400 346.9375,400.1563 C346.7656,400.375 346.5,400.5156 346.2344,400.5156 C346.0156,400.5156 345.7813,400.4063 345.6406,400.2656 C345.5,400.1406 345.4688,400.0156 345.4063,399.6094 C345.3125,399.2031 345.1406,398.9844 344.6563,398.7031 C344.1875,398.4531 343.5781,398.2969 343,398.2969 C341.2656,398.2969 340.0156,399.6094 340.0156,401.3906 L340.0156,402.4844 C340.0156,404.1875 341.3125,405.2813 343.3594,405.2813 C344.125,405.2813 344.8125,405.1563 345.2344,404.8906 C345.4219,404.7969 345.4219,404.7969 345.875,404.3125 C346.0625,404.125 346.2656,404.0469 346.4844,404.0469 C346.9531,404.0469 347.3438,404.4375 347.3438,404.8906 C347.3438,405.2813 347.0156,405.7344 346.4375,406.1406 C345.6875,406.6875 344.5313,406.9844 343.3125,406.9844 C340.4219,406.9844 338.3125,405.0938 338.3125,402.5156 L338.3125,401.3906 C338.3125,398.6719 340.3125,396.5938 342.9375,396.5938 C343.8125,396.5938 344.4063,396.7344 345.3438,397.1719 Z "/><text fill="#000000" font-family="sans-serif" font-size="12" lengthAdjust="spacingAndGlyphs" textLength="39" x="357" y="405.6543">Frame</text><line style="stroke: #A80036; stroke-width: 1.5;" x1="329" x2="398" y1="417.5" y2="417.5"/><line style="stroke: #A80036; stroke-width: 1.5;" x1="329" x2="398" y1="425.5" y2="425.5"/><!--class CalculetteAWT--><rect fill="#FEFECE" filter="url(#f4m2q949c150l)" height="201.6563" id="CalculetteAWT" style="stroke: #A80036; stroke-width: 1.5;" width="290" x="152.5" y="536"/><ellipse cx="248.75" cy="552" fill="#ADD1B2" rx="11" ry="11" style="stroke: #A80036; stroke-width: 1.0;"/><path d="M251.0938,547.6719 L251.2656,547.75 C251.4844,547.4375 251.6875,547.3438 251.9844,547.3438 C252.2813,547.3438 252.5625,547.4844 252.7188,547.75 C252.8125,547.9063 252.8281,548.0313 252.8281,548.4688 L252.8281,549.8906 C252.8281,550.3125 252.7969,550.5 252.6875,550.6563 C252.5156,550.875 252.25,551.0156 251.9844,551.0156 C251.7656,551.0156 251.5313,550.9063 251.3906,550.7656 C251.25,550.6406 251.2188,550.5156 251.1563,550.1094 C251.0625,549.7031 250.8906,549.4844 250.4063,549.2031 C249.9375,548.9531 249.3281,548.7969 248.75,548.7969 C247.0156,548.7969 245.7656,550.1094 245.7656,551.8906 L245.7656,552.9844 C245.7656,554.6875 247.0625,555.7813 249.1094,555.7813 C249.875,555.7813 250.5625,555.6563 250.9844,555.3906 C251.1719,555.2969 251.1719,555.2969 251.625,554.8125 C251.8125,554.625 252.0156,554.5469 252.2344,554.5469 C252.7031,554.5469 253.0938,554.9375 253.0938,555.3906 C253.0938,555.7813 252.7656,556.2344 252.1875,556.6406 C251.4375,557.1875 250.2813,557.4844 249.0625,557.4844 C246.1719,557.4844 244.0625,555.5938 244.0625,553.0156 L244.0625,551.8906 C244.0625,549.1719 246.0625,547.0938 248.6875,547.0938 C249.5625,547.0938 250.1563,547.2344 251.0938,547.6719 Z "/><text fill="#000000" font-family="sans-serif" font-size="12" lengthAdjust="spacingAndGlyphs" textLength="89" x="269.25" y="556.1543">CalculetteAWT</text><line style="stroke: #A80036; stroke-width: 1.5;" x1="153.5" x2="441.5" y1="568" y2="568"/><text fill="#000000" font-family="sans-serif" font-size="11" lengthAdjust="spacingAndGlyphs" textLength="161" x="158.5" y="582.2104">private Calculette calculette;</text><text fill="#000000" font-family="sans-serif" font-size="11" lengthAdjust="spacingAndGlyphs" textLength="165" x="158.5" y="595.0151">private TextField tfOperation;</text><text fill="#000000" font-family="sans-serif" font-size="11" lengthAdjust="spacingAndGlyphs" textLength="158" x="158.5" y="607.8198">private TextArea taResultat;</text><line style="stroke: #A80036; stroke-width: 1.5;" x1="153.5" x2="441.5" y1="614.4141" y2="614.4141"/><text fill="#000000" font-family="sans-serif" font-size="11" lengthAdjust="spacingAndGlyphs" textLength="128" x="158.5" y="628.6245">public CalculetteAWT();</text><text fill="#000000" font-family="sans-serif" font-size="11" lengthAdjust="spacingAndGlyphs" textLength="263" x="158.5" y="641.4292">public void windowActivated(WindowEvent evt);</text><text fill="#000000" font-family="sans-serif" font-size="11" lengthAdjust="spacingAndGlyphs" textLength="278" x="158.5" y="654.2339">public void windowDeactivated(WindowEvent evt);</text><text fill="#000000" font-family="sans-serif" font-size="11" lengthAdjust="spacingAndGlyphs" textLength="251" x="158.5" y="667.0386">public void windowClosed(WindowEvent evt);</text><text fill="#000000" font-family="sans-serif" font-size="11" lengthAdjust="spacingAndGlyphs" textLength="254" x="158.5" y="679.8433">public void windowClosing(WindowEvent evt);</text><text fill="#000000" font-family="sans-serif" font-size="11" lengthAdjust="spacingAndGlyphs" textLength="259" x="158.5" y="692.6479">public void windowIconified(WindowEvent evt);</text><text fill="#000000" font-family="sans-serif" font-size="11" lengthAdjust="spacingAndGlyphs" textLength="274" x="158.5" y="705.4526">public void windowDeiconified(WindowEvent evt);</text><text fill="#000000" font-family="sans-serif" font-size="11" lengthAdjust="spacingAndGlyphs" textLength="256" x="158.5" y="718.2573">public void windowOpened(WindowEvent evt);</text><text fill="#000000" font-family="sans-serif" font-size="11" lengthAdjust="spacingAndGlyphs" textLength="256" x="158.5" y="731.062">public void actionPerformed(ActionEvent evt);</text><!--link Operation to OperationMathematique--><path d="M546.5,127.63 C546.5,146.479 546.5,166.496 546.5,183.936 " fill="none" id="Operation-OperationMathematique" style="stroke: #A80036; stroke-width: 1.0;"/><polygon fill="none" points="539.5,127.432,546.5,107.432,553.5,127.432,539.5,127.432" style="stroke: #A80036; stroke-width: 1.0;"/><text fill="#000000" font-family="sans-serif" font-size="13" lengthAdjust="spacingAndGlyphs" textLength="71" x="547.5" y="150.0669">Inheritance</text><!--link OperationMathematique to Calculette--><path d="M546.5,283.432 C546.5,303.056 546.5,325.9 546.5,346.654 " fill="none" id="OperationMathematique-Calculette" style="stroke: #A80036; stroke-width: 1.0;"/><polygon fill="#A80036" points="546.5,359.936,550.5,353.936,546.5,347.936,542.5,353.936,546.5,359.936" style="stroke: #A80036; stroke-width: 1.0;"/><text fill="#000000" font-family="sans-serif" font-size="13" lengthAdjust="spacingAndGlyphs" textLength="68" x="547.5" y="326.0669">operations</text><text fill="#000000" font-family="sans-serif" font-size="13" lengthAdjust="spacingAndGlyphs" textLength="7" x="539.0297" y="303.2105">*</text><text fill="#000000" font-family="sans-serif" font-size="13" lengthAdjust="spacingAndGlyphs" textLength="8" x="537.9375" y="348.9722">1</text><!--link Calculette to CalculetteAWT--><path d="M492.777,459.153 C470.622,479.217 443.989,503.337 417.618,527.219 " fill="none" id="Calculette-CalculetteAWT" style="stroke: #A80036; stroke-width: 1.0;"/><polygon fill="#A80036" points="407.923,535.999,415.0553,534.936,416.8172,527.9434,409.6849,529.0065,407.923,535.999" style="stroke: #A80036; stroke-width: 1.0;"/><text fill="#000000" font-family="sans-serif" font-size="13" lengthAdjust="spacingAndGlyphs" textLength="62" x="459.5" y="502.0669">calculette</text><text fill="#000000" font-family="sans-serif" font-size="13" lengthAdjust="spacingAndGlyphs" textLength="8" x="476.6597" y="479.251">1</text><text fill="#000000" font-family="sans-serif" font-size="13" lengthAdjust="spacingAndGlyphs" textLength="8" x="408.071" y="524.777">1</text><!--link Frame to CalculetteAWT--><path d="M351.002,453.201 C344.143,476.635 335.328,506.756 326.839,535.759 " fill="none" id="Frame-CalculetteAWT" style="stroke: #A80036; stroke-width: 1.0;"/><polygon fill="none" points="344.349,451.012,356.685,433.783,357.786,454.944,344.349,451.012" style="stroke: #A80036; stroke-width: 1.0;"/><text fill="#000000" font-family="sans-serif" font-size="13" lengthAdjust="spacingAndGlyphs" textLength="71" x="341.5" y="502.0669">Inheritance</text><!--link WindowListener to CalculetteAWT--><path d="M107.626,448.589 C124.47,466.195 144.867,487.302 163.5,506 C173.224,515.758 183.412,525.859 193.642,535.92 " fill="none" id="WindowListener-CalculetteAWT" style="stroke: #A80036; stroke-width: 1.0;"/><polygon fill="none" points="102.3272,453.175,93.5914,433.87,112.459,443.514,102.3272,453.175" style="stroke: #A80036; stroke-width: 1.0;"/><text fill="#000000" font-family="sans-serif" font-size="13" lengthAdjust="spacingAndGlyphs" textLength="71" x="164.5" y="502.0669">Inheritance</text><!--link ActionListener to CalculetteAWT--><path d="M237.292,453.548 C239.647,470.108 242.975,489.091 247.5,506 C250.126,515.811 253.235,525.902 256.6,535.917 " fill="none" id="ActionListener-CalculetteAWT" style="stroke: #A80036; stroke-width: 1.0;"/><polygon fill="none" points="230.329,454.278,234.738,433.552,244.216,452.504,230.329,454.278" style="stroke: #A80036; stroke-width: 1.0;"/><text fill="#000000" font-family="sans-serif" font-size="13" lengthAdjust="spacingAndGlyphs" textLength="71" x="248.5" y="502.0669">Inheritance</text><!--
@startuml
class Operation {
    private String operation;

    public Operation(); 
    public String getOperation();
    public void setOperation(String operation);
}

class OperationMathematique {
    private double resultat;

    public OperationMathematique();
    public void resoudre(String uneOperation) throws OperationException;
    public String toString();
} 

class Calculette {
    private int compteur;

    public Calculette();
    public void calculer(String operation);
    public String toString();
} 

interface WindowListener {
}

interface ActionListener{
}

class Frame {
}

class CalculetteAWT {
    private Calculette calculette;
    private TextField tfOperation;
    private TextArea taResultat;

    public CalculetteAWT();
    public void windowActivated(WindowEvent evt);
    public void windowDeactivated(WindowEvent evt);
    public void windowClosed(WindowEvent evt);
    public void windowClosing(WindowEvent evt);
    public void windowIconified(WindowEvent evt);
    public void windowDeiconified(WindowEvent evt);
    public void windowOpened(WindowEvent evt);
    public void actionPerformed(ActionEvent evt);
} 

Operation <|-down- OperationMathematique: Inheritance
Calculette "1" *-up- "*" OperationMathematique: operations
CalculetteAWT "1" *-up- "1" Calculette: calculette
Frame <|-down- CalculetteAWT: Inheritance
WindowListener <|-down- CalculetteAWT: Inheritance
ActionListener <|-down- CalculetteAWT: Inheritance
@enduml

PlantUML version 1.2018.02(Fri Mar 09 17:20:44 UTC 2018)
(GPL source distribution)
Java Runtime: Java(TM) SE Runtime Environment
JVM: Java HotSpot(TM) 64-Bit Server VM
Java Version: 1.7.0_25-b15
Operating System: Linux
Default Encoding: UTF-8
Language: en
Country: US
--></g></svg>