<?xml version="1.0" encoding="UTF-8" standalone="no"?><svg xmlns="http://www.w3.org/2000/svg" xmlns:xlink="http://www.w3.org/1999/xlink" contentScriptType="application/ecmascript" contentStyleType="text/css" height="748px" preserveAspectRatio="none" style="width:766px;height:748px;" version="1.1" viewBox="0 0 766 748" width="766px" zoomAndPan="magnify"><defs><filter height="300%" id="f4vvb6d1ssmoj" width="300%" x="-1" y="-1"><feGaussianBlur result="blurOut" stdDeviation="2.0"/><feColorMatrix in="blurOut" result="blurOut2" type="matrix" values="0 0 0 0 0 0 0 0 0 0 0 0 0 0 0 0 0 0 .4 0"/><feOffset dx="4.0" dy="4.0" in="blurOut2" result="blurOut3"/><feBlend in="SourceGraphic" in2="blurOut3" mode="normal"/></filter></defs><g><!--class Operation--><rect fill="#FEFECE" filter="url(#f4vvb6d1ssmoj)" height="99.2188" id="Operation" style="stroke: #A80036; stroke-width: 1.5;" width="254" x="422.5" y="8"/><ellipse cx="514.25" cy="24" fill="#ADD1B2" rx="11" ry="11" style="stroke: #A80036; stroke-width: 1.0;"/><path d="M516.5938,19.6719 L516.7656,19.75 C516.9844,19.4375 517.1875,19.3438 517.4844,19.3438 C517.7813,19.3438 518.0625,19.4844 518.2188,19.75 C518.3125,19.9063 518.3281,20.0313 518.3281,20.4688 L518.3281,21.8906 C518.3281,22.3125 518.2969,22.5 518.1875,22.6563 C518.0156,22.875 517.75,23.0156 517.4844,23.0156 C517.2656,23.0156 517.0313,22.9063 516.8906,22.7656 C516.75,22.6406 516.7188,22.5156 516.6563,22.1094 C516.5625,21.7031 516.3906,21.4844 515.9063,21.2031 C515.4375,20.9531 514.8281,20.7969 514.25,20.7969 C512.5156,20.7969 511.2656,22.1094 511.2656,23.8906 L511.2656,24.9844 C511.2656,26.6875 512.5625,27.7813 514.6094,27.7813 C515.375,27.7813 516.0625,27.6563 516.4844,27.3906 C516.6719,27.2969 516.6719,27.2969 517.125,26.8125 C517.3125,26.625 517.5156,26.5469 517.7344,26.5469 C518.2031,26.5469 518.5938,26.9375 518.5938,27.3906 C518.5938,27.7813 518.2656,28.2344 517.6875,28.6406 C516.9375,29.1875 515.7813,29.4844 514.5625,29.4844 C511.6719,29.4844 509.5625,27.5938 509.5625,25.0156 L509.5625,23.8906 C509.5625,21.1719 511.5625,19.0938 514.1875,19.0938 C515.0625,19.0938 515.6563,19.2344 516.5938,19.6719 Z "/><text fill="#000000" font-family="sans-serif" font-size="12" lengthAdjust="spacingAndGlyphs" textLength="62" x="534.75" y="28.1543">Operation</text><line style="stroke: #A80036; stroke-width: 1.5;" x1="423.5" x2="675.5" y1="40" y2="40"/><text fill="#000000" font-family="sans-serif" font-size="11" lengthAdjust="spacingAndGlyphs" textLength="139" x="428.5" y="54.2104">private String operation;</text><line style="stroke: #A80036; stroke-width: 1.5;" x1="423.5" x2="675.5" y1="60.8047" y2="60.8047"/><text fill="#000000" font-family="sans-serif" font-size="11" lengthAdjust="spacingAndGlyphs" textLength="105" x="428.5" y="75.0151">public Operation();</text><text fill="#000000" font-family="sans-serif" font-size="11" lengthAdjust="spacingAndGlyphs" textLength="161" x="428.5" y="87.8198">public String getOperation();</text><text fill="#000000" font-family="sans-serif" font-size="11" lengthAdjust="spacingAndGlyphs" textLength="242" x="428.5" y="100.6245">public void setOperation(String operation);</text><!--class OperationMathematique--><rect fill="#FEFECE" filter="url(#f4vvb6d1ssmoj)" height="99.2188" id="OperationMathematique" style="stroke: #A80036; stroke-width: 1.5;" width="412" x="343.5" y="184"/><ellipse cx="469.25" cy="200" fill="#ADD1B2" rx="11" ry="11" style="stroke: #A80036; stroke-width: 1.0;"/><path d="M471.5938,195.6719 L471.7656,195.75 C471.9844,195.4375 472.1875,195.3438 472.4844,195.3438 C472.7813,195.3438 473.0625,195.4844 473.2188,195.75 C473.3125,195.9063 473.3281,196.0313 473.3281,196.4688 L473.3281,197.8906 C473.3281,198.3125 473.2969,198.5 473.1875,198.6563 C473.0156,198.875 472.75,199.0156 472.4844,199.0156 C472.2656,199.0156 472.0313,198.9063 471.8906,198.7656 C471.75,198.6406 471.7188,198.5156 471.6563,198.1094 C471.5625,197.7031 471.3906,197.4844 470.9063,197.2031 C470.4375,196.9531 469.8281,196.7969 469.25,196.7969 C467.5156,196.7969 466.2656,198.1094 466.2656,199.8906 L466.2656,200.9844 C466.2656,202.6875 467.5625,203.7813 469.6094,203.7813 C470.375,203.7813 471.0625,203.6563 471.4844,203.3906 C471.6719,203.2969 471.6719,203.2969 472.125,202.8125 C472.3125,202.625 472.5156,202.5469 472.7344,202.5469 C473.2031,202.5469 473.5938,202.9375 473.5938,203.3906 C473.5938,203.7813 473.2656,204.2344 472.6875,204.6406 C471.9375,205.1875 470.7813,205.4844 469.5625,205.4844 C466.6719,205.4844 464.5625,203.5938 464.5625,201.0156 L464.5625,199.8906 C464.5625,197.1719 466.5625,195.0938 469.1875,195.0938 C470.0625,195.0938 470.6563,195.2344 471.5938,195.6719 Z "/><text fill="#000000" font-family="sans-serif" font-size="12" lengthAdjust="spacingAndGlyphs" textLength="152" x="489.75" y="204.1543">OperationMathematique</text><line style="stroke: #A80036; stroke-width: 1.5;" x1="344.5" x2="754.5" y1="216" y2="216"/><text fill="#000000" font-family="sans-serif" font-size="11" lengthAdjust="spacingAndGlyphs" textLength="133" x="349.5" y="230.2104">private double resultat;</text><line style="stroke: #A80036; stroke-width: 1.5;" x1="344.5" x2="754.5" y1="236.8047" y2="236.8047"/><text fill="#000000" font-family="sans-serif" font-size="11" lengthAdjust="spacingAndGlyphs" textLength="185" x="349.5" y="251.0151">public OperationMathematique();</text><text fill="#000000" font-family="sans-serif" font-size="11" lengthAdjust="spacingAndGlyphs" textLength="400" x="349.5" y="263.8198">public void resoudre(String uneOperation) throws OperationException;</text><text fill="#000000" font-family="sans-serif" font-size="11" lengthAdjust="spacingAndGlyphs" textLength="132" x="349.5" y="276.6245">public String toString();</text><!--class Calculette--><rect fill="#FEFECE" filter="url(#f4vvb6d1ssmoj)" height="99.2188" id="Calculette" style="stroke: #A80036; stroke-width: 1.5;" width="224" x="437.5" y="360"/><ellipse cx="513.75" cy="376" fill="#ADD1B2" rx="11" ry="11" style="stroke: #A80036; stroke-width: 1.0;"/><path d="M516.0938,371.6719 L516.2656,371.75 C516.4844,371.4375 516.6875,371.3438 516.9844,371.3438 C517.2813,371.3438 517.5625,371.4844 517.7188,371.75 C517.8125,371.9063 517.8281,372.0313 517.8281,372.4688 L517.8281,373.8906 C517.8281,374.3125 517.7969,374.5 517.6875,374.6563 C517.5156,374.875 517.25,375.0156 516.9844,375.0156 C516.7656,375.0156 516.5313,374.9063 516.3906,374.7656 C516.25,374.6406 516.2188,374.5156 516.1563,374.1094 C516.0625,373.7031 515.8906,373.4844 515.4063,373.2031 C514.9375,372.9531 514.3281,372.7969 513.75,372.7969 C512.0156,372.7969 510.7656,374.1094 510.7656,375.8906 L510.7656,376.9844 C510.7656,378.6875 512.0625,379.7813 514.1094,379.7813 C514.875,379.7813 515.5625,379.6563 515.9844,379.3906 C516.1719,379.2969 516.1719,379.2969 516.625,378.8125 C516.8125,378.625 517.0156,378.5469 517.2344,378.5469 C517.7031,378.5469 518.0938,378.9375 518.0938,379.3906 C518.0938,379.7813 517.7656,380.2344 517.1875,380.6406 C516.4375,381.1875 515.2813,381.4844 514.0625,381.4844 C511.1719,381.4844 509.0625,379.5938 509.0625,377.0156 L509.0625,375.8906 C509.0625,373.1719 511.0625,371.0938 513.6875,371.0938 C514.5625,371.0938 515.1563,371.2344 516.0938,371.6719 Z "/><text fill="#000000" font-family="sans-serif" font-size="12" lengthAdjust="spacingAndGlyphs" textLength="63" x="534.25" y="380.1543">Calculette</text><line style="stroke: #A80036; stroke-width: 1.5;" x1="438.5" x2="660.5" y1="392" y2="392"/><text fill="#000000" font-family="sans-serif" font-size="11" lengthAdjust="spacingAndGlyphs" textLength="119" x="443.5" y="406.2104">private int compteur;</text><line style="stroke: #A80036; stroke-width: 1.5;" x1="438.5" x2="660.5" y1="412.8047" y2="412.8047"/><text fill="#000000" font-family="sans-serif" font-size="11" lengthAdjust="spacingAndGlyphs" textLength="105" x="443.5" y="427.0151">public Calculette();</text><text fill="#000000" font-family="sans-serif" font-size="11" lengthAdjust="spacingAndGlyphs" textLength="212" x="443.5" y="439.8198">public void calculer(String operation);</text><text fill="#000000" font-family="sans-serif" font-size="11" lengthAdjust="spacingAndGlyphs" textLength="132" x="443.5" y="452.6245">public String toString();</text><!--class WindowListener--><rect fill="#FEFECE" filter="url(#f4vvb6d1ssmoj)" height="48" id="WindowListener" style="stroke: #A80036; stroke-width: 1.5;" width="131" x="6" y="385.5"/><ellipse cx="21" cy="401.5" fill="#B4A7E5" rx="11" ry="11" style="stroke: #A80036; stroke-width: 1.0;"/><path d="M21.9531,398.2813 L21.9531,404.7969 L23.6719,404.7969 C24.125,404.7969 24.2656,404.8281 24.4375,404.9531 C24.6719,405.125 24.7813,405.375 24.7813,405.6563 C24.7813,406.2188 24.4219,406.5 23.6719,406.5 L18.5313,406.5 C18.125,406.5 17.9219,406.4531 17.7656,406.3281 C17.5469,406.1719 17.4063,405.9063 17.4063,405.6563 C17.4063,405.3594 17.5625,405.0781 17.8125,404.9219 C17.9688,404.8125 18.0938,404.7969 18.5313,404.7969 L20.25,404.7969 L20.25,398.2813 L18.5313,398.2813 C18.1094,398.2813 17.9219,398.25 17.7656,398.1406 C17.5469,397.9688 17.4063,397.7188 17.4063,397.4375 C17.4063,397.1563 17.5625,396.8594 17.8125,396.7031 C17.9688,396.6094 18.0938,396.5938 18.5313,396.5938 L23.6719,396.5938 C24.125,396.5938 24.2656,396.625 24.4375,396.7344 C24.6719,396.9063 24.7813,397.1719 24.7813,397.4375 C24.7813,397.7344 24.6406,398.0156 24.375,398.1719 C24.25,398.25 24.0625,398.2813 23.6719,398.2813 Z "/><text fill="#000000" font-family="sans-serif" font-size="12" font-style="italic" lengthAdjust="spacingAndGlyphs" textLength="99" x="35" y="405.6543">WindowListener</text><line style="stroke: #A80036; stroke-width: 1.5;" x1="7" x2="136" y1="417.5" y2="417.5"/><line style="stroke: #A80036; stroke-width: 1.5;" x1="7" x2="136" y1="425.5" y2="425.5"/><!--class ActionListener--><rect fill="#FEFECE" filter="url(#f4vvb6d1ssmoj)" height="48" id="ActionListener" style="stroke: #A80036; stroke-width: 1.5;" width="121" x="172" y="385.5"/><ellipse cx="187" cy="401.5" fill="#B4A7E5" rx="11" ry="11" style="stroke: #A80036; stroke-width: 1.0;"/><path d="M187.9531,398.2813 L187.9531,404.7969 L189.6719,404.7969 C190.125,404.7969 190.2656,404.8281 190.4375,404.9531 C190.6719,405.125 190.7813,405.375 190.7813,405.6563 C190.7813,406.2188 190.4219,406.5 189.6719,406.5 L184.5313,406.5 C184.125,406.5 183.9219,406.4531 183.7656,406.3281 C183.5469,406.1719 183.4063,405.9063 183.4063,405.6563 C183.4063,405.3594 183.5625,405.0781 183.8125,404.9219 C183.9688,404.8125 184.0938,404.7969 184.5313,404.7969 L186.25,404.7969 L186.25,398.2813 L184.5313,398.2813 C184.1094,398.2813 183.9219,398.25 183.7656,398.1406 C183.5469,397.9688 183.4063,397.7188 183.4063,397.4375 C183.4063,397.1563 183.5625,396.8594 183.8125,396.7031 C183.9688,396.6094 184.0938,396.5938 184.5313,396.5938 L189.6719,396.5938 C190.125,396.5938 190.2656,396.625 190.4375,396.7344 C190.6719,396.9063 190.7813,397.1719 190.7813,397.4375 C190.7813,397.7344 190.6406,398.0156 190.375,398.1719 C190.25,398.25 190.0625,398.2813 189.6719,398.2813 Z "/><text fill="#000000" font-family="sans-serif" font-size="12" font-style="italic" lengthAdjust="spacingAndGlyphs" textLength="89" x="201" y="405.6543">ActionListener</text><line style="stroke: #A80036; stroke-width: 1.5;" x1="173" x2="292" y1="417.5" y2="417.5"/><line style="stroke: #A80036; stroke-width: 1.5;" x1="173" x2="292" y1="425.5" y2="425.5"/><!--class JFrame--><rect fill="#FEFECE" filter="url(#f4vvb6d1ssmoj)" height="48" id="JFrame" style="stroke: #A80036; stroke-width: 1.5;" width="74" x="328.5" y="385.5"/><ellipse cx="343.5" cy="401.5" fill="#ADD1B2" rx="11" ry="11" style="stroke: #A80036; stroke-width: 1.0;"/><path d="M345.8438,397.1719 L346.0156,397.25 C346.2344,396.9375 346.4375,396.8438 346.7344,396.8438 C347.0313,396.8438 347.3125,396.9844 347.4688,397.25 C347.5625,397.4063 347.5781,397.5313 347.5781,397.9688 L347.5781,399.3906 C347.5781,399.8125 347.5469,400 347.4375,400.1563 C347.2656,400.375 347,400.5156 346.7344,400.5156 C346.5156,400.5156 346.2813,400.4063 346.1406,400.2656 C346,400.1406 345.9688,400.0156 345.9063,399.6094 C345.8125,399.2031 345.6406,398.9844 345.1563,398.7031 C344.6875,398.4531 344.0781,398.2969 343.5,398.2969 C341.7656,398.2969 340.5156,399.6094 340.5156,401.3906 L340.5156,402.4844 C340.5156,404.1875 341.8125,405.2813 343.8594,405.2813 C344.625,405.2813 345.3125,405.1563 345.7344,404.8906 C345.9219,404.7969 345.9219,404.7969 346.375,404.3125 C346.5625,404.125 346.7656,404.0469 346.9844,404.0469 C347.4531,404.0469 347.8438,404.4375 347.8438,404.8906 C347.8438,405.2813 347.5156,405.7344 346.9375,406.1406 C346.1875,406.6875 345.0313,406.9844 343.8125,406.9844 C340.9219,406.9844 338.8125,405.0938 338.8125,402.5156 L338.8125,401.3906 C338.8125,398.6719 340.8125,396.5938 343.4375,396.5938 C344.3125,396.5938 344.9063,396.7344 345.8438,397.1719 Z "/><text fill="#000000" font-family="sans-serif" font-size="12" lengthAdjust="spacingAndGlyphs" textLength="42" x="357.5" y="405.6543">JFrame</text><line style="stroke: #A80036; stroke-width: 1.5;" x1="329.5" x2="401.5" y1="417.5" y2="417.5"/><line style="stroke: #A80036; stroke-width: 1.5;" x1="329.5" x2="401.5" y1="425.5" y2="425.5"/><!--class CalculetteSWING--><rect fill="#FEFECE" filter="url(#f4vvb6d1ssmoj)" height="201.6563" id="CalculetteSWING" style="stroke: #A80036; stroke-width: 1.5;" width="290" x="153.5" y="536"/><ellipse cx="242.75" cy="552" fill="#ADD1B2" rx="11" ry="11" style="stroke: #A80036; stroke-width: 1.0;"/><path d="M245.0938,547.6719 L245.2656,547.75 C245.4844,547.4375 245.6875,547.3438 245.9844,547.3438 C246.2813,547.3438 246.5625,547.4844 246.7188,547.75 C246.8125,547.9063 246.8281,548.0313 246.8281,548.4688 L246.8281,549.8906 C246.8281,550.3125 246.7969,550.5 246.6875,550.6563 C246.5156,550.875 246.25,551.0156 245.9844,551.0156 C245.7656,551.0156 245.5313,550.9063 245.3906,550.7656 C245.25,550.6406 245.2188,550.5156 245.1563,550.1094 C245.0625,549.7031 244.8906,549.4844 244.4063,549.2031 C243.9375,548.9531 243.3281,548.7969 242.75,548.7969 C241.0156,548.7969 239.7656,550.1094 239.7656,551.8906 L239.7656,552.9844 C239.7656,554.6875 241.0625,555.7813 243.1094,555.7813 C243.875,555.7813 244.5625,555.6563 244.9844,555.3906 C245.1719,555.2969 245.1719,555.2969 245.625,554.8125 C245.8125,554.625 246.0156,554.5469 246.2344,554.5469 C246.7031,554.5469 247.0938,554.9375 247.0938,555.3906 C247.0938,555.7813 246.7656,556.2344 246.1875,556.6406 C245.4375,557.1875 244.2813,557.4844 243.0625,557.4844 C240.1719,557.4844 238.0625,555.5938 238.0625,553.0156 L238.0625,551.8906 C238.0625,549.1719 240.0625,547.0938 242.6875,547.0938 C243.5625,547.0938 244.1563,547.2344 245.0938,547.6719 Z "/><text fill="#000000" font-family="sans-serif" font-size="12" lengthAdjust="spacingAndGlyphs" textLength="103" x="263.25" y="556.1543">CalculetteSWING</text><line style="stroke: #A80036; stroke-width: 1.5;" x1="154.5" x2="442.5" y1="568" y2="568"/><text fill="#000000" font-family="sans-serif" font-size="11" lengthAdjust="spacingAndGlyphs" textLength="161" x="159.5" y="582.2104">private Calculette calculette;</text><text fill="#000000" font-family="sans-serif" font-size="11" lengthAdjust="spacingAndGlyphs" textLength="168" x="159.5" y="595.0151">private JTextField tfOperation;</text><text fill="#000000" font-family="sans-serif" font-size="11" lengthAdjust="spacingAndGlyphs" textLength="161" x="159.5" y="607.8198">private JTextArea taResultat;</text><line style="stroke: #A80036; stroke-width: 1.5;" x1="154.5" x2="442.5" y1="614.4141" y2="614.4141"/><text fill="#000000" font-family="sans-serif" font-size="11" lengthAdjust="spacingAndGlyphs" textLength="142" x="159.5" y="628.6245">public CalculetteSWING();</text><text fill="#000000" font-family="sans-serif" font-size="11" lengthAdjust="spacingAndGlyphs" textLength="263" x="159.5" y="641.4292">public void windowActivated(WindowEvent evt);</text><text fill="#000000" font-family="sans-serif" font-size="11" lengthAdjust="spacingAndGlyphs" textLength="278" x="159.5" y="654.2339">public void windowDeactivated(WindowEvent evt);</text><text fill="#000000" font-family="sans-serif" font-size="11" lengthAdjust="spacingAndGlyphs" textLength="251" x="159.5" y="667.0386">public void windowClosed(WindowEvent evt);</text><text fill="#000000" font-family="sans-serif" font-size="11" lengthAdjust="spacingAndGlyphs" textLength="254" x="159.5" y="679.8433">public void windowClosing(WindowEvent evt);</text><text fill="#000000" font-family="sans-serif" font-size="11" lengthAdjust="spacingAndGlyphs" textLength="259" x="159.5" y="692.6479">public void windowIconified(WindowEvent evt);</text><text fill="#000000" font-family="sans-serif" font-size="11" lengthAdjust="spacingAndGlyphs" textLength="274" x="159.5" y="705.4526">public void windowDeiconified(WindowEvent evt);</text><text fill="#000000" font-family="sans-serif" font-size="11" lengthAdjust="spacingAndGlyphs" textLength="256" x="159.5" y="718.2573">public void windowOpened(WindowEvent evt);</text><text fill="#000000" font-family="sans-serif" font-size="11" lengthAdjust="spacingAndGlyphs" textLength="256" x="159.5" y="731.062">public void actionPerformed(ActionEvent evt);</text><!--link Operation to OperationMathematique--><path d="M549.5,127.63 C549.5,146.479 549.5,166.496 549.5,183.936 " fill="none" id="Operation-OperationMathematique" style="stroke: #A80036; stroke-width: 1.0;"/><polygon fill="none" points="542.5,127.432,549.5,107.432,556.5,127.432,542.5,127.432" style="stroke: #A80036; stroke-width: 1.0;"/><text fill="#000000" font-family="sans-serif" font-size="13" lengthAdjust="spacingAndGlyphs" textLength="71" x="550.5" y="150.0669">Inheritance</text><!--link OperationMathematique to Calculette--><path d="M549.5,283.432 C549.5,303.056 549.5,325.9 549.5,346.654 " fill="none" id="OperationMathematique-Calculette" style="stroke: #A80036; stroke-width: 1.0;"/><polygon fill="#A80036" points="549.5,359.936,553.5,353.936,549.5,347.936,545.5,353.936,549.5,359.936" style="stroke: #A80036; stroke-width: 1.0;"/><text fill="#000000" font-family="sans-serif" font-size="13" lengthAdjust="spacingAndGlyphs" textLength="68" x="550.5" y="326.0669">operations</text><text fill="#000000" font-family="sans-serif" font-size="13" lengthAdjust="spacingAndGlyphs" textLength="7" x="542.0297" y="303.2105">*</text><text fill="#000000" font-family="sans-serif" font-size="13" lengthAdjust="spacingAndGlyphs" textLength="8" x="540.9375" y="348.9722">1</text><!--link Calculette to CalculetteSWING--><path d="M495.346,459.153 C473.012,479.217 446.165,503.337 419.583,527.219 " fill="none" id="Calculette-CalculetteSWING" style="stroke: #A80036; stroke-width: 1.0;"/><polygon fill="#A80036" points="409.81,535.999,416.9465,534.9643,418.7361,527.9788,411.5997,529.0135,409.81,535.999" style="stroke: #A80036; stroke-width: 1.0;"/><text fill="#000000" font-family="sans-serif" font-size="13" lengthAdjust="spacingAndGlyphs" textLength="62" x="461.5" y="502.0669">calculette</text><text fill="#000000" font-family="sans-serif" font-size="13" lengthAdjust="spacingAndGlyphs" textLength="8" x="479.1681" y="479.251">1</text><text fill="#000000" font-family="sans-serif" font-size="13" lengthAdjust="spacingAndGlyphs" textLength="8" x="410.0259" y="524.777">1</text><!--link JFrame to CalculetteSWING--><path d="M352.813,453.201 C345.85,476.635 336.901,506.756 328.283,535.759 " fill="none" id="JFrame-CalculetteSWING" style="stroke: #A80036; stroke-width: 1.0;"/><polygon fill="none" points="346.176,450.961,358.582,433.783,359.596,454.949,346.176,450.961" style="stroke: #A80036; stroke-width: 1.0;"/><text fill="#000000" font-family="sans-serif" font-size="13" lengthAdjust="spacingAndGlyphs" textLength="71" x="343.5" y="502.0669">Inheritance</text><!--link WindowListener to CalculetteSWING--><path d="M108.28,448.202 C125.568,465.836 146.509,487.076 165.5,506 C175.22,515.686 185.379,525.74 195.562,535.771 " fill="none" id="WindowListener-CalculetteSWING" style="stroke: #A80036; stroke-width: 1.0;"/><polygon fill="none" points="103.1536,452.972,94.169,433.781,113.16,443.18,103.1536,452.972" style="stroke: #A80036; stroke-width: 1.0;"/><text fill="#000000" font-family="sans-serif" font-size="13" lengthAdjust="spacingAndGlyphs" textLength="71" x="166.5" y="502.0669">Inheritance</text><!--link ActionListener to CalculetteSWING--><path d="M238.429,453.52 C241.16,470.077 244.844,489.064 249.5,506 C252.186,515.768 255.309,525.83 258.654,535.826 " fill="none" id="ActionListener-CalculetteSWING" style="stroke: #A80036; stroke-width: 1.0;"/><polygon fill="none" points="231.476,454.359,235.386,433.533,245.316,452.251,231.476,454.359" style="stroke: #A80036; stroke-width: 1.0;"/><text fill="#000000" font-family="sans-serif" font-size="13" lengthAdjust="spacingAndGlyphs" textLength="71" x="250.5" y="502.0669">Inheritance</text><!--
@startuml
class Operation {
    private String operation;

    public Operation(); 
    public String getOperation();
    public void setOperation(String operation);
}

class OperationMathematique {
    private double resultat;

    public OperationMathematique();
    public void resoudre(String uneOperation) throws OperationException;
    public String toString();
} 

class Calculette {
    private int compteur;

    public Calculette();
    public void calculer(String operation);
    public String toString();
} 

interface WindowListener {
}

interface ActionListener{
}

class JFrame {
}

class CalculetteSWING {
    private Calculette calculette;
    private JTextField tfOperation;
    private JTextArea taResultat;

    public CalculetteSWING();
    public void windowActivated(WindowEvent evt);
    public void windowDeactivated(WindowEvent evt);
    public void windowClosed(WindowEvent evt);
    public void windowClosing(WindowEvent evt);
    public void windowIconified(WindowEvent evt);
    public void windowDeiconified(WindowEvent evt);
    public void windowOpened(WindowEvent evt);
    public void actionPerformed(ActionEvent evt);
} 

Operation <|-down- OperationMathematique: Inheritance
Calculette "1" *-up- "*" OperationMathematique: operations
CalculetteSWING "1" *-up- "1" Calculette: calculette
JFrame <|-down- CalculetteSWING: Inheritance
WindowListener <|-down- CalculetteSWING: Inheritance
ActionListener <|-down- CalculetteSWING: Inheritance
@enduml

PlantUML version 1.2018.02(Fri Mar 09 17:20:44 UTC 2018)
(GPL source distribution)
Java Runtime: Java(TM) SE Runtime Environment
JVM: Java HotSpot(TM) 64-Bit Server VM
Java Version: 1.7.0_25-b15
Operating System: Linux
Default Encoding: UTF-8
Language: en
Country: US
--></g></svg>