<?xml version="1.0" encoding="UTF-8" standalone="no"?><svg xmlns="http://www.w3.org/2000/svg" xmlns:xlink="http://www.w3.org/1999/xlink" contentScriptType="application/ecmascript" contentStyleType="text/css" height="457px" preserveAspectRatio="none" style="width:429px;height:457px;" version="1.1" viewBox="0 0 429 457" width="429px" zoomAndPan="magnify"><defs><filter height="300%" id="fvvkpbyewrhcc" width="300%" x="-1" y="-1"><feGaussianBlur result="blurOut" stdDeviation="2.0"/><feColorMatrix in="blurOut" result="blurOut2" type="matrix" values="0 0 0 0 0 0 0 0 0 0 0 0 0 0 0 0 0 0 .4 0"/><feOffset dx="4.0" dy="4.0" in="blurOut2" result="blurOut3"/><feBlend in="SourceGraphic" in2="blurOut3" mode="normal"/></filter></defs><g><!--class Operation--><rect fill="#FEFECE" filter="url(#fvvkpbyewrhcc)" height="99.2188" id="Operation" style="stroke: #A80036; stroke-width: 1.5;" width="254" x="85" y="8"/><ellipse cx="176.75" cy="24" fill="#ADD1B2" rx="11" ry="11" style="stroke: #A80036; stroke-width: 1.0;"/><path d="M179.0938,19.6719 L179.2656,19.75 C179.4844,19.4375 179.6875,19.3438 179.9844,19.3438 C180.2813,19.3438 180.5625,19.4844 180.7188,19.75 C180.8125,19.9063 180.8281,20.0313 180.8281,20.4688 L180.8281,21.8906 C180.8281,22.3125 180.7969,22.5 180.6875,22.6563 C180.5156,22.875 180.25,23.0156 179.9844,23.0156 C179.7656,23.0156 179.5313,22.9063 179.3906,22.7656 C179.25,22.6406 179.2188,22.5156 179.1563,22.1094 C179.0625,21.7031 178.8906,21.4844 178.4063,21.2031 C177.9375,20.9531 177.3281,20.7969 176.75,20.7969 C175.0156,20.7969 173.7656,22.1094 173.7656,23.8906 L173.7656,24.9844 C173.7656,26.6875 175.0625,27.7813 177.1094,27.7813 C177.875,27.7813 178.5625,27.6563 178.9844,27.3906 C179.1719,27.2969 179.1719,27.2969 179.625,26.8125 C179.8125,26.625 180.0156,26.5469 180.2344,26.5469 C180.7031,26.5469 181.0938,26.9375 181.0938,27.3906 C181.0938,27.7813 180.7656,28.2344 180.1875,28.6406 C179.4375,29.1875 178.2813,29.4844 177.0625,29.4844 C174.1719,29.4844 172.0625,27.5938 172.0625,25.0156 L172.0625,23.8906 C172.0625,21.1719 174.0625,19.0938 176.6875,19.0938 C177.5625,19.0938 178.1563,19.2344 179.0938,19.6719 Z "/><text fill="#000000" font-family="sans-serif" font-size="12" lengthAdjust="spacingAndGlyphs" textLength="62" x="197.25" y="28.1543">Operation</text><line style="stroke: #A80036; stroke-width: 1.5;" x1="86" x2="338" y1="40" y2="40"/><text fill="#000000" font-family="sans-serif" font-size="11" lengthAdjust="spacingAndGlyphs" textLength="139" x="91" y="54.2104">private String operation;</text><line style="stroke: #A80036; stroke-width: 1.5;" x1="86" x2="338" y1="60.8047" y2="60.8047"/><text fill="#000000" font-family="sans-serif" font-size="11" lengthAdjust="spacingAndGlyphs" textLength="105" x="91" y="75.0151">public Operation();</text><text fill="#000000" font-family="sans-serif" font-size="11" lengthAdjust="spacingAndGlyphs" textLength="161" x="91" y="87.8198">public String getOperation();</text><text fill="#000000" font-family="sans-serif" font-size="11" lengthAdjust="spacingAndGlyphs" textLength="242" x="91" y="100.6245">public void setOperation(String operation);</text><!--class OperationMathematique--><rect fill="#FEFECE" filter="url(#fvvkpbyewrhcc)" height="99.2188" id="OperationMathematique" style="stroke: #A80036; stroke-width: 1.5;" width="412" x="6" y="184"/><ellipse cx="131.75" cy="200" fill="#ADD1B2" rx="11" ry="11" style="stroke: #A80036; stroke-width: 1.0;"/><path d="M134.0938,195.6719 L134.2656,195.75 C134.4844,195.4375 134.6875,195.3438 134.9844,195.3438 C135.2813,195.3438 135.5625,195.4844 135.7188,195.75 C135.8125,195.9063 135.8281,196.0313 135.8281,196.4688 L135.8281,197.8906 C135.8281,198.3125 135.7969,198.5 135.6875,198.6563 C135.5156,198.875 135.25,199.0156 134.9844,199.0156 C134.7656,199.0156 134.5313,198.9063 134.3906,198.7656 C134.25,198.6406 134.2188,198.5156 134.1563,198.1094 C134.0625,197.7031 133.8906,197.4844 133.4063,197.2031 C132.9375,196.9531 132.3281,196.7969 131.75,196.7969 C130.0156,196.7969 128.7656,198.1094 128.7656,199.8906 L128.7656,200.9844 C128.7656,202.6875 130.0625,203.7813 132.1094,203.7813 C132.875,203.7813 133.5625,203.6563 133.9844,203.3906 C134.1719,203.2969 134.1719,203.2969 134.625,202.8125 C134.8125,202.625 135.0156,202.5469 135.2344,202.5469 C135.7031,202.5469 136.0938,202.9375 136.0938,203.3906 C136.0938,203.7813 135.7656,204.2344 135.1875,204.6406 C134.4375,205.1875 133.2813,205.4844 132.0625,205.4844 C129.1719,205.4844 127.0625,203.5938 127.0625,201.0156 L127.0625,199.8906 C127.0625,197.1719 129.0625,195.0938 131.6875,195.0938 C132.5625,195.0938 133.1563,195.2344 134.0938,195.6719 Z "/><text fill="#000000" font-family="sans-serif" font-size="12" lengthAdjust="spacingAndGlyphs" textLength="152" x="152.25" y="204.1543">OperationMathematique</text><line style="stroke: #A80036; stroke-width: 1.5;" x1="7" x2="417" y1="216" y2="216"/><text fill="#000000" font-family="sans-serif" font-size="11" lengthAdjust="spacingAndGlyphs" textLength="133" x="12" y="230.2104">private double resultat;</text><line style="stroke: #A80036; stroke-width: 1.5;" x1="7" x2="417" y1="236.8047" y2="236.8047"/><text fill="#000000" font-family="sans-serif" font-size="11" lengthAdjust="spacingAndGlyphs" textLength="185" x="12" y="251.0151">public OperationMathematique();</text><text fill="#000000" font-family="sans-serif" font-size="11" lengthAdjust="spacingAndGlyphs" textLength="400" x="12" y="263.8198">public void resoudre(String uneOperation) throws OperationException;</text><text fill="#000000" font-family="sans-serif" font-size="11" lengthAdjust="spacingAndGlyphs" textLength="132" x="12" y="276.6245">public String toString();</text><!--class Calculette--><rect fill="#FEFECE" filter="url(#fvvkpbyewrhcc)" height="86.4141" id="Calculette" style="stroke: #A80036; stroke-width: 1.5;" width="224" x="100" y="360"/><ellipse cx="176.25" cy="376" fill="#ADD1B2" rx="11" ry="11" style="stroke: #A80036; stroke-width: 1.0;"/><path d="M178.5938,371.6719 L178.7656,371.75 C178.9844,371.4375 179.1875,371.3438 179.4844,371.3438 C179.7813,371.3438 180.0625,371.4844 180.2188,371.75 C180.3125,371.9063 180.3281,372.0313 180.3281,372.4688 L180.3281,373.8906 C180.3281,374.3125 180.2969,374.5 180.1875,374.6563 C180.0156,374.875 179.75,375.0156 179.4844,375.0156 C179.2656,375.0156 179.0313,374.9063 178.8906,374.7656 C178.75,374.6406 178.7188,374.5156 178.6563,374.1094 C178.5625,373.7031 178.3906,373.4844 177.9063,373.2031 C177.4375,372.9531 176.8281,372.7969 176.25,372.7969 C174.5156,372.7969 173.2656,374.1094 173.2656,375.8906 L173.2656,376.9844 C173.2656,378.6875 174.5625,379.7813 176.6094,379.7813 C177.375,379.7813 178.0625,379.6563 178.4844,379.3906 C178.6719,379.2969 178.6719,379.2969 179.125,378.8125 C179.3125,378.625 179.5156,378.5469 179.7344,378.5469 C180.2031,378.5469 180.5938,378.9375 180.5938,379.3906 C180.5938,379.7813 180.2656,380.2344 179.6875,380.6406 C178.9375,381.1875 177.7813,381.4844 176.5625,381.4844 C173.6719,381.4844 171.5625,379.5938 171.5625,377.0156 L171.5625,375.8906 C171.5625,373.1719 173.5625,371.0938 176.1875,371.0938 C177.0625,371.0938 177.6563,371.2344 178.5938,371.6719 Z "/><text fill="#000000" font-family="sans-serif" font-size="12" lengthAdjust="spacingAndGlyphs" textLength="63" x="196.75" y="380.1543">Calculette</text><line style="stroke: #A80036; stroke-width: 1.5;" x1="101" x2="323" y1="392" y2="392"/><line style="stroke: #A80036; stroke-width: 1.5;" x1="101" x2="323" y1="400" y2="400"/><text fill="#000000" font-family="sans-serif" font-size="11" lengthAdjust="spacingAndGlyphs" textLength="105" x="106" y="414.2104">public Calculette();</text><text fill="#000000" font-family="sans-serif" font-size="11" lengthAdjust="spacingAndGlyphs" textLength="212" x="106" y="427.0151">public void calculer(String operation);</text><text fill="#000000" font-family="sans-serif" font-size="11" lengthAdjust="spacingAndGlyphs" textLength="132" x="106" y="439.8198">public String toString();</text><!--link Operation to OperationMathematique--><path d="M212,127.63 C212,146.479 212,166.496 212,183.936 " fill="none" id="Operation-OperationMathematique" style="stroke: #A80036; stroke-width: 1.0;"/><polygon fill="none" points="205,127.432,212,107.432,219,127.432,205,127.432" style="stroke: #A80036; stroke-width: 1.0;"/><text fill="#000000" font-family="sans-serif" font-size="13" lengthAdjust="spacingAndGlyphs" textLength="71" x="213" y="150.0669">Inheritance</text><!--link OperationMathematique to Calculette--><path d="M212,283.398 C212,303.28 212,326.352 212,346.8321 " fill="none" id="OperationMathematique-Calculette" style="stroke: #A80036; stroke-width: 1.0;"/><polygon fill="#A80036" points="212,359.8569,216,353.8569,212,347.8569,208,353.8569,212,359.8569" style="stroke: #A80036; stroke-width: 1.0;"/><text fill="#000000" font-family="sans-serif" font-size="13" lengthAdjust="spacingAndGlyphs" textLength="61" x="213" y="326.0669">operation</text><text fill="#000000" font-family="sans-serif" font-size="13" lengthAdjust="spacingAndGlyphs" textLength="8" x="203.4625" y="303.172">1</text><text fill="#000000" font-family="sans-serif" font-size="13" lengthAdjust="spacingAndGlyphs" textLength="8" x="203.3625" y="348.8303">1</text><!--
@startuml
class Operation {
    private String operation;

    public Operation(); 
    public String getOperation();
    public void setOperation(String operation);
}

class OperationMathematique {
    private double resultat;

    public OperationMathematique();
    public void resoudre(String uneOperation) throws OperationException;
    public String toString();
} 

class Calculette {

    public Calculette();
    public void calculer(String operation);
    public String toString();
} 

Operation <|-down- OperationMathematique: Inheritance
Calculette "1" *-up- "1" OperationMathematique: operation
@enduml

PlantUML version 1.2018.02(Fri Mar 09 17:20:44 UTC 2018)
(GPL source distribution)
Java Runtime: Java(TM) SE Runtime Environment
JVM: Java HotSpot(TM) 64-Bit Server VM
Java Version: 1.7.0_25-b15
Operating System: Linux
Default Encoding: UTF-8
Language: en
Country: US
--></g></svg>