<?xml version="1.0" encoding="UTF-8" standalone="no"?><svg xmlns="http://www.w3.org/2000/svg" xmlns:xlink="http://www.w3.org/1999/xlink" contentScriptType="application/ecmascript" contentStyleType="text/css" height="659px" preserveAspectRatio="none" style="width:1348px;height:659px;" version="1.1" viewBox="0 0 1348 659" width="1348px" zoomAndPan="magnify"><defs><filter height="300%" id="f1m2ddd8a68940" width="300%" x="-1" y="-1"><feGaussianBlur result="blurOut" stdDeviation="2.0"/><feColorMatrix in="blurOut" result="blurOut2" type="matrix" values="0 0 0 0 0 0 0 0 0 0 0 0 0 0 0 0 0 0 .4 0"/><feOffset dx="4.0" dy="4.0" in="blurOut2" result="blurOut3"/><feBlend in="SourceGraphic" in2="blurOut3" mode="normal"/></filter></defs><g><!--class Operation--><rect fill="#FEFECE" filter="url(#f1m2ddd8a68940)" height="99.2188" id="Operation" style="stroke: #A80036; stroke-width: 1.5;" width="254" x="1004" y="8"/><ellipse cx="1095.75" cy="24" fill="#ADD1B2" rx="11" ry="11" style="stroke: #A80036; stroke-width: 1.0;"/><path d="M1098.0938,19.6719 L1098.2656,19.75 C1098.4844,19.4375 1098.6875,19.3438 1098.9844,19.3438 C1099.2813,19.3438 1099.5625,19.4844 1099.7188,19.75 C1099.8125,19.9063 1099.8281,20.0313 1099.8281,20.4688 L1099.8281,21.8906 C1099.8281,22.3125 1099.7969,22.5 1099.6875,22.6563 C1099.5156,22.875 1099.25,23.0156 1098.9844,23.0156 C1098.7656,23.0156 1098.5313,22.9063 1098.3906,22.7656 C1098.25,22.6406 1098.2188,22.5156 1098.1563,22.1094 C1098.0625,21.7031 1097.8906,21.4844 1097.4063,21.2031 C1096.9375,20.9531 1096.3281,20.7969 1095.75,20.7969 C1094.0156,20.7969 1092.7656,22.1094 1092.7656,23.8906 L1092.7656,24.9844 C1092.7656,26.6875 1094.0625,27.7813 1096.1094,27.7813 C1096.875,27.7813 1097.5625,27.6563 1097.9844,27.3906 C1098.1719,27.2969 1098.1719,27.2969 1098.625,26.8125 C1098.8125,26.625 1099.0156,26.5469 1099.2344,26.5469 C1099.7031,26.5469 1100.0938,26.9375 1100.0938,27.3906 C1100.0938,27.7813 1099.7656,28.2344 1099.1875,28.6406 C1098.4375,29.1875 1097.2813,29.4844 1096.0625,29.4844 C1093.1719,29.4844 1091.0625,27.5938 1091.0625,25.0156 L1091.0625,23.8906 C1091.0625,21.1719 1093.0625,19.0938 1095.6875,19.0938 C1096.5625,19.0938 1097.1563,19.2344 1098.0938,19.6719 Z "/><text fill="#000000" font-family="sans-serif" font-size="12" lengthAdjust="spacingAndGlyphs" textLength="62" x="1116.25" y="28.1543">Operation</text><line style="stroke: #A80036; stroke-width: 1.5;" x1="1005" x2="1257" y1="40" y2="40"/><text fill="#000000" font-family="sans-serif" font-size="11" lengthAdjust="spacingAndGlyphs" textLength="139" x="1010" y="54.2104">private String operation;</text><line style="stroke: #A80036; stroke-width: 1.5;" x1="1005" x2="1257" y1="60.8047" y2="60.8047"/><text fill="#000000" font-family="sans-serif" font-size="11" lengthAdjust="spacingAndGlyphs" textLength="105" x="1010" y="75.0151">public Operation();</text><text fill="#000000" font-family="sans-serif" font-size="11" lengthAdjust="spacingAndGlyphs" textLength="161" x="1010" y="87.8198">public String getOperation();</text><text fill="#000000" font-family="sans-serif" font-size="11" lengthAdjust="spacingAndGlyphs" textLength="242" x="1010" y="100.6245">public void setOperation(String operation);</text><!--class OperationMathematique--><rect fill="#FEFECE" filter="url(#f1m2ddd8a68940)" height="99.2188" id="OperationMathematique" style="stroke: #A80036; stroke-width: 1.5;" width="412" x="925" y="184"/><ellipse cx="1050.75" cy="200" fill="#ADD1B2" rx="11" ry="11" style="stroke: #A80036; stroke-width: 1.0;"/><path d="M1053.0938,195.6719 L1053.2656,195.75 C1053.4844,195.4375 1053.6875,195.3438 1053.9844,195.3438 C1054.2813,195.3438 1054.5625,195.4844 1054.7188,195.75 C1054.8125,195.9063 1054.8281,196.0313 1054.8281,196.4688 L1054.8281,197.8906 C1054.8281,198.3125 1054.7969,198.5 1054.6875,198.6563 C1054.5156,198.875 1054.25,199.0156 1053.9844,199.0156 C1053.7656,199.0156 1053.5313,198.9063 1053.3906,198.7656 C1053.25,198.6406 1053.2188,198.5156 1053.1563,198.1094 C1053.0625,197.7031 1052.8906,197.4844 1052.4063,197.2031 C1051.9375,196.9531 1051.3281,196.7969 1050.75,196.7969 C1049.0156,196.7969 1047.7656,198.1094 1047.7656,199.8906 L1047.7656,200.9844 C1047.7656,202.6875 1049.0625,203.7813 1051.1094,203.7813 C1051.875,203.7813 1052.5625,203.6563 1052.9844,203.3906 C1053.1719,203.2969 1053.1719,203.2969 1053.625,202.8125 C1053.8125,202.625 1054.0156,202.5469 1054.2344,202.5469 C1054.7031,202.5469 1055.0938,202.9375 1055.0938,203.3906 C1055.0938,203.7813 1054.7656,204.2344 1054.1875,204.6406 C1053.4375,205.1875 1052.2813,205.4844 1051.0625,205.4844 C1048.1719,205.4844 1046.0625,203.5938 1046.0625,201.0156 L1046.0625,199.8906 C1046.0625,197.1719 1048.0625,195.0938 1050.6875,195.0938 C1051.5625,195.0938 1052.1563,195.2344 1053.0938,195.6719 Z "/><text fill="#000000" font-family="sans-serif" font-size="12" lengthAdjust="spacingAndGlyphs" textLength="152" x="1071.25" y="204.1543">OperationMathematique</text><line style="stroke: #A80036; stroke-width: 1.5;" x1="926" x2="1336" y1="216" y2="216"/><text fill="#000000" font-family="sans-serif" font-size="11" lengthAdjust="spacingAndGlyphs" textLength="133" x="931" y="230.2104">private double resultat;</text><line style="stroke: #A80036; stroke-width: 1.5;" x1="926" x2="1336" y1="236.8047" y2="236.8047"/><text fill="#000000" font-family="sans-serif" font-size="11" lengthAdjust="spacingAndGlyphs" textLength="185" x="931" y="251.0151">public OperationMathematique();</text><text fill="#000000" font-family="sans-serif" font-size="11" lengthAdjust="spacingAndGlyphs" textLength="400" x="931" y="263.8198">public void resoudre(String uneOperation) throws OperationException;</text><text fill="#000000" font-family="sans-serif" font-size="11" lengthAdjust="spacingAndGlyphs" textLength="132" x="931" y="276.6245">public String toString();</text><!--class Calculette--><rect fill="#FEFECE" filter="url(#f1m2ddd8a68940)" height="99.2188" id="Calculette" style="stroke: #A80036; stroke-width: 1.5;" width="224" x="1019" y="379.5"/><ellipse cx="1095.25" cy="395.5" fill="#ADD1B2" rx="11" ry="11" style="stroke: #A80036; stroke-width: 1.0;"/><path d="M1097.5938,391.1719 L1097.7656,391.25 C1097.9844,390.9375 1098.1875,390.8438 1098.4844,390.8438 C1098.7813,390.8438 1099.0625,390.9844 1099.2188,391.25 C1099.3125,391.4063 1099.3281,391.5313 1099.3281,391.9688 L1099.3281,393.3906 C1099.3281,393.8125 1099.2969,394 1099.1875,394.1563 C1099.0156,394.375 1098.75,394.5156 1098.4844,394.5156 C1098.2656,394.5156 1098.0313,394.4063 1097.8906,394.2656 C1097.75,394.1406 1097.7188,394.0156 1097.6563,393.6094 C1097.5625,393.2031 1097.3906,392.9844 1096.9063,392.7031 C1096.4375,392.4531 1095.8281,392.2969 1095.25,392.2969 C1093.5156,392.2969 1092.2656,393.6094 1092.2656,395.3906 L1092.2656,396.4844 C1092.2656,398.1875 1093.5625,399.2813 1095.6094,399.2813 C1096.375,399.2813 1097.0625,399.1563 1097.4844,398.8906 C1097.6719,398.7969 1097.6719,398.7969 1098.125,398.3125 C1098.3125,398.125 1098.5156,398.0469 1098.7344,398.0469 C1099.2031,398.0469 1099.5938,398.4375 1099.5938,398.8906 C1099.5938,399.2813 1099.2656,399.7344 1098.6875,400.1406 C1097.9375,400.6875 1096.7813,400.9844 1095.5625,400.9844 C1092.6719,400.9844 1090.5625,399.0938 1090.5625,396.5156 L1090.5625,395.3906 C1090.5625,392.6719 1092.5625,390.5938 1095.1875,390.5938 C1096.0625,390.5938 1096.6563,390.7344 1097.5938,391.1719 Z "/><text fill="#000000" font-family="sans-serif" font-size="12" lengthAdjust="spacingAndGlyphs" textLength="63" x="1115.75" y="399.6543">Calculette</text><line style="stroke: #A80036; stroke-width: 1.5;" x1="1020" x2="1242" y1="411.5" y2="411.5"/><text fill="#000000" font-family="sans-serif" font-size="11" lengthAdjust="spacingAndGlyphs" textLength="119" x="1025" y="425.7104">private int compteur;</text><line style="stroke: #A80036; stroke-width: 1.5;" x1="1020" x2="1242" y1="432.3047" y2="432.3047"/><text fill="#000000" font-family="sans-serif" font-size="11" lengthAdjust="spacingAndGlyphs" textLength="105" x="1025" y="446.5151">public Calculette();</text><text fill="#000000" font-family="sans-serif" font-size="11" lengthAdjust="spacingAndGlyphs" textLength="212" x="1025" y="459.3198">public void calculer(String operation);</text><text fill="#000000" font-family="sans-serif" font-size="11" lengthAdjust="spacingAndGlyphs" textLength="132" x="1025" y="472.1245">public String toString();</text><!--class CalculetteSauvegarde--><rect fill="#FEFECE" filter="url(#f1m2ddd8a68940)" height="73.6094" id="CalculetteSauvegarde" style="stroke: #A80036; stroke-width: 1.5;" width="254" x="460" y="575"/><ellipse cx="513.75" cy="591" fill="#ADD1B2" rx="11" ry="11" style="stroke: #A80036; stroke-width: 1.0;"/><path d="M516.0938,586.6719 L516.2656,586.75 C516.4844,586.4375 516.6875,586.3438 516.9844,586.3438 C517.2813,586.3438 517.5625,586.4844 517.7188,586.75 C517.8125,586.9063 517.8281,587.0313 517.8281,587.4688 L517.8281,588.8906 C517.8281,589.3125 517.7969,589.5 517.6875,589.6563 C517.5156,589.875 517.25,590.0156 516.9844,590.0156 C516.7656,590.0156 516.5313,589.9063 516.3906,589.7656 C516.25,589.6406 516.2188,589.5156 516.1563,589.1094 C516.0625,588.7031 515.8906,588.4844 515.4063,588.2031 C514.9375,587.9531 514.3281,587.7969 513.75,587.7969 C512.0156,587.7969 510.7656,589.1094 510.7656,590.8906 L510.7656,591.9844 C510.7656,593.6875 512.0625,594.7813 514.1094,594.7813 C514.875,594.7813 515.5625,594.6563 515.9844,594.3906 C516.1719,594.2969 516.1719,594.2969 516.625,593.8125 C516.8125,593.625 517.0156,593.5469 517.2344,593.5469 C517.7031,593.5469 518.0938,593.9375 518.0938,594.3906 C518.0938,594.7813 517.7656,595.2344 517.1875,595.6406 C516.4375,596.1875 515.2813,596.4844 514.0625,596.4844 C511.1719,596.4844 509.0625,594.5938 509.0625,592.0156 L509.0625,590.8906 C509.0625,588.1719 511.0625,586.0938 513.6875,586.0938 C514.5625,586.0938 515.1563,586.2344 516.0938,586.6719 Z "/><text fill="#000000" font-family="sans-serif" font-size="12" lengthAdjust="spacingAndGlyphs" textLength="138" x="534.25" y="595.1543">CalculetteSauvegarde</text><line style="stroke: #A80036; stroke-width: 1.5;" x1="461" x2="713" y1="607" y2="607"/><line style="stroke: #A80036; stroke-width: 1.5;" x1="461" x2="713" y1="615" y2="615"/><text fill="#000000" font-family="sans-serif" font-size="11" lengthAdjust="spacingAndGlyphs" textLength="242" x="466" y="629.2104">public CalculetteSauvegarde(int uneTaille);</text><text fill="#000000" font-family="sans-serif" font-size="11" lengthAdjust="spacingAndGlyphs" textLength="148" x="466" y="642.0151">public void sauvegarder();</text><!--class FichierTexte--><rect fill="#FEFECE" filter="url(#f1m2ddd8a68940)" height="137.6328" id="FichierTexte" style="stroke: #A80036; stroke-width: 1.5;" width="402" x="582" y="360"/><ellipse cx="741.25" cy="376" fill="#ADD1B2" rx="11" ry="11" style="stroke: #A80036; stroke-width: 1.0;"/><path d="M743.5938,371.6719 L743.7656,371.75 C743.9844,371.4375 744.1875,371.3438 744.4844,371.3438 C744.7813,371.3438 745.0625,371.4844 745.2188,371.75 C745.3125,371.9063 745.3281,372.0313 745.3281,372.4688 L745.3281,373.8906 C745.3281,374.3125 745.2969,374.5 745.1875,374.6563 C745.0156,374.875 744.75,375.0156 744.4844,375.0156 C744.2656,375.0156 744.0313,374.9063 743.8906,374.7656 C743.75,374.6406 743.7188,374.5156 743.6563,374.1094 C743.5625,373.7031 743.3906,373.4844 742.9063,373.2031 C742.4375,372.9531 741.8281,372.7969 741.25,372.7969 C739.5156,372.7969 738.2656,374.1094 738.2656,375.8906 L738.2656,376.9844 C738.2656,378.6875 739.5625,379.7813 741.6094,379.7813 C742.375,379.7813 743.0625,379.6563 743.4844,379.3906 C743.6719,379.2969 743.6719,379.2969 744.125,378.8125 C744.3125,378.625 744.5156,378.5469 744.7344,378.5469 C745.2031,378.5469 745.5938,378.9375 745.5938,379.3906 C745.5938,379.7813 745.2656,380.2344 744.6875,380.6406 C743.9375,381.1875 742.7813,381.4844 741.5625,381.4844 C738.6719,381.4844 736.5625,379.5938 736.5625,377.0156 L736.5625,375.8906 C736.5625,373.1719 738.5625,371.0938 741.1875,371.0938 C742.0625,371.0938 742.6563,371.2344 743.5938,371.6719 Z "/><text fill="#000000" font-family="sans-serif" font-size="12" lengthAdjust="spacingAndGlyphs" textLength="75" x="761.75" y="380.1543">FichierTexte</text><line style="stroke: #A80036; stroke-width: 1.5;" x1="583" x2="983" y1="392" y2="392"/><text fill="#000000" font-family="sans-serif" font-size="11" lengthAdjust="spacingAndGlyphs" textLength="146" x="588" y="406.2104">private BufferedWriter fW;</text><text fill="#000000" font-family="sans-serif" font-size="11" lengthAdjust="spacingAndGlyphs" textLength="151" x="588" y="419.0151">private BufferedReader fR;</text><text fill="#000000" font-family="sans-serif" font-size="11" lengthAdjust="spacingAndGlyphs" textLength="108" x="588" y="431.8198">private char mode;</text><line style="stroke: #A80036; stroke-width: 1.5;" x1="583" x2="983" y1="438.4141" y2="438.4141"/><text fill="#000000" font-family="sans-serif" font-size="11" lengthAdjust="spacingAndGlyphs" textLength="390" x="588" y="452.6245">public void ouvrir(String nomDuFichier, String s) throws IOException;</text><text fill="#000000" font-family="sans-serif" font-size="11" lengthAdjust="spacingAndGlyphs" textLength="228" x="588" y="465.4292">public void fermer() throws IOException;</text><text fill="#000000" font-family="sans-serif" font-size="11" lengthAdjust="spacingAndGlyphs" textLength="218" x="588" y="478.2339">public String lire() throws IOException;</text><text fill="#000000" font-family="sans-serif" font-size="11" lengthAdjust="spacingAndGlyphs" textLength="267" x="588" y="491.0386">public void ecrire(String s) throws IOException;</text><!--class EmetteurUDP--><rect fill="#FEFECE" filter="url(#f1m2ddd8a68940)" height="86.4141" id="EmetteurUDP" style="stroke: #A80036; stroke-width: 1.5;" width="310" x="237" y="386"/><ellipse cx="345.75" cy="402" fill="#ADD1B2" rx="11" ry="11" style="stroke: #A80036; stroke-width: 1.0;"/><path d="M348.0938,397.6719 L348.2656,397.75 C348.4844,397.4375 348.6875,397.3438 348.9844,397.3438 C349.2813,397.3438 349.5625,397.4844 349.7188,397.75 C349.8125,397.9063 349.8281,398.0313 349.8281,398.4688 L349.8281,399.8906 C349.8281,400.3125 349.7969,400.5 349.6875,400.6563 C349.5156,400.875 349.25,401.0156 348.9844,401.0156 C348.7656,401.0156 348.5313,400.9063 348.3906,400.7656 C348.25,400.6406 348.2188,400.5156 348.1563,400.1094 C348.0625,399.7031 347.8906,399.4844 347.4063,399.2031 C346.9375,398.9531 346.3281,398.7969 345.75,398.7969 C344.0156,398.7969 342.7656,400.1094 342.7656,401.8906 L342.7656,402.9844 C342.7656,404.6875 344.0625,405.7813 346.1094,405.7813 C346.875,405.7813 347.5625,405.6563 347.9844,405.3906 C348.1719,405.2969 348.1719,405.2969 348.625,404.8125 C348.8125,404.625 349.0156,404.5469 349.2344,404.5469 C349.7031,404.5469 350.0938,404.9375 350.0938,405.3906 C350.0938,405.7813 349.7656,406.2344 349.1875,406.6406 C348.4375,407.1875 347.2813,407.4844 346.0625,407.4844 C343.1719,407.4844 341.0625,405.5938 341.0625,403.0156 L341.0625,401.8906 C341.0625,399.1719 343.0625,397.0938 345.6875,397.0938 C346.5625,397.0938 347.1563,397.2344 348.0938,397.6719 Z "/><text fill="#000000" font-family="sans-serif" font-size="12" lengthAdjust="spacingAndGlyphs" textLength="84" x="366.25" y="406.1543">EmetteurUDP</text><line style="stroke: #A80036; stroke-width: 1.5;" x1="238" x2="546" y1="418" y2="418"/><text fill="#000000" font-family="sans-serif" font-size="11" lengthAdjust="spacingAndGlyphs" textLength="88" x="243" y="432.2104">private int port;</text><line style="stroke: #A80036; stroke-width: 1.5;" x1="238" x2="546" y1="438.8047" y2="438.8047"/><text fill="#000000" font-family="sans-serif" font-size="11" lengthAdjust="spacingAndGlyphs" textLength="179" x="243" y="453.0151">public EmetteurUDP(int unPort);</text><text fill="#000000" font-family="sans-serif" font-size="11" lengthAdjust="spacingAndGlyphs" textLength="298" x="243" y="465.8198">public void envoyer(String destinataire, String mes);</text><!--class RecepteurUDP--><rect fill="#FEFECE" filter="url(#f1m2ddd8a68940)" height="86.4141" id="RecepteurUDP" style="stroke: #A80036; stroke-width: 1.5;" width="196" x="6" y="386"/><ellipse cx="54.25" cy="402" fill="#ADD1B2" rx="11" ry="11" style="stroke: #A80036; stroke-width: 1.0;"/><path d="M56.5938,397.6719 L56.7656,397.75 C56.9844,397.4375 57.1875,397.3438 57.4844,397.3438 C57.7813,397.3438 58.0625,397.4844 58.2188,397.75 C58.3125,397.9063 58.3281,398.0313 58.3281,398.4688 L58.3281,399.8906 C58.3281,400.3125 58.2969,400.5 58.1875,400.6563 C58.0156,400.875 57.75,401.0156 57.4844,401.0156 C57.2656,401.0156 57.0313,400.9063 56.8906,400.7656 C56.75,400.6406 56.7188,400.5156 56.6563,400.1094 C56.5625,399.7031 56.3906,399.4844 55.9063,399.2031 C55.4375,398.9531 54.8281,398.7969 54.25,398.7969 C52.5156,398.7969 51.2656,400.1094 51.2656,401.8906 L51.2656,402.9844 C51.2656,404.6875 52.5625,405.7813 54.6094,405.7813 C55.375,405.7813 56.0625,405.6563 56.4844,405.3906 C56.6719,405.2969 56.6719,405.2969 57.125,404.8125 C57.3125,404.625 57.5156,404.5469 57.7344,404.5469 C58.2031,404.5469 58.5938,404.9375 58.5938,405.3906 C58.5938,405.7813 58.2656,406.2344 57.6875,406.6406 C56.9375,407.1875 55.7813,407.4844 54.5625,407.4844 C51.6719,407.4844 49.5625,405.5938 49.5625,403.0156 L49.5625,401.8906 C49.5625,399.1719 51.5625,397.0938 54.1875,397.0938 C55.0625,397.0938 55.6563,397.2344 56.5938,397.6719 Z "/><text fill="#000000" font-family="sans-serif" font-size="12" lengthAdjust="spacingAndGlyphs" textLength="91" x="74.75" y="406.1543">RecepteurUDP</text><line style="stroke: #A80036; stroke-width: 1.5;" x1="7" x2="201" y1="418" y2="418"/><text fill="#000000" font-family="sans-serif" font-size="11" lengthAdjust="spacingAndGlyphs" textLength="88" x="12" y="432.2104">private int port;</text><line style="stroke: #A80036; stroke-width: 1.5;" x1="7" x2="201" y1="438.8047" y2="438.8047"/><text fill="#000000" font-family="sans-serif" font-size="11" lengthAdjust="spacingAndGlyphs" textLength="184" x="12" y="453.0151">public RecepteurUDP(int unPort);</text><text fill="#000000" font-family="sans-serif" font-size="11" lengthAdjust="spacingAndGlyphs" textLength="133" x="12" y="465.8198">public String recevoir();</text><!--link Operation to OperationMathematique--><path d="M1131,127.63 C1131,146.479 1131,166.496 1131,183.936 " fill="none" id="Operation-OperationMathematique" style="stroke: #A80036; stroke-width: 1.0;"/><polygon fill="none" points="1124,127.432,1131,107.432,1138,127.432,1124,127.432" style="stroke: #A80036; stroke-width: 1.0;"/><text fill="#000000" font-family="sans-serif" font-size="13" lengthAdjust="spacingAndGlyphs" textLength="71" x="1132" y="150.0669">Inheritance</text><!--link OperationMathematique to Calculette--><path d="M1131,283.328 C1131,308.422 1131,339.269 1131,366.025 " fill="none" id="OperationMathematique-Calculette" style="stroke: #A80036; stroke-width: 1.0;"/><polygon fill="#A80036" points="1131,379.187,1135,373.187,1131,367.187,1127,373.187,1131,379.187" style="stroke: #A80036; stroke-width: 1.0;"/><text fill="#000000" font-family="sans-serif" font-size="13" lengthAdjust="spacingAndGlyphs" textLength="68" x="1132" y="326.0669">operations</text><text fill="#000000" font-family="sans-serif" font-size="13" lengthAdjust="spacingAndGlyphs" textLength="7" x="1123.5078" y="303.4506">*</text><text fill="#000000" font-family="sans-serif" font-size="13" lengthAdjust="spacingAndGlyphs" textLength="8" x="1122.4625" y="368.5467">1</text><!--link FichierTexte to CalculetteSauvegarde--><path d="M709.18,498.17 C684.713,520.765 658.101,545.34 635.979,565.7697 " fill="none" id="FichierTexte-CalculetteSauvegarde" style="stroke: #A80036; stroke-width: 1.0;"/><polygon fill="#A80036" points="626.154,574.8426,633.2758,573.7111,634.9704,566.7019,627.8486,567.8335,626.154,574.8426" style="stroke: #A80036; stroke-width: 1.0;"/><text fill="#000000" font-family="sans-serif" font-size="13" lengthAdjust="spacingAndGlyphs" textLength="9" x="674" y="541.0669">ft</text><text fill="#000000" font-family="sans-serif" font-size="13" lengthAdjust="spacingAndGlyphs" textLength="8" x="693.5196" y="517.8087">1</text><text fill="#000000" font-family="sans-serif" font-size="13" lengthAdjust="spacingAndGlyphs" textLength="8" x="624.4158" y="564.0015">1</text><!--link Calculette to CalculetteSauvegarde--><path d="M1026.99,487.277 C1018.63,491.123 1010.24,494.753 1002,498 C908.043,535.036 797.529,564.4794 714.178,584.0149 " fill="none" id="Calculette-CalculetteSauvegarde" style="stroke: #A80036; stroke-width: 1.0;"/><polygon fill="none" points="1024.08,480.909,1045.14,478.574,1030.13,493.533,1024.08,480.909" style="stroke: #A80036; stroke-width: 1.0;"/><text fill="#000000" font-family="sans-serif" font-size="13" lengthAdjust="spacingAndGlyphs" textLength="71" x="914" y="541.0669">Inheritance</text><!--link EmetteurUDP to CalculetteSauvegarde--><path d="M437.719,472.436 C467.989,500.533 507.64,537.337 538.468,565.9525 " fill="none" id="EmetteurUDP-CalculetteSauvegarde" style="stroke: #A80036; stroke-width: 1.0;"/><polygon fill="#A80036" points="548.144,574.9341,546.4677,567.9205,539.349,566.7703,541.0252,573.7839,548.144,574.9341" style="stroke: #A80036; stroke-width: 1.0;"/><text fill="#000000" font-family="sans-serif" font-size="13" lengthAdjust="spacingAndGlyphs" textLength="60" x="513" y="541.0669">emetteur</text><text fill="#000000" font-family="sans-serif" font-size="13" lengthAdjust="spacingAndGlyphs" textLength="8" x="436.368" y="492.5984">1</text><text fill="#000000" font-family="sans-serif" font-size="13" lengthAdjust="spacingAndGlyphs" textLength="8" x="532.2424" y="563.8324">1</text><!--link RecepteurUDP to CalculetteSauvegarde--><path d="M169.776,472.097 C185.832,481.373 203.226,490.621 220,498 C292.814,530.034 377.483,556.755 447.136,576.1567 " fill="none" id="RecepteurUDP-CalculetteSauvegarde" style="stroke: #A80036; stroke-width: 1.0;"/><polygon fill="#A80036" points="459.96,579.6939,455.2392,574.2429,448.3918,576.504,453.1126,581.955,459.96,579.6939" style="stroke: #A80036; stroke-width: 1.0;"/><text fill="#000000" font-family="sans-serif" font-size="13" lengthAdjust="spacingAndGlyphs" textLength="62" x="339" y="541.0669">recepteur</text><text fill="#000000" font-family="sans-serif" font-size="13" lengthAdjust="spacingAndGlyphs" textLength="8" x="172.0077" y="492.5207">1</text><text fill="#000000" font-family="sans-serif" font-size="13" lengthAdjust="spacingAndGlyphs" textLength="8" x="443.9748" y="574.3511">1</text><!--
@startuml
class Operation {
    private String operation;

    public Operation(); 
    public String getOperation();
    public void setOperation(String operation);
}

class OperationMathematique {
    private double resultat;

    public OperationMathematique();
    public void resoudre(String uneOperation) throws OperationException;
    public String toString();
} 

class Calculette {
    private int compteur;

    public Calculette();
    public void calculer(String operation);
    public String toString();
} 

class CalculetteSauvegarde {
    public CalculetteSauvegarde(int uneTaille);
    public void sauvegarder();
}

class FichierTexte {
    private BufferedWriter fW;
    private BufferedReader fR;
    private char mode;

    public void ouvrir(String nomDuFichier, String s) throws IOException;
    public void fermer() throws IOException;
    public String lire() throws IOException;
    public void ecrire(String s) throws IOException;
}

class EmetteurUDP {
    private int port;

    public EmetteurUDP(int unPort);
    public void envoyer(String destinataire, String mes);
}

class RecepteurUDP {
    private int port;

    public RecepteurUDP(int unPort);
    public String recevoir();
}

Operation <|-down- OperationMathematique: Inheritance
Calculette "1" *-up- "*" OperationMathematique: operations
CalculetteSauvegarde "1" *-up- "1" FichierTexte: ft
Calculette <|-down- CalculetteSauvegarde: Inheritance
CalculetteSauvegarde "1" *-up- "1" EmetteurUDP: emetteur
CalculetteSauvegarde "1" *-up- "1" RecepteurUDP: recepteur
@enduml

PlantUML version 1.2018.02(Fri Mar 09 17:20:44 UTC 2018)
(GPL source distribution)
Java Runtime: Java(TM) SE Runtime Environment
JVM: Java HotSpot(TM) 64-Bit Server VM
Java Version: 1.7.0_25-b15
Operating System: Linux
Default Encoding: UTF-8
Language: en
Country: US
--></g></svg>