<?xml version="1.0" encoding="UTF-8" standalone="no"?><svg xmlns="http://www.w3.org/2000/svg" xmlns:xlink="http://www.w3.org/1999/xlink" contentScriptType="application/ecmascript" contentStyleType="text/css" height="372px" preserveAspectRatio="none" style="width:990px;height:372px;" version="1.1" viewBox="0 0 990 372" width="990px" zoomAndPan="magnify"><defs><filter height="300%" id="f1ummq14alep7r" width="300%" x="-1" y="-1"><feGaussianBlur result="blurOut" stdDeviation="2.0"/><feColorMatrix in="blurOut" result="blurOut2" type="matrix" values="0 0 0 0 0 0 0 0 0 0 0 0 0 0 0 0 0 0 .4 0"/><feOffset dx="4.0" dy="4.0" in="blurOut2" result="blurOut3"/><feBlend in="SourceGraphic" in2="blurOut3" mode="normal"/></filter></defs><g><!--class WindowListener--><rect fill="#FEFECE" filter="url(#f1ummq14alep7r)" height="48" id="WindowListener" style="stroke: #A80036; stroke-width: 1.5;" width="131" x="582.75" y="27"/><ellipse cx="597.75" cy="43" fill="#B4A7E5" rx="11" ry="11" style="stroke: #A80036; stroke-width: 1.0;"/><path d="M598.7031,39.7813 L598.7031,46.2969 L600.4219,46.2969 C600.875,46.2969 601.0156,46.3281 601.1875,46.4531 C601.4219,46.625 601.5313,46.875 601.5313,47.1563 C601.5313,47.7188 601.1719,48 600.4219,48 L595.2813,48 C594.875,48 594.6719,47.9531 594.5156,47.8281 C594.2969,47.6719 594.1563,47.4063 594.1563,47.1563 C594.1563,46.8594 594.3125,46.5781 594.5625,46.4219 C594.7188,46.3125 594.8438,46.2969 595.2813,46.2969 L597,46.2969 L597,39.7813 L595.2813,39.7813 C594.8594,39.7813 594.6719,39.75 594.5156,39.6406 C594.2969,39.4688 594.1563,39.2188 594.1563,38.9375 C594.1563,38.6563 594.3125,38.3594 594.5625,38.2031 C594.7188,38.1094 594.8438,38.0938 595.2813,38.0938 L600.4219,38.0938 C600.875,38.0938 601.0156,38.125 601.1875,38.2344 C601.4219,38.4063 601.5313,38.6719 601.5313,38.9375 C601.5313,39.2344 601.3906,39.5156 601.125,39.6719 C601,39.75 600.8125,39.7813 600.4219,39.7813 Z "/><text fill="#000000" font-family="sans-serif" font-size="12" font-style="italic" lengthAdjust="spacingAndGlyphs" textLength="99" x="611.75" y="47.1543">WindowListener</text><line style="stroke: #A80036; stroke-width: 1.5;" x1="583.75" x2="712.75" y1="59" y2="59"/><line style="stroke: #A80036; stroke-width: 1.5;" x1="583.75" x2="712.75" y1="67" y2="67"/><!--class ActionListener--><rect fill="#FEFECE" filter="url(#f1ummq14alep7r)" height="48" id="ActionListener" style="stroke: #A80036; stroke-width: 1.5;" width="121" x="748.75" y="27"/><ellipse cx="763.75" cy="43" fill="#B4A7E5" rx="11" ry="11" style="stroke: #A80036; stroke-width: 1.0;"/><path d="M764.7031,39.7813 L764.7031,46.2969 L766.4219,46.2969 C766.875,46.2969 767.0156,46.3281 767.1875,46.4531 C767.4219,46.625 767.5313,46.875 767.5313,47.1563 C767.5313,47.7188 767.1719,48 766.4219,48 L761.2813,48 C760.875,48 760.6719,47.9531 760.5156,47.8281 C760.2969,47.6719 760.1563,47.4063 760.1563,47.1563 C760.1563,46.8594 760.3125,46.5781 760.5625,46.4219 C760.7188,46.3125 760.8438,46.2969 761.2813,46.2969 L763,46.2969 L763,39.7813 L761.2813,39.7813 C760.8594,39.7813 760.6719,39.75 760.5156,39.6406 C760.2969,39.4688 760.1563,39.2188 760.1563,38.9375 C760.1563,38.6563 760.3125,38.3594 760.5625,38.2031 C760.7188,38.1094 760.8438,38.0938 761.2813,38.0938 L766.4219,38.0938 C766.875,38.0938 767.0156,38.125 767.1875,38.2344 C767.4219,38.4063 767.5313,38.6719 767.5313,38.9375 C767.5313,39.2344 767.3906,39.5156 767.125,39.6719 C767,39.75 766.8125,39.7813 766.4219,39.7813 Z "/><text fill="#000000" font-family="sans-serif" font-size="12" font-style="italic" lengthAdjust="spacingAndGlyphs" textLength="89" x="777.75" y="47.1543">ActionListener</text><line style="stroke: #A80036; stroke-width: 1.5;" x1="749.75" x2="868.75" y1="59" y2="59"/><line style="stroke: #A80036; stroke-width: 1.5;" x1="749.75" x2="868.75" y1="67" y2="67"/><!--class JFrame--><rect fill="#FEFECE" filter="url(#f1ummq14alep7r)" height="48" id="JFrame" style="stroke: #A80036; stroke-width: 1.5;" width="74" x="905" y="27"/><ellipse cx="920" cy="43" fill="#ADD1B2" rx="11" ry="11" style="stroke: #A80036; stroke-width: 1.0;"/><path d="M922.3438,38.6719 L922.5156,38.75 C922.7344,38.4375 922.9375,38.3438 923.2344,38.3438 C923.5313,38.3438 923.8125,38.4844 923.9688,38.75 C924.0625,38.9063 924.0781,39.0313 924.0781,39.4688 L924.0781,40.8906 C924.0781,41.3125 924.0469,41.5 923.9375,41.6563 C923.7656,41.875 923.5,42.0156 923.2344,42.0156 C923.0156,42.0156 922.7813,41.9063 922.6406,41.7656 C922.5,41.6406 922.4688,41.5156 922.4063,41.1094 C922.3125,40.7031 922.1406,40.4844 921.6563,40.2031 C921.1875,39.9531 920.5781,39.7969 920,39.7969 C918.2656,39.7969 917.0156,41.1094 917.0156,42.8906 L917.0156,43.9844 C917.0156,45.6875 918.3125,46.7813 920.3594,46.7813 C921.125,46.7813 921.8125,46.6563 922.2344,46.3906 C922.4219,46.2969 922.4219,46.2969 922.875,45.8125 C923.0625,45.625 923.2656,45.5469 923.4844,45.5469 C923.9531,45.5469 924.3438,45.9375 924.3438,46.3906 C924.3438,46.7813 924.0156,47.2344 923.4375,47.6406 C922.6875,48.1875 921.5313,48.4844 920.3125,48.4844 C917.4219,48.4844 915.3125,46.5938 915.3125,44.0156 L915.3125,42.8906 C915.3125,40.1719 917.3125,38.0938 919.9375,38.0938 C920.8125,38.0938 921.4063,38.2344 922.3438,38.6719 Z "/><text fill="#000000" font-family="sans-serif" font-size="12" lengthAdjust="spacingAndGlyphs" textLength="42" x="934" y="47.1543">JFrame</text><line style="stroke: #A80036; stroke-width: 1.5;" x1="906" x2="978" y1="59" y2="59"/><line style="stroke: #A80036; stroke-width: 1.5;" x1="906" x2="978" y1="67" y2="67"/><!--class CalculetteSWING--><rect fill="#FEFECE" filter="url(#f1ummq14alep7r)" height="188.8516" id="CalculetteSWING" style="stroke: #A80036; stroke-width: 1.5;" width="290" x="503" y="172.5"/><ellipse cx="592.25" cy="188.5" fill="#ADD1B2" rx="11" ry="11" style="stroke: #A80036; stroke-width: 1.0;"/><path d="M594.5938,184.1719 L594.7656,184.25 C594.9844,183.9375 595.1875,183.8438 595.4844,183.8438 C595.7813,183.8438 596.0625,183.9844 596.2188,184.25 C596.3125,184.4063 596.3281,184.5313 596.3281,184.9688 L596.3281,186.3906 C596.3281,186.8125 596.2969,187 596.1875,187.1563 C596.0156,187.375 595.75,187.5156 595.4844,187.5156 C595.2656,187.5156 595.0313,187.4063 594.8906,187.2656 C594.75,187.1406 594.7188,187.0156 594.6563,186.6094 C594.5625,186.2031 594.3906,185.9844 593.9063,185.7031 C593.4375,185.4531 592.8281,185.2969 592.25,185.2969 C590.5156,185.2969 589.2656,186.6094 589.2656,188.3906 L589.2656,189.4844 C589.2656,191.1875 590.5625,192.2813 592.6094,192.2813 C593.375,192.2813 594.0625,192.1563 594.4844,191.8906 C594.6719,191.7969 594.6719,191.7969 595.125,191.3125 C595.3125,191.125 595.5156,191.0469 595.7344,191.0469 C596.2031,191.0469 596.5938,191.4375 596.5938,191.8906 C596.5938,192.2813 596.2656,192.7344 595.6875,193.1406 C594.9375,193.6875 593.7813,193.9844 592.5625,193.9844 C589.6719,193.9844 587.5625,192.0938 587.5625,189.5156 L587.5625,188.3906 C587.5625,185.6719 589.5625,183.5938 592.1875,183.5938 C593.0625,183.5938 593.6563,183.7344 594.5938,184.1719 Z "/><text fill="#000000" font-family="sans-serif" font-size="12" lengthAdjust="spacingAndGlyphs" textLength="103" x="612.75" y="192.6543">CalculetteSWING</text><line style="stroke: #A80036; stroke-width: 1.5;" x1="504" x2="792" y1="204.5" y2="204.5"/><text fill="#000000" font-family="sans-serif" font-size="11" lengthAdjust="spacingAndGlyphs" textLength="168" x="509" y="218.7104">private JTextField tfOperation;</text><text fill="#000000" font-family="sans-serif" font-size="11" lengthAdjust="spacingAndGlyphs" textLength="161" x="509" y="231.5151">private JTextArea taResultat;</text><line style="stroke: #A80036; stroke-width: 1.5;" x1="504" x2="792" y1="238.1094" y2="238.1094"/><text fill="#000000" font-family="sans-serif" font-size="11" lengthAdjust="spacingAndGlyphs" textLength="142" x="509" y="252.3198">public CalculetteSWING();</text><text fill="#000000" font-family="sans-serif" font-size="11" lengthAdjust="spacingAndGlyphs" textLength="263" x="509" y="265.1245">public void windowActivated(WindowEvent evt);</text><text fill="#000000" font-family="sans-serif" font-size="11" lengthAdjust="spacingAndGlyphs" textLength="278" x="509" y="277.9292">public void windowDeactivated(WindowEvent evt);</text><text fill="#000000" font-family="sans-serif" font-size="11" lengthAdjust="spacingAndGlyphs" textLength="251" x="509" y="290.7339">public void windowClosed(WindowEvent evt);</text><text fill="#000000" font-family="sans-serif" font-size="11" lengthAdjust="spacingAndGlyphs" textLength="254" x="509" y="303.5386">public void windowClosing(WindowEvent evt);</text><text fill="#000000" font-family="sans-serif" font-size="11" lengthAdjust="spacingAndGlyphs" textLength="259" x="509" y="316.3433">public void windowIconified(WindowEvent evt);</text><text fill="#000000" font-family="sans-serif" font-size="11" lengthAdjust="spacingAndGlyphs" textLength="274" x="509" y="329.1479">public void windowDeiconified(WindowEvent evt);</text><text fill="#000000" font-family="sans-serif" font-size="11" lengthAdjust="spacingAndGlyphs" textLength="256" x="509" y="341.9526">public void windowOpened(WindowEvent evt);</text><text fill="#000000" font-family="sans-serif" font-size="11" lengthAdjust="spacingAndGlyphs" textLength="256" x="509" y="354.7573">public void actionPerformed(ActionEvent evt);</text><!--class EmetteurUDP--><rect fill="#FEFECE" filter="url(#f1ummq14alep7r)" height="86.4141" id="EmetteurUDP" style="stroke: #A80036; stroke-width: 1.5;" width="310" x="237" y="8"/><ellipse cx="345.75" cy="24" fill="#ADD1B2" rx="11" ry="11" style="stroke: #A80036; stroke-width: 1.0;"/><path d="M348.0938,19.6719 L348.2656,19.75 C348.4844,19.4375 348.6875,19.3438 348.9844,19.3438 C349.2813,19.3438 349.5625,19.4844 349.7188,19.75 C349.8125,19.9063 349.8281,20.0313 349.8281,20.4688 L349.8281,21.8906 C349.8281,22.3125 349.7969,22.5 349.6875,22.6563 C349.5156,22.875 349.25,23.0156 348.9844,23.0156 C348.7656,23.0156 348.5313,22.9063 348.3906,22.7656 C348.25,22.6406 348.2188,22.5156 348.1563,22.1094 C348.0625,21.7031 347.8906,21.4844 347.4063,21.2031 C346.9375,20.9531 346.3281,20.7969 345.75,20.7969 C344.0156,20.7969 342.7656,22.1094 342.7656,23.8906 L342.7656,24.9844 C342.7656,26.6875 344.0625,27.7813 346.1094,27.7813 C346.875,27.7813 347.5625,27.6563 347.9844,27.3906 C348.1719,27.2969 348.1719,27.2969 348.625,26.8125 C348.8125,26.625 349.0156,26.5469 349.2344,26.5469 C349.7031,26.5469 350.0938,26.9375 350.0938,27.3906 C350.0938,27.7813 349.7656,28.2344 349.1875,28.6406 C348.4375,29.1875 347.2813,29.4844 346.0625,29.4844 C343.1719,29.4844 341.0625,27.5938 341.0625,25.0156 L341.0625,23.8906 C341.0625,21.1719 343.0625,19.0938 345.6875,19.0938 C346.5625,19.0938 347.1563,19.2344 348.0938,19.6719 Z "/><text fill="#000000" font-family="sans-serif" font-size="12" lengthAdjust="spacingAndGlyphs" textLength="84" x="366.25" y="28.1543">EmetteurUDP</text><line style="stroke: #A80036; stroke-width: 1.5;" x1="238" x2="546" y1="40" y2="40"/><text fill="#000000" font-family="sans-serif" font-size="11" lengthAdjust="spacingAndGlyphs" textLength="88" x="243" y="54.2104">private int port;</text><line style="stroke: #A80036; stroke-width: 1.5;" x1="238" x2="546" y1="60.8047" y2="60.8047"/><text fill="#000000" font-family="sans-serif" font-size="11" lengthAdjust="spacingAndGlyphs" textLength="179" x="243" y="75.0151">public EmetteurUDP(int unPort);</text><text fill="#000000" font-family="sans-serif" font-size="11" lengthAdjust="spacingAndGlyphs" textLength="298" x="243" y="87.8198">public void envoyer(String destinataire, String mes);</text><!--class RecepteurUDP--><rect fill="#FEFECE" filter="url(#f1ummq14alep7r)" height="86.4141" id="RecepteurUDP" style="stroke: #A80036; stroke-width: 1.5;" width="196" x="6" y="8"/><ellipse cx="54.25" cy="24" fill="#ADD1B2" rx="11" ry="11" style="stroke: #A80036; stroke-width: 1.0;"/><path d="M56.5938,19.6719 L56.7656,19.75 C56.9844,19.4375 57.1875,19.3438 57.4844,19.3438 C57.7813,19.3438 58.0625,19.4844 58.2188,19.75 C58.3125,19.9063 58.3281,20.0313 58.3281,20.4688 L58.3281,21.8906 C58.3281,22.3125 58.2969,22.5 58.1875,22.6563 C58.0156,22.875 57.75,23.0156 57.4844,23.0156 C57.2656,23.0156 57.0313,22.9063 56.8906,22.7656 C56.75,22.6406 56.7188,22.5156 56.6563,22.1094 C56.5625,21.7031 56.3906,21.4844 55.9063,21.2031 C55.4375,20.9531 54.8281,20.7969 54.25,20.7969 C52.5156,20.7969 51.2656,22.1094 51.2656,23.8906 L51.2656,24.9844 C51.2656,26.6875 52.5625,27.7813 54.6094,27.7813 C55.375,27.7813 56.0625,27.6563 56.4844,27.3906 C56.6719,27.2969 56.6719,27.2969 57.125,26.8125 C57.3125,26.625 57.5156,26.5469 57.7344,26.5469 C58.2031,26.5469 58.5938,26.9375 58.5938,27.3906 C58.5938,27.7813 58.2656,28.2344 57.6875,28.6406 C56.9375,29.1875 55.7813,29.4844 54.5625,29.4844 C51.6719,29.4844 49.5625,27.5938 49.5625,25.0156 L49.5625,23.8906 C49.5625,21.1719 51.5625,19.0938 54.1875,19.0938 C55.0625,19.0938 55.6563,19.2344 56.5938,19.6719 Z "/><text fill="#000000" font-family="sans-serif" font-size="12" lengthAdjust="spacingAndGlyphs" textLength="91" x="74.75" y="28.1543">RecepteurUDP</text><line style="stroke: #A80036; stroke-width: 1.5;" x1="7" x2="201" y1="40" y2="40"/><text fill="#000000" font-family="sans-serif" font-size="11" lengthAdjust="spacingAndGlyphs" textLength="88" x="12" y="54.2104">private int port;</text><line style="stroke: #A80036; stroke-width: 1.5;" x1="7" x2="201" y1="60.8047" y2="60.8047"/><text fill="#000000" font-family="sans-serif" font-size="11" lengthAdjust="spacingAndGlyphs" textLength="184" x="12" y="75.0151">public RecepteurUDP(int unPort);</text><text fill="#000000" font-family="sans-serif" font-size="11" lengthAdjust="spacingAndGlyphs" textLength="133" x="12" y="87.8198">public String recevoir();</text><!--link EmetteurUDP to CalculetteSWING--><path d="M442.272,94.024 C466.409,114.201 496.481,139.339 526.115,164.111 " fill="none" id="EmetteurUDP-CalculetteSWING" style="stroke: #A80036; stroke-width: 1.0;"/><polygon fill="#A80036" points="536.138,172.491,534.0997,165.574,526.9308,164.795,528.9691,171.7121,536.138,172.491" style="stroke: #A80036; stroke-width: 1.0;"/><text fill="#000000" font-family="sans-serif" font-size="13" lengthAdjust="spacingAndGlyphs" textLength="60" x="499" y="137.0669">emetteur</text><text fill="#000000" font-family="sans-serif" font-size="13" lengthAdjust="spacingAndGlyphs" textLength="8" x="440.7702" y="114.4356">1</text><text fill="#000000" font-family="sans-serif" font-size="13" lengthAdjust="spacingAndGlyphs" textLength="8" x="518.9211" y="161.325">1</text><!--link RecepteurUDP to CalculetteSWING--><path d="M202.199,90.63 C282.534,122.232 397.672,167.525 490.812,204.165 " fill="none" id="RecepteurUDP-CalculetteSWING" style="stroke: #A80036; stroke-width: 1.0;"/><polygon fill="#A80036" points="502.928,208.931,498.8085,203.0124,491.7607,204.5387,495.8803,210.4573,502.928,208.931" style="stroke: #A80036; stroke-width: 1.0;"/><text fill="#000000" font-family="sans-serif" font-size="13" lengthAdjust="spacingAndGlyphs" textLength="62" x="329" y="137.0669">recepteur</text><text fill="#000000" font-family="sans-serif" font-size="13" lengthAdjust="spacingAndGlyphs" textLength="8" x="210.0236" y="89.0695">1</text><text fill="#000000" font-family="sans-serif" font-size="13" lengthAdjust="spacingAndGlyphs" textLength="8" x="487.1279" y="201.9879">1</text><!--link JFrame to CalculetteSWING--><path d="M901.036,88.337 C881.472,105.199 857.471,125.184 835,142 C821.589,152.036 807.407,162.199 793.092,172.163 " fill="none" id="JFrame-CalculetteSWING" style="stroke: #A80036; stroke-width: 1.0;"/><polygon fill="none" points="896.616,82.904,916.295,75.046,905.811,93.461,896.616,82.904" style="stroke: #A80036; stroke-width: 1.0;"/><text fill="#000000" font-family="sans-serif" font-size="13" lengthAdjust="spacingAndGlyphs" textLength="71" x="858" y="137.0669">Inheritance</text><!--link WindowListener to CalculetteSWING--><path d="M648,95.37 C648,117.606 648,145.6 648,172.447 " fill="none" id="WindowListener-CalculetteSWING" style="stroke: #A80036; stroke-width: 1.0;"/><polygon fill="none" points="641,95.309,648,75.309,655,95.309,641,95.309" style="stroke: #A80036; stroke-width: 1.0;"/><text fill="#000000" font-family="sans-serif" font-size="13" lengthAdjust="spacingAndGlyphs" textLength="71" x="649" y="137.0669">Inheritance</text><!--link ActionListener to CalculetteSWING--><path d="M779.203,91.606 C762.058,114.395 739.738,144.062 718.384,172.447 " fill="none" id="ActionListener-CalculetteSWING" style="stroke: #A80036; stroke-width: 1.0;"/><polygon fill="none" points="773.846,87.083,791.464,75.309,785.033,95.5,773.846,87.083" style="stroke: #A80036; stroke-width: 1.0;"/><text fill="#000000" font-family="sans-serif" font-size="13" lengthAdjust="spacingAndGlyphs" textLength="71" x="754" y="137.0669">Inheritance</text><!--
@startuml
interface WindowListener {
}

interface ActionListener{
}

class JFrame {
}

class CalculetteSWING {
    private JTextField tfOperation;
    private JTextArea taResultat;

    public CalculetteSWING();
    public void windowActivated(WindowEvent evt);
    public void windowDeactivated(WindowEvent evt);
    public void windowClosed(WindowEvent evt);
    public void windowClosing(WindowEvent evt);
    public void windowIconified(WindowEvent evt);
    public void windowDeiconified(WindowEvent evt);
    public void windowOpened(WindowEvent evt);
    public void actionPerformed(ActionEvent evt);
} 

class EmetteurUDP {
    private int port;

    public EmetteurUDP(int unPort);
    public void envoyer(String destinataire, String mes);
}

class RecepteurUDP {
    private int port;

    public RecepteurUDP(int unPort);
    public String recevoir();
}

CalculetteSWING "1" *-up- "1" EmetteurUDP: emetteur
CalculetteSWING "1" *-up- "1" RecepteurUDP: recepteur
JFrame <|-down- CalculetteSWING: Inheritance
WindowListener <|-down- CalculetteSWING: Inheritance
ActionListener <|-down- CalculetteSWING: Inheritance
@enduml

PlantUML version 1.2018.02(Fri Mar 09 17:20:44 UTC 2018)
(GPL source distribution)
Java Runtime: Java(TM) SE Runtime Environment
JVM: Java HotSpot(TM) 64-Bit Server VM
Java Version: 1.7.0_25-b15
Operating System: Linux
Default Encoding: UTF-8
Language: en
Country: US
--></g></svg>