<?xml version="1.0" encoding="UTF-8" standalone="no"?><svg xmlns="http://www.w3.org/2000/svg" xmlns:xlink="http://www.w3.org/1999/xlink" contentScriptType="application/ecmascript" contentStyleType="text/css" height="1114px" preserveAspectRatio="none" style="width:772px;height:1114px;" version="1.1" viewBox="0 0 772 1114" width="772px" zoomAndPan="magnify"><defs><filter height="300%" id="f1idj3jg0nxgpy" width="300%" x="-1" y="-1"><feGaussianBlur result="blurOut" stdDeviation="2.0"/><feColorMatrix in="blurOut" result="blurOut2" type="matrix" values="0 0 0 0 0 0 0 0 0 0 0 0 0 0 0 0 0 0 .4 0"/><feOffset dx="4.0" dy="4.0" in="blurOut2" result="blurOut3"/><feBlend in="SourceGraphic" in2="blurOut3" mode="normal"/></filter></defs><g><!--class Operation--><rect fill="#FEFECE" filter="url(#f1idj3jg0nxgpy)" height="99.2188" id="Operation" style="stroke: #A80036; stroke-width: 1.5;" width="254" x="428" y="8"/><ellipse cx="519.75" cy="24" fill="#ADD1B2" rx="11" ry="11" style="stroke: #A80036; stroke-width: 1.0;"/><path d="M522.0938,19.6719 L522.2656,19.75 C522.4844,19.4375 522.6875,19.3438 522.9844,19.3438 C523.2813,19.3438 523.5625,19.4844 523.7188,19.75 C523.8125,19.9063 523.8281,20.0313 523.8281,20.4688 L523.8281,21.8906 C523.8281,22.3125 523.7969,22.5 523.6875,22.6563 C523.5156,22.875 523.25,23.0156 522.9844,23.0156 C522.7656,23.0156 522.5313,22.9063 522.3906,22.7656 C522.25,22.6406 522.2188,22.5156 522.1563,22.1094 C522.0625,21.7031 521.8906,21.4844 521.4063,21.2031 C520.9375,20.9531 520.3281,20.7969 519.75,20.7969 C518.0156,20.7969 516.7656,22.1094 516.7656,23.8906 L516.7656,24.9844 C516.7656,26.6875 518.0625,27.7813 520.1094,27.7813 C520.875,27.7813 521.5625,27.6563 521.9844,27.3906 C522.1719,27.2969 522.1719,27.2969 522.625,26.8125 C522.8125,26.625 523.0156,26.5469 523.2344,26.5469 C523.7031,26.5469 524.0938,26.9375 524.0938,27.3906 C524.0938,27.7813 523.7656,28.2344 523.1875,28.6406 C522.4375,29.1875 521.2813,29.4844 520.0625,29.4844 C517.1719,29.4844 515.0625,27.5938 515.0625,25.0156 L515.0625,23.8906 C515.0625,21.1719 517.0625,19.0938 519.6875,19.0938 C520.5625,19.0938 521.1563,19.2344 522.0938,19.6719 Z "/><text fill="#000000" font-family="sans-serif" font-size="12" lengthAdjust="spacingAndGlyphs" textLength="62" x="540.25" y="28.1543">Operation</text><line style="stroke: #A80036; stroke-width: 1.5;" x1="429" x2="681" y1="40" y2="40"/><text fill="#000000" font-family="sans-serif" font-size="11" lengthAdjust="spacingAndGlyphs" textLength="139" x="434" y="54.2104">private String operation;</text><line style="stroke: #A80036; stroke-width: 1.5;" x1="429" x2="681" y1="60.8047" y2="60.8047"/><text fill="#000000" font-family="sans-serif" font-size="11" lengthAdjust="spacingAndGlyphs" textLength="105" x="434" y="75.0151">public Operation();</text><text fill="#000000" font-family="sans-serif" font-size="11" lengthAdjust="spacingAndGlyphs" textLength="161" x="434" y="87.8198">public String getOperation();</text><text fill="#000000" font-family="sans-serif" font-size="11" lengthAdjust="spacingAndGlyphs" textLength="242" x="434" y="100.6245">public void setOperation(String operation);</text><!--class OperationMathematique--><rect fill="#FEFECE" filter="url(#f1idj3jg0nxgpy)" height="99.2188" id="OperationMathematique" style="stroke: #A80036; stroke-width: 1.5;" width="412" x="349" y="184"/><ellipse cx="474.75" cy="200" fill="#ADD1B2" rx="11" ry="11" style="stroke: #A80036; stroke-width: 1.0;"/><path d="M477.0938,195.6719 L477.2656,195.75 C477.4844,195.4375 477.6875,195.3438 477.9844,195.3438 C478.2813,195.3438 478.5625,195.4844 478.7188,195.75 C478.8125,195.9063 478.8281,196.0313 478.8281,196.4688 L478.8281,197.8906 C478.8281,198.3125 478.7969,198.5 478.6875,198.6563 C478.5156,198.875 478.25,199.0156 477.9844,199.0156 C477.7656,199.0156 477.5313,198.9063 477.3906,198.7656 C477.25,198.6406 477.2188,198.5156 477.1563,198.1094 C477.0625,197.7031 476.8906,197.4844 476.4063,197.2031 C475.9375,196.9531 475.3281,196.7969 474.75,196.7969 C473.0156,196.7969 471.7656,198.1094 471.7656,199.8906 L471.7656,200.9844 C471.7656,202.6875 473.0625,203.7813 475.1094,203.7813 C475.875,203.7813 476.5625,203.6563 476.9844,203.3906 C477.1719,203.2969 477.1719,203.2969 477.625,202.8125 C477.8125,202.625 478.0156,202.5469 478.2344,202.5469 C478.7031,202.5469 479.0938,202.9375 479.0938,203.3906 C479.0938,203.7813 478.7656,204.2344 478.1875,204.6406 C477.4375,205.1875 476.2813,205.4844 475.0625,205.4844 C472.1719,205.4844 470.0625,203.5938 470.0625,201.0156 L470.0625,199.8906 C470.0625,197.1719 472.0625,195.0938 474.6875,195.0938 C475.5625,195.0938 476.1563,195.2344 477.0938,195.6719 Z "/><text fill="#000000" font-family="sans-serif" font-size="12" lengthAdjust="spacingAndGlyphs" textLength="152" x="495.25" y="204.1543">OperationMathematique</text><line style="stroke: #A80036; stroke-width: 1.5;" x1="350" x2="760" y1="216" y2="216"/><text fill="#000000" font-family="sans-serif" font-size="11" lengthAdjust="spacingAndGlyphs" textLength="133" x="355" y="230.2104">private double resultat;</text><line style="stroke: #A80036; stroke-width: 1.5;" x1="350" x2="760" y1="236.8047" y2="236.8047"/><text fill="#000000" font-family="sans-serif" font-size="11" lengthAdjust="spacingAndGlyphs" textLength="185" x="355" y="251.0151">public OperationMathematique();</text><text fill="#000000" font-family="sans-serif" font-size="11" lengthAdjust="spacingAndGlyphs" textLength="400" x="355" y="263.8198">public void resoudre(String uneOperation) throws OperationException;</text><text fill="#000000" font-family="sans-serif" font-size="11" lengthAdjust="spacingAndGlyphs" textLength="132" x="355" y="276.6245">public String toString();</text><!--class Calculette--><rect fill="#FEFECE" filter="url(#f1idj3jg0nxgpy)" height="99.2188" id="Calculette" style="stroke: #A80036; stroke-width: 1.5;" width="224" x="443" y="379.5"/><ellipse cx="519.25" cy="395.5" fill="#ADD1B2" rx="11" ry="11" style="stroke: #A80036; stroke-width: 1.0;"/><path d="M521.5938,391.1719 L521.7656,391.25 C521.9844,390.9375 522.1875,390.8438 522.4844,390.8438 C522.7813,390.8438 523.0625,390.9844 523.2188,391.25 C523.3125,391.4063 523.3281,391.5313 523.3281,391.9688 L523.3281,393.3906 C523.3281,393.8125 523.2969,394 523.1875,394.1563 C523.0156,394.375 522.75,394.5156 522.4844,394.5156 C522.2656,394.5156 522.0313,394.4063 521.8906,394.2656 C521.75,394.1406 521.7188,394.0156 521.6563,393.6094 C521.5625,393.2031 521.3906,392.9844 520.9063,392.7031 C520.4375,392.4531 519.8281,392.2969 519.25,392.2969 C517.5156,392.2969 516.2656,393.6094 516.2656,395.3906 L516.2656,396.4844 C516.2656,398.1875 517.5625,399.2813 519.6094,399.2813 C520.375,399.2813 521.0625,399.1563 521.4844,398.8906 C521.6719,398.7969 521.6719,398.7969 522.125,398.3125 C522.3125,398.125 522.5156,398.0469 522.7344,398.0469 C523.2031,398.0469 523.5938,398.4375 523.5938,398.8906 C523.5938,399.2813 523.2656,399.7344 522.6875,400.1406 C521.9375,400.6875 520.7813,400.9844 519.5625,400.9844 C516.6719,400.9844 514.5625,399.0938 514.5625,396.5156 L514.5625,395.3906 C514.5625,392.6719 516.5625,390.5938 519.1875,390.5938 C520.0625,390.5938 520.6563,390.7344 521.5938,391.1719 Z "/><text fill="#000000" font-family="sans-serif" font-size="12" lengthAdjust="spacingAndGlyphs" textLength="63" x="539.75" y="399.6543">Calculette</text><line style="stroke: #A80036; stroke-width: 1.5;" x1="444" x2="666" y1="411.5" y2="411.5"/><text fill="#000000" font-family="sans-serif" font-size="11" lengthAdjust="spacingAndGlyphs" textLength="119" x="449" y="425.7104">private int compteur;</text><line style="stroke: #A80036; stroke-width: 1.5;" x1="444" x2="666" y1="432.3047" y2="432.3047"/><text fill="#000000" font-family="sans-serif" font-size="11" lengthAdjust="spacingAndGlyphs" textLength="105" x="449" y="446.5151">public Calculette();</text><text fill="#000000" font-family="sans-serif" font-size="11" lengthAdjust="spacingAndGlyphs" textLength="212" x="449" y="459.3198">public void calculer(String operation);</text><text fill="#000000" font-family="sans-serif" font-size="11" lengthAdjust="spacingAndGlyphs" textLength="132" x="449" y="472.1245">public String toString();</text><!--class CalculetteSauvegarde--><rect fill="#FEFECE" filter="url(#f1idj3jg0nxgpy)" height="73.6094" id="CalculetteSauvegarde" style="stroke: #A80036; stroke-width: 1.5;" width="254" x="105" y="575"/><ellipse cx="158.75" cy="591" fill="#ADD1B2" rx="11" ry="11" style="stroke: #A80036; stroke-width: 1.0;"/><path d="M161.0938,586.6719 L161.2656,586.75 C161.4844,586.4375 161.6875,586.3438 161.9844,586.3438 C162.2813,586.3438 162.5625,586.4844 162.7188,586.75 C162.8125,586.9063 162.8281,587.0313 162.8281,587.4688 L162.8281,588.8906 C162.8281,589.3125 162.7969,589.5 162.6875,589.6563 C162.5156,589.875 162.25,590.0156 161.9844,590.0156 C161.7656,590.0156 161.5313,589.9063 161.3906,589.7656 C161.25,589.6406 161.2188,589.5156 161.1563,589.1094 C161.0625,588.7031 160.8906,588.4844 160.4063,588.2031 C159.9375,587.9531 159.3281,587.7969 158.75,587.7969 C157.0156,587.7969 155.7656,589.1094 155.7656,590.8906 L155.7656,591.9844 C155.7656,593.6875 157.0625,594.7813 159.1094,594.7813 C159.875,594.7813 160.5625,594.6563 160.9844,594.3906 C161.1719,594.2969 161.1719,594.2969 161.625,593.8125 C161.8125,593.625 162.0156,593.5469 162.2344,593.5469 C162.7031,593.5469 163.0938,593.9375 163.0938,594.3906 C163.0938,594.7813 162.7656,595.2344 162.1875,595.6406 C161.4375,596.1875 160.2813,596.4844 159.0625,596.4844 C156.1719,596.4844 154.0625,594.5938 154.0625,592.0156 L154.0625,590.8906 C154.0625,588.1719 156.0625,586.0938 158.6875,586.0938 C159.5625,586.0938 160.1563,586.2344 161.0938,586.6719 Z "/><text fill="#000000" font-family="sans-serif" font-size="12" lengthAdjust="spacingAndGlyphs" textLength="138" x="179.25" y="595.1543">CalculetteSauvegarde</text><line style="stroke: #A80036; stroke-width: 1.5;" x1="106" x2="358" y1="607" y2="607"/><line style="stroke: #A80036; stroke-width: 1.5;" x1="106" x2="358" y1="615" y2="615"/><text fill="#000000" font-family="sans-serif" font-size="11" lengthAdjust="spacingAndGlyphs" textLength="242" x="111" y="629.2104">public CalculetteSauvegarde(int uneTaille);</text><text fill="#000000" font-family="sans-serif" font-size="11" lengthAdjust="spacingAndGlyphs" textLength="148" x="111" y="642.0151">public void sauvegarder();</text><!--class FichierTexte--><rect fill="#FEFECE" filter="url(#f1idj3jg0nxgpy)" height="137.6328" id="FichierTexte" style="stroke: #A80036; stroke-width: 1.5;" width="402" x="6" y="360"/><ellipse cx="165.25" cy="376" fill="#ADD1B2" rx="11" ry="11" style="stroke: #A80036; stroke-width: 1.0;"/><path d="M167.5938,371.6719 L167.7656,371.75 C167.9844,371.4375 168.1875,371.3438 168.4844,371.3438 C168.7813,371.3438 169.0625,371.4844 169.2188,371.75 C169.3125,371.9063 169.3281,372.0313 169.3281,372.4688 L169.3281,373.8906 C169.3281,374.3125 169.2969,374.5 169.1875,374.6563 C169.0156,374.875 168.75,375.0156 168.4844,375.0156 C168.2656,375.0156 168.0313,374.9063 167.8906,374.7656 C167.75,374.6406 167.7188,374.5156 167.6563,374.1094 C167.5625,373.7031 167.3906,373.4844 166.9063,373.2031 C166.4375,372.9531 165.8281,372.7969 165.25,372.7969 C163.5156,372.7969 162.2656,374.1094 162.2656,375.8906 L162.2656,376.9844 C162.2656,378.6875 163.5625,379.7813 165.6094,379.7813 C166.375,379.7813 167.0625,379.6563 167.4844,379.3906 C167.6719,379.2969 167.6719,379.2969 168.125,378.8125 C168.3125,378.625 168.5156,378.5469 168.7344,378.5469 C169.2031,378.5469 169.5938,378.9375 169.5938,379.3906 C169.5938,379.7813 169.2656,380.2344 168.6875,380.6406 C167.9375,381.1875 166.7813,381.4844 165.5625,381.4844 C162.6719,381.4844 160.5625,379.5938 160.5625,377.0156 L160.5625,375.8906 C160.5625,373.1719 162.5625,371.0938 165.1875,371.0938 C166.0625,371.0938 166.6563,371.2344 167.5938,371.6719 Z "/><text fill="#000000" font-family="sans-serif" font-size="12" lengthAdjust="spacingAndGlyphs" textLength="75" x="185.75" y="380.1543">FichierTexte</text><line style="stroke: #A80036; stroke-width: 1.5;" x1="7" x2="407" y1="392" y2="392"/><text fill="#000000" font-family="sans-serif" font-size="11" lengthAdjust="spacingAndGlyphs" textLength="146" x="12" y="406.2104">private BufferedWriter fW;</text><text fill="#000000" font-family="sans-serif" font-size="11" lengthAdjust="spacingAndGlyphs" textLength="151" x="12" y="419.0151">private BufferedReader fR;</text><text fill="#000000" font-family="sans-serif" font-size="11" lengthAdjust="spacingAndGlyphs" textLength="108" x="12" y="431.8198">private char mode;</text><line style="stroke: #A80036; stroke-width: 1.5;" x1="7" x2="407" y1="438.4141" y2="438.4141"/><text fill="#000000" font-family="sans-serif" font-size="11" lengthAdjust="spacingAndGlyphs" textLength="390" x="12" y="452.6245">public void ouvrir(String nomDuFichier, String s) throws IOException;</text><text fill="#000000" font-family="sans-serif" font-size="11" lengthAdjust="spacingAndGlyphs" textLength="228" x="12" y="465.4292">public void fermer() throws IOException;</text><text fill="#000000" font-family="sans-serif" font-size="11" lengthAdjust="spacingAndGlyphs" textLength="218" x="12" y="478.2339">public String lire() throws IOException;</text><text fill="#000000" font-family="sans-serif" font-size="11" lengthAdjust="spacingAndGlyphs" textLength="267" x="12" y="491.0386">public void ecrire(String s) throws IOException;</text><!--class ServeurTCP--><rect fill="#FEFECE" filter="url(#f1idj3jg0nxgpy)" height="124.8281" id="ServeurTCP" style="stroke: #A80036; stroke-width: 1.5;" width="307" x="228.5" y="979"/><ellipse cx="342.25" cy="995" fill="#ADD1B2" rx="11" ry="11" style="stroke: #A80036; stroke-width: 1.0;"/><path d="M344.5938,990.6719 L344.7656,990.75 C344.9844,990.4375 345.1875,990.3438 345.4844,990.3438 C345.7813,990.3438 346.0625,990.4844 346.2188,990.75 C346.3125,990.9063 346.3281,991.0313 346.3281,991.4688 L346.3281,992.8906 C346.3281,993.3125 346.2969,993.5 346.1875,993.6563 C346.0156,993.875 345.75,994.0156 345.4844,994.0156 C345.2656,994.0156 345.0313,993.9063 344.8906,993.7656 C344.75,993.6406 344.7188,993.5156 344.6563,993.1094 C344.5625,992.7031 344.3906,992.4844 343.9063,992.2031 C343.4375,991.9531 342.8281,991.7969 342.25,991.7969 C340.5156,991.7969 339.2656,993.1094 339.2656,994.8906 L339.2656,995.9844 C339.2656,997.6875 340.5625,998.7813 342.6094,998.7813 C343.375,998.7813 344.0625,998.6563 344.4844,998.3906 C344.6719,998.2969 344.6719,998.2969 345.125,997.8125 C345.3125,997.625 345.5156,997.5469 345.7344,997.5469 C346.2031,997.5469 346.5938,997.9375 346.5938,998.3906 C346.5938,998.7813 346.2656,999.2344 345.6875,999.6406 C344.9375,1000.1875 343.7813,1000.4844 342.5625,1000.4844 C339.6719,1000.4844 337.5625,998.5938 337.5625,996.0156 L337.5625,994.8906 C337.5625,992.1719 339.5625,990.0938 342.1875,990.0938 C343.0625,990.0938 343.6563,990.2344 344.5938,990.6719 Z "/><text fill="#000000" font-family="sans-serif" font-size="12" lengthAdjust="spacingAndGlyphs" textLength="71" x="362.75" y="999.1543">ServeurTCP</text><line style="stroke: #A80036; stroke-width: 1.5;" x1="229.5" x2="534.5" y1="1011" y2="1011"/><text fill="#000000" font-family="sans-serif" font-size="11" lengthAdjust="spacingAndGlyphs" textLength="45" x="234.5" y="1025.2104">int port;</text><text fill="#000000" font-family="sans-serif" font-size="11" lengthAdjust="spacingAndGlyphs" textLength="202" x="234.5" y="1038.0151">ServerSocket receptionniste = null;</text><text fill="#000000" font-family="sans-serif" font-size="11" lengthAdjust="spacingAndGlyphs" textLength="108" x="234.5" y="1050.8198">int serviceCourant;</text><line style="stroke: #A80036; stroke-width: 1.5;" x1="229.5" x2="534.5" y1="1057.4141" y2="1057.4141"/><text fill="#000000" font-family="sans-serif" font-size="11" lengthAdjust="spacingAndGlyphs" textLength="295" x="234.5" y="1071.6245">public ServeurTCP(int unPort, int unNombreClients);</text><text fill="#000000" font-family="sans-serif" font-size="11" lengthAdjust="spacingAndGlyphs" textLength="119" x="234.5" y="1084.4292">public void ecouter();</text><text fill="#000000" font-family="sans-serif" font-size="11" lengthAdjust="spacingAndGlyphs" textLength="172" x="234.5" y="1097.2339">public int getServiceCourant();</text><!--class Service--><rect fill="#FEFECE" filter="url(#f1idj3jg0nxgpy)" height="176.0469" id="Service" style="stroke: #A80036; stroke-width: 1.5;" width="390" x="187" y="726"/><ellipse cx="355.25" cy="742" fill="#ADD1B2" rx="11" ry="11" style="stroke: #A80036; stroke-width: 1.0;"/><path d="M357.5938,737.6719 L357.7656,737.75 C357.9844,737.4375 358.1875,737.3438 358.4844,737.3438 C358.7813,737.3438 359.0625,737.4844 359.2188,737.75 C359.3125,737.9063 359.3281,738.0313 359.3281,738.4688 L359.3281,739.8906 C359.3281,740.3125 359.2969,740.5 359.1875,740.6563 C359.0156,740.875 358.75,741.0156 358.4844,741.0156 C358.2656,741.0156 358.0313,740.9063 357.8906,740.7656 C357.75,740.6406 357.7188,740.5156 357.6563,740.1094 C357.5625,739.7031 357.3906,739.4844 356.9063,739.2031 C356.4375,738.9531 355.8281,738.7969 355.25,738.7969 C353.5156,738.7969 352.2656,740.1094 352.2656,741.8906 L352.2656,742.9844 C352.2656,744.6875 353.5625,745.7813 355.6094,745.7813 C356.375,745.7813 357.0625,745.6563 357.4844,745.3906 C357.6719,745.2969 357.6719,745.2969 358.125,744.8125 C358.3125,744.625 358.5156,744.5469 358.7344,744.5469 C359.2031,744.5469 359.5938,744.9375 359.5938,745.3906 C359.5938,745.7813 359.2656,746.2344 358.6875,746.6406 C357.9375,747.1875 356.7813,747.4844 355.5625,747.4844 C352.6719,747.4844 350.5625,745.5938 350.5625,743.0156 L350.5625,741.8906 C350.5625,739.1719 352.5625,737.0938 355.1875,737.0938 C356.0625,737.0938 356.6563,737.2344 357.5938,737.6719 Z "/><text fill="#000000" font-family="sans-serif" font-size="12" lengthAdjust="spacingAndGlyphs" textLength="45" x="375.75" y="746.1543">Service</text><line style="stroke: #A80036; stroke-width: 1.5;" x1="188" x2="576" y1="758" y2="758"/><text fill="#000000" font-family="sans-serif" font-size="11" lengthAdjust="spacingAndGlyphs" textLength="244" x="193" y="772.2104">protected boolean serviceTermine = false;</text><text fill="#000000" font-family="sans-serif" font-size="11" lengthAdjust="spacingAndGlyphs" textLength="124" x="193" y="785.0151">protected int numero;</text><text fill="#000000" font-family="sans-serif" font-size="11" lengthAdjust="spacingAndGlyphs" textLength="119" x="193" y="797.8198">ServeurTCP serveur;</text><text fill="#000000" font-family="sans-serif" font-size="11" lengthAdjust="spacingAndGlyphs" textLength="83" x="193" y="810.6245">Socket socket;</text><text fill="#000000" font-family="sans-serif" font-size="11" lengthAdjust="spacingAndGlyphs" textLength="151" x="193" y="823.4292">ObjectInputStream entree;</text><text fill="#000000" font-family="sans-serif" font-size="11" lengthAdjust="spacingAndGlyphs" textLength="157" x="193" y="836.2339">ObjectOutputStream sortie;</text><line style="stroke: #A80036; stroke-width: 1.5;" x1="188" x2="576" y1="842.8281" y2="842.8281"/><text fill="#000000" font-family="sans-serif" font-size="11" lengthAdjust="spacingAndGlyphs" textLength="378" x="193" y="857.0386">Service(ServeurTCP unServeur, Socket uneSocket, int unNumero);</text><text fill="#000000" font-family="sans-serif" font-size="11" lengthAdjust="spacingAndGlyphs" textLength="162" x="193" y="869.8433">private void rendreService();</text><text fill="#000000" font-family="sans-serif" font-size="11" lengthAdjust="spacingAndGlyphs" textLength="125" x="193" y="882.6479">public void terminer();</text><text fill="#000000" font-family="sans-serif" font-size="11" lengthAdjust="spacingAndGlyphs" textLength="95" x="193" y="895.4526">public void run();</text><!--class Thread--><rect fill="#FEFECE" filter="url(#f1idj3jg0nxgpy)" height="48" id="Thread" style="stroke: #A80036; stroke-width: 1.5;" width="76" x="394" y="588"/><ellipse cx="409" cy="604" fill="#ADD1B2" rx="11" ry="11" style="stroke: #A80036; stroke-width: 1.0;"/><path d="M411.3438,599.6719 L411.5156,599.75 C411.7344,599.4375 411.9375,599.3438 412.2344,599.3438 C412.5313,599.3438 412.8125,599.4844 412.9688,599.75 C413.0625,599.9063 413.0781,600.0313 413.0781,600.4688 L413.0781,601.8906 C413.0781,602.3125 413.0469,602.5 412.9375,602.6563 C412.7656,602.875 412.5,603.0156 412.2344,603.0156 C412.0156,603.0156 411.7813,602.9063 411.6406,602.7656 C411.5,602.6406 411.4688,602.5156 411.4063,602.1094 C411.3125,601.7031 411.1406,601.4844 410.6563,601.2031 C410.1875,600.9531 409.5781,600.7969 409,600.7969 C407.2656,600.7969 406.0156,602.1094 406.0156,603.8906 L406.0156,604.9844 C406.0156,606.6875 407.3125,607.7813 409.3594,607.7813 C410.125,607.7813 410.8125,607.6563 411.2344,607.3906 C411.4219,607.2969 411.4219,607.2969 411.875,606.8125 C412.0625,606.625 412.2656,606.5469 412.4844,606.5469 C412.9531,606.5469 413.3438,606.9375 413.3438,607.3906 C413.3438,607.7813 413.0156,608.2344 412.4375,608.6406 C411.6875,609.1875 410.5313,609.4844 409.3125,609.4844 C406.4219,609.4844 404.3125,607.5938 404.3125,605.0156 L404.3125,603.8906 C404.3125,601.1719 406.3125,599.0938 408.9375,599.0938 C409.8125,599.0938 410.4063,599.2344 411.3438,599.6719 Z "/><text fill="#000000" font-family="sans-serif" font-size="12" lengthAdjust="spacingAndGlyphs" textLength="44" x="423" y="608.1543">Thread</text><line style="stroke: #A80036; stroke-width: 1.5;" x1="395" x2="469" y1="620" y2="620"/><line style="stroke: #A80036; stroke-width: 1.5;" x1="395" x2="469" y1="628" y2="628"/><!--link Thread to Service--><path d="M421.238,656.048 C416.12,676.522 409.807,701.774 403.752,725.992 " fill="none" id="Thread-Service" style="stroke: #A80036; stroke-width: 1.0;"/><polygon fill="none" points="414.525,654.039,426.167,636.334,428.107,657.435,414.525,654.039" style="stroke: #A80036; stroke-width: 1.0;"/><!--link Operation to OperationMathematique--><path d="M555,127.63 C555,146.479 555,166.496 555,183.936 " fill="none" id="Operation-OperationMathematique" style="stroke: #A80036; stroke-width: 1.0;"/><polygon fill="none" points="548,127.432,555,107.432,562,127.432,548,127.432" style="stroke: #A80036; stroke-width: 1.0;"/><text fill="#000000" font-family="sans-serif" font-size="13" lengthAdjust="spacingAndGlyphs" textLength="71" x="556" y="150.0669">Inheritance</text><!--link OperationMathematique to Calculette--><path d="M555,283.328 C555,308.422 555,339.269 555,366.025 " fill="none" id="OperationMathematique-Calculette" style="stroke: #A80036; stroke-width: 1.0;"/><polygon fill="#A80036" points="555,379.187,559,373.187,555,367.187,551,373.187,555,379.187" style="stroke: #A80036; stroke-width: 1.0;"/><text fill="#000000" font-family="sans-serif" font-size="13" lengthAdjust="spacingAndGlyphs" textLength="68" x="556" y="326.0669">operations</text><text fill="#000000" font-family="sans-serif" font-size="13" lengthAdjust="spacingAndGlyphs" textLength="7" x="547.5078" y="303.4506">*</text><text fill="#000000" font-family="sans-serif" font-size="13" lengthAdjust="spacingAndGlyphs" textLength="8" x="546.4625" y="368.5467">1</text><!--link FichierTexte to CalculetteSauvegarde--><path d="M216.416,498.17 C219.34,519.34 222.504,542.248 225.212,561.857 " fill="none" id="FichierTexte-CalculetteSauvegarde" style="stroke: #A80036; stroke-width: 1.0;"/><polygon fill="#A80036" points="227.006,574.843,230.1475,568.3521,225.3642,562.9558,222.2227,569.4467,227.006,574.843" style="stroke: #A80036; stroke-width: 1.0;"/><text fill="#000000" font-family="sans-serif" font-size="13" lengthAdjust="spacingAndGlyphs" textLength="9" x="224" y="541.0669">ft</text><text fill="#000000" font-family="sans-serif" font-size="13" lengthAdjust="spacingAndGlyphs" textLength="8" x="208.9491" y="517.8087">1</text><text fill="#000000" font-family="sans-serif" font-size="13" lengthAdjust="spacingAndGlyphs" textLength="8" x="217.4039" y="564.002">1</text><!--link Calculette to CalculetteSauvegarde--><path d="M450.883,488.344 C400.105,516.799 340.627,550.129 296.498,574.857 " fill="none" id="Calculette-CalculetteSauvegarde" style="stroke: #A80036; stroke-width: 1.0;"/><polygon fill="none" points="447.573,482.175,468.442,478.505,454.417,494.388,447.573,482.175" style="stroke: #A80036; stroke-width: 1.0;"/><text fill="#000000" font-family="sans-serif" font-size="13" lengthAdjust="spacingAndGlyphs" textLength="71" x="376" y="541.0669">Inheritance</text><!--link CalculetteSauvegarde to Service--><path d="M259.164,649.218 C273.21,667.947 291.099,691.799 308.85,715.466 " fill="none" id="CalculetteSauvegarde-Service" style="stroke: #A80036; stroke-width: 1.0;"/><polygon fill="#A80036" points="316.708,725.944,316.308,718.744,309.508,716.344,309.908,723.544,316.708,725.944" style="stroke: #A80036; stroke-width: 1.0;"/><text fill="#000000" font-family="sans-serif" font-size="13" lengthAdjust="spacingAndGlyphs" textLength="62" x="295" y="692.0669">calculette</text><text fill="#000000" font-family="sans-serif" font-size="13" lengthAdjust="spacingAndGlyphs" textLength="8" x="255.0005" y="668.7347">1</text><text fill="#000000" font-family="sans-serif" font-size="13" lengthAdjust="spacingAndGlyphs" textLength="8" x="302.7532" y="714.8027">1</text><!--link Service to ServeurTCP--><path d="M382,902.184 C382,923.128 382,945.313 382,965.64 " fill="none" id="Service-ServeurTCP" style="stroke: #A80036; stroke-width: 1.0;"/><polygon fill="#A80036" points="382,978.697,386,972.697,382,966.697,378,972.697,382,978.697" style="stroke: #A80036; stroke-width: 1.0;"/><text fill="#000000" font-family="sans-serif" font-size="13" lengthAdjust="spacingAndGlyphs" textLength="116" x="383" y="945.0669">servicesCalculette</text><text fill="#000000" font-family="sans-serif" font-size="13" lengthAdjust="spacingAndGlyphs" textLength="8" x="373.6688" y="922.1783">1</text><text fill="#000000" font-family="sans-serif" font-size="13" lengthAdjust="spacingAndGlyphs" textLength="8" x="373.5625" y="968.0912">1</text><!--
@startuml
class Operation {
    private String operation;

    public Operation(); 
    public String getOperation();
    public void setOperation(String operation);
}

class OperationMathematique {
    private double resultat;

    public OperationMathematique();
    public void resoudre(String uneOperation) throws OperationException;
    public String toString();
} 

class Calculette {
    private int compteur;

    public Calculette();
    public void calculer(String operation);
    public String toString();
} 

class CalculetteSauvegarde {
    public CalculetteSauvegarde(int uneTaille);
    public void sauvegarder();
}

class FichierTexte {
    private BufferedWriter fW;
    private BufferedReader fR;
    private char mode;

    public void ouvrir(String nomDuFichier, String s) throws IOException;
    public void fermer() throws IOException;
    public String lire() throws IOException;
    public void ecrire(String s) throws IOException;
}

class ServeurTCP {
    int port;
    ServerSocket receptionniste = null;
    int serviceCourant;

    public ServeurTCP(int unPort, int unNombreClients);
    public void ecouter();
    public int getServiceCourant();
}

class Service extends Thread {
    protected boolean serviceTermine = false;
    protected int numero;
    ServeurTCP serveur;
    Socket socket;
    ObjectInputStream entree;
    ObjectOutputStream sortie;

    Service(ServeurTCP unServeur, Socket uneSocket, int unNumero);
    private void rendreService();
    public void terminer();
    public void run();
} 

Operation <|-down- OperationMathematique: Inheritance
Calculette "1" *-up- "*" OperationMathematique: operations
CalculetteSauvegarde "1" *-up- "1" FichierTexte: ft
Calculette <|-down- CalculetteSauvegarde: Inheritance
Service "1" *-up- "1" CalculetteSauvegarde: calculette
ServeurTCP "1" *-up- "1" Service: servicesCalculette
@enduml

PlantUML version 1.2018.02(Fri Mar 09 17:20:44 UTC 2018)
(GPL source distribution)
Java Runtime: Java(TM) SE Runtime Environment
JVM: Java HotSpot(TM) 64-Bit Server VM
Java Version: 1.7.0_25-b15
Operating System: Linux
Default Encoding: UTF-8
Language: en
Country: US
--></g></svg>