<?xml version="1.0" encoding="UTF-8" standalone="no"?><svg xmlns="http://www.w3.org/2000/svg" xmlns:xlink="http://www.w3.org/1999/xlink" contentScriptType="application/ecmascript" contentStyleType="text/css" height="938px" preserveAspectRatio="none" style="width:1029px;height:938px;" version="1.1" viewBox="0 0 1029 938" width="1029px" zoomAndPan="magnify"><defs><filter height="300%" id="f727ufxa5e3tt" width="300%" x="-1" y="-1"><feGaussianBlur result="blurOut" stdDeviation="2.0"/><feColorMatrix in="blurOut" result="blurOut2" type="matrix" values="0 0 0 0 0 0 0 0 0 0 0 0 0 0 0 0 0 0 .4 0"/><feOffset dx="4.0" dy="4.0" in="blurOut2" result="blurOut3"/><feBlend in="SourceGraphic" in2="blurOut3" mode="normal"/></filter></defs><g><!--class Operation--><rect fill="#FEFECE" filter="url(#f727ufxa5e3tt)" height="99.2188" id="Operation" style="stroke: #A80036; stroke-width: 1.5;" width="254" x="685.5" y="8"/><ellipse cx="777.25" cy="24" fill="#ADD1B2" rx="11" ry="11" style="stroke: #A80036; stroke-width: 1.0;"/><path d="M779.5938,19.6719 L779.7656,19.75 C779.9844,19.4375 780.1875,19.3438 780.4844,19.3438 C780.7813,19.3438 781.0625,19.4844 781.2188,19.75 C781.3125,19.9063 781.3281,20.0313 781.3281,20.4688 L781.3281,21.8906 C781.3281,22.3125 781.2969,22.5 781.1875,22.6563 C781.0156,22.875 780.75,23.0156 780.4844,23.0156 C780.2656,23.0156 780.0313,22.9063 779.8906,22.7656 C779.75,22.6406 779.7188,22.5156 779.6563,22.1094 C779.5625,21.7031 779.3906,21.4844 778.9063,21.2031 C778.4375,20.9531 777.8281,20.7969 777.25,20.7969 C775.5156,20.7969 774.2656,22.1094 774.2656,23.8906 L774.2656,24.9844 C774.2656,26.6875 775.5625,27.7813 777.6094,27.7813 C778.375,27.7813 779.0625,27.6563 779.4844,27.3906 C779.6719,27.2969 779.6719,27.2969 780.125,26.8125 C780.3125,26.625 780.5156,26.5469 780.7344,26.5469 C781.2031,26.5469 781.5938,26.9375 781.5938,27.3906 C781.5938,27.7813 781.2656,28.2344 780.6875,28.6406 C779.9375,29.1875 778.7813,29.4844 777.5625,29.4844 C774.6719,29.4844 772.5625,27.5938 772.5625,25.0156 L772.5625,23.8906 C772.5625,21.1719 774.5625,19.0938 777.1875,19.0938 C778.0625,19.0938 778.6563,19.2344 779.5938,19.6719 Z "/><text fill="#000000" font-family="sans-serif" font-size="12" lengthAdjust="spacingAndGlyphs" textLength="62" x="797.75" y="28.1543">Operation</text><line style="stroke: #A80036; stroke-width: 1.5;" x1="686.5" x2="938.5" y1="40" y2="40"/><text fill="#000000" font-family="sans-serif" font-size="11" lengthAdjust="spacingAndGlyphs" textLength="139" x="691.5" y="54.2104">private String operation;</text><line style="stroke: #A80036; stroke-width: 1.5;" x1="686.5" x2="938.5" y1="60.8047" y2="60.8047"/><text fill="#000000" font-family="sans-serif" font-size="11" lengthAdjust="spacingAndGlyphs" textLength="105" x="691.5" y="75.0151">public Operation();</text><text fill="#000000" font-family="sans-serif" font-size="11" lengthAdjust="spacingAndGlyphs" textLength="161" x="691.5" y="87.8198">public String getOperation();</text><text fill="#000000" font-family="sans-serif" font-size="11" lengthAdjust="spacingAndGlyphs" textLength="242" x="691.5" y="100.6245">public void setOperation(String operation);</text><!--class OperationMathematique--><rect fill="#FEFECE" filter="url(#f727ufxa5e3tt)" height="99.2188" id="OperationMathematique" style="stroke: #A80036; stroke-width: 1.5;" width="412" x="606.5" y="184"/><ellipse cx="732.25" cy="200" fill="#ADD1B2" rx="11" ry="11" style="stroke: #A80036; stroke-width: 1.0;"/><path d="M734.5938,195.6719 L734.7656,195.75 C734.9844,195.4375 735.1875,195.3438 735.4844,195.3438 C735.7813,195.3438 736.0625,195.4844 736.2188,195.75 C736.3125,195.9063 736.3281,196.0313 736.3281,196.4688 L736.3281,197.8906 C736.3281,198.3125 736.2969,198.5 736.1875,198.6563 C736.0156,198.875 735.75,199.0156 735.4844,199.0156 C735.2656,199.0156 735.0313,198.9063 734.8906,198.7656 C734.75,198.6406 734.7188,198.5156 734.6563,198.1094 C734.5625,197.7031 734.3906,197.4844 733.9063,197.2031 C733.4375,196.9531 732.8281,196.7969 732.25,196.7969 C730.5156,196.7969 729.2656,198.1094 729.2656,199.8906 L729.2656,200.9844 C729.2656,202.6875 730.5625,203.7813 732.6094,203.7813 C733.375,203.7813 734.0625,203.6563 734.4844,203.3906 C734.6719,203.2969 734.6719,203.2969 735.125,202.8125 C735.3125,202.625 735.5156,202.5469 735.7344,202.5469 C736.2031,202.5469 736.5938,202.9375 736.5938,203.3906 C736.5938,203.7813 736.2656,204.2344 735.6875,204.6406 C734.9375,205.1875 733.7813,205.4844 732.5625,205.4844 C729.6719,205.4844 727.5625,203.5938 727.5625,201.0156 L727.5625,199.8906 C727.5625,197.1719 729.5625,195.0938 732.1875,195.0938 C733.0625,195.0938 733.6563,195.2344 734.5938,195.6719 Z "/><text fill="#000000" font-family="sans-serif" font-size="12" lengthAdjust="spacingAndGlyphs" textLength="152" x="752.75" y="204.1543">OperationMathematique</text><line style="stroke: #A80036; stroke-width: 1.5;" x1="607.5" x2="1017.5" y1="216" y2="216"/><text fill="#000000" font-family="sans-serif" font-size="11" lengthAdjust="spacingAndGlyphs" textLength="133" x="612.5" y="230.2104">private double resultat;</text><line style="stroke: #A80036; stroke-width: 1.5;" x1="607.5" x2="1017.5" y1="236.8047" y2="236.8047"/><text fill="#000000" font-family="sans-serif" font-size="11" lengthAdjust="spacingAndGlyphs" textLength="185" x="612.5" y="251.0151">public OperationMathematique();</text><text fill="#000000" font-family="sans-serif" font-size="11" lengthAdjust="spacingAndGlyphs" textLength="400" x="612.5" y="263.8198">public void resoudre(String uneOperation) throws OperationException;</text><text fill="#000000" font-family="sans-serif" font-size="11" lengthAdjust="spacingAndGlyphs" textLength="132" x="612.5" y="276.6245">public String toString();</text><!--class Calculette--><rect fill="#FEFECE" filter="url(#f727ufxa5e3tt)" height="99.2188" id="Calculette" style="stroke: #A80036; stroke-width: 1.5;" width="224" x="700.5" y="379.5"/><ellipse cx="776.75" cy="395.5" fill="#ADD1B2" rx="11" ry="11" style="stroke: #A80036; stroke-width: 1.0;"/><path d="M779.0938,391.1719 L779.2656,391.25 C779.4844,390.9375 779.6875,390.8438 779.9844,390.8438 C780.2813,390.8438 780.5625,390.9844 780.7188,391.25 C780.8125,391.4063 780.8281,391.5313 780.8281,391.9688 L780.8281,393.3906 C780.8281,393.8125 780.7969,394 780.6875,394.1563 C780.5156,394.375 780.25,394.5156 779.9844,394.5156 C779.7656,394.5156 779.5313,394.4063 779.3906,394.2656 C779.25,394.1406 779.2188,394.0156 779.1563,393.6094 C779.0625,393.2031 778.8906,392.9844 778.4063,392.7031 C777.9375,392.4531 777.3281,392.2969 776.75,392.2969 C775.0156,392.2969 773.7656,393.6094 773.7656,395.3906 L773.7656,396.4844 C773.7656,398.1875 775.0625,399.2813 777.1094,399.2813 C777.875,399.2813 778.5625,399.1563 778.9844,398.8906 C779.1719,398.7969 779.1719,398.7969 779.625,398.3125 C779.8125,398.125 780.0156,398.0469 780.2344,398.0469 C780.7031,398.0469 781.0938,398.4375 781.0938,398.8906 C781.0938,399.2813 780.7656,399.7344 780.1875,400.1406 C779.4375,400.6875 778.2813,400.9844 777.0625,400.9844 C774.1719,400.9844 772.0625,399.0938 772.0625,396.5156 L772.0625,395.3906 C772.0625,392.6719 774.0625,390.5938 776.6875,390.5938 C777.5625,390.5938 778.1563,390.7344 779.0938,391.1719 Z "/><text fill="#000000" font-family="sans-serif" font-size="12" lengthAdjust="spacingAndGlyphs" textLength="63" x="797.25" y="399.6543">Calculette</text><line style="stroke: #A80036; stroke-width: 1.5;" x1="701.5" x2="923.5" y1="411.5" y2="411.5"/><text fill="#000000" font-family="sans-serif" font-size="11" lengthAdjust="spacingAndGlyphs" textLength="119" x="706.5" y="425.7104">private int compteur;</text><line style="stroke: #A80036; stroke-width: 1.5;" x1="701.5" x2="923.5" y1="432.3047" y2="432.3047"/><text fill="#000000" font-family="sans-serif" font-size="11" lengthAdjust="spacingAndGlyphs" textLength="105" x="706.5" y="446.5151">public Calculette();</text><text fill="#000000" font-family="sans-serif" font-size="11" lengthAdjust="spacingAndGlyphs" textLength="212" x="706.5" y="459.3198">public void calculer(String operation);</text><text fill="#000000" font-family="sans-serif" font-size="11" lengthAdjust="spacingAndGlyphs" textLength="132" x="706.5" y="472.1245">public String toString();</text><!--class CalculetteSauvegarde--><rect fill="#FEFECE" filter="url(#f727ufxa5e3tt)" height="73.6094" id="CalculetteSauvegarde" style="stroke: #A80036; stroke-width: 1.5;" width="254" x="437.5" y="575"/><ellipse cx="491.25" cy="591" fill="#ADD1B2" rx="11" ry="11" style="stroke: #A80036; stroke-width: 1.0;"/><path d="M493.5938,586.6719 L493.7656,586.75 C493.9844,586.4375 494.1875,586.3438 494.4844,586.3438 C494.7813,586.3438 495.0625,586.4844 495.2188,586.75 C495.3125,586.9063 495.3281,587.0313 495.3281,587.4688 L495.3281,588.8906 C495.3281,589.3125 495.2969,589.5 495.1875,589.6563 C495.0156,589.875 494.75,590.0156 494.4844,590.0156 C494.2656,590.0156 494.0313,589.9063 493.8906,589.7656 C493.75,589.6406 493.7188,589.5156 493.6563,589.1094 C493.5625,588.7031 493.3906,588.4844 492.9063,588.2031 C492.4375,587.9531 491.8281,587.7969 491.25,587.7969 C489.5156,587.7969 488.2656,589.1094 488.2656,590.8906 L488.2656,591.9844 C488.2656,593.6875 489.5625,594.7813 491.6094,594.7813 C492.375,594.7813 493.0625,594.6563 493.4844,594.3906 C493.6719,594.2969 493.6719,594.2969 494.125,593.8125 C494.3125,593.625 494.5156,593.5469 494.7344,593.5469 C495.2031,593.5469 495.5938,593.9375 495.5938,594.3906 C495.5938,594.7813 495.2656,595.2344 494.6875,595.6406 C493.9375,596.1875 492.7813,596.4844 491.5625,596.4844 C488.6719,596.4844 486.5625,594.5938 486.5625,592.0156 L486.5625,590.8906 C486.5625,588.1719 488.5625,586.0938 491.1875,586.0938 C492.0625,586.0938 492.6563,586.2344 493.5938,586.6719 Z "/><text fill="#000000" font-family="sans-serif" font-size="12" lengthAdjust="spacingAndGlyphs" textLength="138" x="511.75" y="595.1543">CalculetteSauvegarde</text><line style="stroke: #A80036; stroke-width: 1.5;" x1="438.5" x2="690.5" y1="607" y2="607"/><line style="stroke: #A80036; stroke-width: 1.5;" x1="438.5" x2="690.5" y1="615" y2="615"/><text fill="#000000" font-family="sans-serif" font-size="11" lengthAdjust="spacingAndGlyphs" textLength="242" x="443.5" y="629.2104">public CalculetteSauvegarde(int uneTaille);</text><text fill="#000000" font-family="sans-serif" font-size="11" lengthAdjust="spacingAndGlyphs" textLength="148" x="443.5" y="642.0151">public void sauvegarder();</text><!--class WindowListener--><rect fill="#FEFECE" filter="url(#f727ufxa5e3tt)" height="48" id="WindowListener" style="stroke: #A80036; stroke-width: 1.5;" width="131" x="6" y="588"/><ellipse cx="21" cy="604" fill="#B4A7E5" rx="11" ry="11" style="stroke: #A80036; stroke-width: 1.0;"/><path d="M21.9531,600.7813 L21.9531,607.2969 L23.6719,607.2969 C24.125,607.2969 24.2656,607.3281 24.4375,607.4531 C24.6719,607.625 24.7813,607.875 24.7813,608.1563 C24.7813,608.7188 24.4219,609 23.6719,609 L18.5313,609 C18.125,609 17.9219,608.9531 17.7656,608.8281 C17.5469,608.6719 17.4063,608.4063 17.4063,608.1563 C17.4063,607.8594 17.5625,607.5781 17.8125,607.4219 C17.9688,607.3125 18.0938,607.2969 18.5313,607.2969 L20.25,607.2969 L20.25,600.7813 L18.5313,600.7813 C18.1094,600.7813 17.9219,600.75 17.7656,600.6406 C17.5469,600.4688 17.4063,600.2188 17.4063,599.9375 C17.4063,599.6563 17.5625,599.3594 17.8125,599.2031 C17.9688,599.1094 18.0938,599.0938 18.5313,599.0938 L23.6719,599.0938 C24.125,599.0938 24.2656,599.125 24.4375,599.2344 C24.6719,599.4063 24.7813,599.6719 24.7813,599.9375 C24.7813,600.2344 24.6406,600.5156 24.375,600.6719 C24.25,600.75 24.0625,600.7813 23.6719,600.7813 Z "/><text fill="#000000" font-family="sans-serif" font-size="12" font-style="italic" lengthAdjust="spacingAndGlyphs" textLength="99" x="35" y="608.1543">WindowListener</text><line style="stroke: #A80036; stroke-width: 1.5;" x1="7" x2="136" y1="620" y2="620"/><line style="stroke: #A80036; stroke-width: 1.5;" x1="7" x2="136" y1="628" y2="628"/><!--class ActionListener--><rect fill="#FEFECE" filter="url(#f727ufxa5e3tt)" height="48" id="ActionListener" style="stroke: #A80036; stroke-width: 1.5;" width="121" x="172" y="588"/><ellipse cx="187" cy="604" fill="#B4A7E5" rx="11" ry="11" style="stroke: #A80036; stroke-width: 1.0;"/><path d="M187.9531,600.7813 L187.9531,607.2969 L189.6719,607.2969 C190.125,607.2969 190.2656,607.3281 190.4375,607.4531 C190.6719,607.625 190.7813,607.875 190.7813,608.1563 C190.7813,608.7188 190.4219,609 189.6719,609 L184.5313,609 C184.125,609 183.9219,608.9531 183.7656,608.8281 C183.5469,608.6719 183.4063,608.4063 183.4063,608.1563 C183.4063,607.8594 183.5625,607.5781 183.8125,607.4219 C183.9688,607.3125 184.0938,607.2969 184.5313,607.2969 L186.25,607.2969 L186.25,600.7813 L184.5313,600.7813 C184.1094,600.7813 183.9219,600.75 183.7656,600.6406 C183.5469,600.4688 183.4063,600.2188 183.4063,599.9375 C183.4063,599.6563 183.5625,599.3594 183.8125,599.2031 C183.9688,599.1094 184.0938,599.0938 184.5313,599.0938 L189.6719,599.0938 C190.125,599.0938 190.2656,599.125 190.4375,599.2344 C190.6719,599.4063 190.7813,599.6719 190.7813,599.9375 C190.7813,600.2344 190.6406,600.5156 190.375,600.6719 C190.25,600.75 190.0625,600.7813 189.6719,600.7813 Z "/><text fill="#000000" font-family="sans-serif" font-size="12" font-style="italic" lengthAdjust="spacingAndGlyphs" textLength="89" x="201" y="608.1543">ActionListener</text><line style="stroke: #A80036; stroke-width: 1.5;" x1="173" x2="292" y1="620" y2="620"/><line style="stroke: #A80036; stroke-width: 1.5;" x1="173" x2="292" y1="628" y2="628"/><!--class JFrame--><rect fill="#FEFECE" filter="url(#f727ufxa5e3tt)" height="48" id="JFrame" style="stroke: #A80036; stroke-width: 1.5;" width="74" x="328.5" y="588"/><ellipse cx="343.5" cy="604" fill="#ADD1B2" rx="11" ry="11" style="stroke: #A80036; stroke-width: 1.0;"/><path d="M345.8438,599.6719 L346.0156,599.75 C346.2344,599.4375 346.4375,599.3438 346.7344,599.3438 C347.0313,599.3438 347.3125,599.4844 347.4688,599.75 C347.5625,599.9063 347.5781,600.0313 347.5781,600.4688 L347.5781,601.8906 C347.5781,602.3125 347.5469,602.5 347.4375,602.6563 C347.2656,602.875 347,603.0156 346.7344,603.0156 C346.5156,603.0156 346.2813,602.9063 346.1406,602.7656 C346,602.6406 345.9688,602.5156 345.9063,602.1094 C345.8125,601.7031 345.6406,601.4844 345.1563,601.2031 C344.6875,600.9531 344.0781,600.7969 343.5,600.7969 C341.7656,600.7969 340.5156,602.1094 340.5156,603.8906 L340.5156,604.9844 C340.5156,606.6875 341.8125,607.7813 343.8594,607.7813 C344.625,607.7813 345.3125,607.6563 345.7344,607.3906 C345.9219,607.2969 345.9219,607.2969 346.375,606.8125 C346.5625,606.625 346.7656,606.5469 346.9844,606.5469 C347.4531,606.5469 347.8438,606.9375 347.8438,607.3906 C347.8438,607.7813 347.5156,608.2344 346.9375,608.6406 C346.1875,609.1875 345.0313,609.4844 343.8125,609.4844 C340.9219,609.4844 338.8125,607.5938 338.8125,605.0156 L338.8125,603.8906 C338.8125,601.1719 340.8125,599.0938 343.4375,599.0938 C344.3125,599.0938 344.9063,599.2344 345.8438,599.6719 Z "/><text fill="#000000" font-family="sans-serif" font-size="12" lengthAdjust="spacingAndGlyphs" textLength="42" x="357.5" y="608.1543">JFrame</text><line style="stroke: #A80036; stroke-width: 1.5;" x1="329.5" x2="401.5" y1="620" y2="620"/><line style="stroke: #A80036; stroke-width: 1.5;" x1="329.5" x2="401.5" y1="628" y2="628"/><!--class CalculetteSWING--><rect fill="#FEFECE" filter="url(#f727ufxa5e3tt)" height="201.6563" id="CalculetteSWING" style="stroke: #A80036; stroke-width: 1.5;" width="290" x="153.5" y="726"/><ellipse cx="242.75" cy="742" fill="#ADD1B2" rx="11" ry="11" style="stroke: #A80036; stroke-width: 1.0;"/><path d="M245.0938,737.6719 L245.2656,737.75 C245.4844,737.4375 245.6875,737.3438 245.9844,737.3438 C246.2813,737.3438 246.5625,737.4844 246.7188,737.75 C246.8125,737.9063 246.8281,738.0313 246.8281,738.4688 L246.8281,739.8906 C246.8281,740.3125 246.7969,740.5 246.6875,740.6563 C246.5156,740.875 246.25,741.0156 245.9844,741.0156 C245.7656,741.0156 245.5313,740.9063 245.3906,740.7656 C245.25,740.6406 245.2188,740.5156 245.1563,740.1094 C245.0625,739.7031 244.8906,739.4844 244.4063,739.2031 C243.9375,738.9531 243.3281,738.7969 242.75,738.7969 C241.0156,738.7969 239.7656,740.1094 239.7656,741.8906 L239.7656,742.9844 C239.7656,744.6875 241.0625,745.7813 243.1094,745.7813 C243.875,745.7813 244.5625,745.6563 244.9844,745.3906 C245.1719,745.2969 245.1719,745.2969 245.625,744.8125 C245.8125,744.625 246.0156,744.5469 246.2344,744.5469 C246.7031,744.5469 247.0938,744.9375 247.0938,745.3906 C247.0938,745.7813 246.7656,746.2344 246.1875,746.6406 C245.4375,747.1875 244.2813,747.4844 243.0625,747.4844 C240.1719,747.4844 238.0625,745.5938 238.0625,743.0156 L238.0625,741.8906 C238.0625,739.1719 240.0625,737.0938 242.6875,737.0938 C243.5625,737.0938 244.1563,737.2344 245.0938,737.6719 Z "/><text fill="#000000" font-family="sans-serif" font-size="12" lengthAdjust="spacingAndGlyphs" textLength="103" x="263.25" y="746.1543">CalculetteSWING</text><line style="stroke: #A80036; stroke-width: 1.5;" x1="154.5" x2="442.5" y1="758" y2="758"/><text fill="#000000" font-family="sans-serif" font-size="11" lengthAdjust="spacingAndGlyphs" textLength="161" x="159.5" y="772.2104">private Calculette calculette;</text><text fill="#000000" font-family="sans-serif" font-size="11" lengthAdjust="spacingAndGlyphs" textLength="168" x="159.5" y="785.0151">private JTextField tfOperation;</text><text fill="#000000" font-family="sans-serif" font-size="11" lengthAdjust="spacingAndGlyphs" textLength="161" x="159.5" y="797.8198">private JTextArea taResultat;</text><line style="stroke: #A80036; stroke-width: 1.5;" x1="154.5" x2="442.5" y1="804.4141" y2="804.4141"/><text fill="#000000" font-family="sans-serif" font-size="11" lengthAdjust="spacingAndGlyphs" textLength="142" x="159.5" y="818.6245">public CalculetteSWING();</text><text fill="#000000" font-family="sans-serif" font-size="11" lengthAdjust="spacingAndGlyphs" textLength="263" x="159.5" y="831.4292">public void windowActivated(WindowEvent evt);</text><text fill="#000000" font-family="sans-serif" font-size="11" lengthAdjust="spacingAndGlyphs" textLength="278" x="159.5" y="844.2339">public void windowDeactivated(WindowEvent evt);</text><text fill="#000000" font-family="sans-serif" font-size="11" lengthAdjust="spacingAndGlyphs" textLength="251" x="159.5" y="857.0386">public void windowClosed(WindowEvent evt);</text><text fill="#000000" font-family="sans-serif" font-size="11" lengthAdjust="spacingAndGlyphs" textLength="254" x="159.5" y="869.8433">public void windowClosing(WindowEvent evt);</text><text fill="#000000" font-family="sans-serif" font-size="11" lengthAdjust="spacingAndGlyphs" textLength="259" x="159.5" y="882.6479">public void windowIconified(WindowEvent evt);</text><text fill="#000000" font-family="sans-serif" font-size="11" lengthAdjust="spacingAndGlyphs" textLength="274" x="159.5" y="895.4526">public void windowDeiconified(WindowEvent evt);</text><text fill="#000000" font-family="sans-serif" font-size="11" lengthAdjust="spacingAndGlyphs" textLength="256" x="159.5" y="908.2573">public void windowOpened(WindowEvent evt);</text><text fill="#000000" font-family="sans-serif" font-size="11" lengthAdjust="spacingAndGlyphs" textLength="256" x="159.5" y="921.062">public void actionPerformed(ActionEvent evt);</text><!--class FichierTexte--><rect fill="#FEFECE" filter="url(#f727ufxa5e3tt)" height="137.6328" id="FichierTexte" style="stroke: #A80036; stroke-width: 1.5;" width="402" x="263.5" y="360"/><ellipse cx="422.75" cy="376" fill="#ADD1B2" rx="11" ry="11" style="stroke: #A80036; stroke-width: 1.0;"/><path d="M425.0938,371.6719 L425.2656,371.75 C425.4844,371.4375 425.6875,371.3438 425.9844,371.3438 C426.2813,371.3438 426.5625,371.4844 426.7188,371.75 C426.8125,371.9063 426.8281,372.0313 426.8281,372.4688 L426.8281,373.8906 C426.8281,374.3125 426.7969,374.5 426.6875,374.6563 C426.5156,374.875 426.25,375.0156 425.9844,375.0156 C425.7656,375.0156 425.5313,374.9063 425.3906,374.7656 C425.25,374.6406 425.2188,374.5156 425.1563,374.1094 C425.0625,373.7031 424.8906,373.4844 424.4063,373.2031 C423.9375,372.9531 423.3281,372.7969 422.75,372.7969 C421.0156,372.7969 419.7656,374.1094 419.7656,375.8906 L419.7656,376.9844 C419.7656,378.6875 421.0625,379.7813 423.1094,379.7813 C423.875,379.7813 424.5625,379.6563 424.9844,379.3906 C425.1719,379.2969 425.1719,379.2969 425.625,378.8125 C425.8125,378.625 426.0156,378.5469 426.2344,378.5469 C426.7031,378.5469 427.0938,378.9375 427.0938,379.3906 C427.0938,379.7813 426.7656,380.2344 426.1875,380.6406 C425.4375,381.1875 424.2813,381.4844 423.0625,381.4844 C420.1719,381.4844 418.0625,379.5938 418.0625,377.0156 L418.0625,375.8906 C418.0625,373.1719 420.0625,371.0938 422.6875,371.0938 C423.5625,371.0938 424.1563,371.2344 425.0938,371.6719 Z "/><text fill="#000000" font-family="sans-serif" font-size="12" lengthAdjust="spacingAndGlyphs" textLength="75" x="443.25" y="380.1543">FichierTexte</text><line style="stroke: #A80036; stroke-width: 1.5;" x1="264.5" x2="664.5" y1="392" y2="392"/><text fill="#000000" font-family="sans-serif" font-size="11" lengthAdjust="spacingAndGlyphs" textLength="146" x="269.5" y="406.2104">private BufferedWriter fW;</text><text fill="#000000" font-family="sans-serif" font-size="11" lengthAdjust="spacingAndGlyphs" textLength="151" x="269.5" y="419.0151">private BufferedReader fR;</text><text fill="#000000" font-family="sans-serif" font-size="11" lengthAdjust="spacingAndGlyphs" textLength="108" x="269.5" y="431.8198">private char mode;</text><line style="stroke: #A80036; stroke-width: 1.5;" x1="264.5" x2="664.5" y1="438.4141" y2="438.4141"/><text fill="#000000" font-family="sans-serif" font-size="11" lengthAdjust="spacingAndGlyphs" textLength="390" x="269.5" y="452.6245">public void ouvrir(String nomDuFichier, String s) throws IOException;</text><text fill="#000000" font-family="sans-serif" font-size="11" lengthAdjust="spacingAndGlyphs" textLength="228" x="269.5" y="465.4292">public void fermer() throws IOException;</text><text fill="#000000" font-family="sans-serif" font-size="11" lengthAdjust="spacingAndGlyphs" textLength="218" x="269.5" y="478.2339">public String lire() throws IOException;</text><text fill="#000000" font-family="sans-serif" font-size="11" lengthAdjust="spacingAndGlyphs" textLength="267" x="269.5" y="491.0386">public void ecrire(String s) throws IOException;</text><!--link Operation to OperationMathematique--><path d="M812.5,127.63 C812.5,146.479 812.5,166.496 812.5,183.936 " fill="none" id="Operation-OperationMathematique" style="stroke: #A80036; stroke-width: 1.0;"/><polygon fill="none" points="805.5,127.432,812.5,107.432,819.5,127.432,805.5,127.432" style="stroke: #A80036; stroke-width: 1.0;"/><text fill="#000000" font-family="sans-serif" font-size="13" lengthAdjust="spacingAndGlyphs" textLength="71" x="813.5" y="150.0669">Inheritance</text><!--link OperationMathematique to Calculette--><path d="M812.5,283.328 C812.5,308.422 812.5,339.269 812.5,366.025 " fill="none" id="OperationMathematique-Calculette" style="stroke: #A80036; stroke-width: 1.0;"/><polygon fill="#A80036" points="812.5,379.187,816.5,373.187,812.5,367.187,808.5,373.187,812.5,379.187" style="stroke: #A80036; stroke-width: 1.0;"/><text fill="#000000" font-family="sans-serif" font-size="13" lengthAdjust="spacingAndGlyphs" textLength="68" x="813.5" y="326.0669">operations</text><text fill="#000000" font-family="sans-serif" font-size="13" lengthAdjust="spacingAndGlyphs" textLength="7" x="805.0078" y="303.4506">*</text><text fill="#000000" font-family="sans-serif" font-size="13" lengthAdjust="spacingAndGlyphs" textLength="8" x="803.9625" y="368.5467">1</text><!--link FichierTexte to CalculetteSauvegarde--><path d="M502.163,498.17 C514.14,519.849 527.125,543.351 538.127,563.265 " fill="none" id="FichierTexte-CalculetteSauvegarde" style="stroke: #A80036; stroke-width: 1.0;"/><polygon fill="#A80036" points="544.524,574.843,545.1233,567.6568,538.7205,564.3397,538.1211,571.5259,544.524,574.843" style="stroke: #A80036; stroke-width: 1.0;"/><text fill="#000000" font-family="sans-serif" font-size="13" lengthAdjust="spacingAndGlyphs" textLength="9" x="526.5" y="541.0669">ft</text><text fill="#000000" font-family="sans-serif" font-size="13" lengthAdjust="spacingAndGlyphs" textLength="8" x="497.4767" y="517.8087">1</text><text fill="#000000" font-family="sans-serif" font-size="13" lengthAdjust="spacingAndGlyphs" textLength="8" x="532.2533" y="564.002">1</text><!--link Calculette to CalculetteSauvegarde--><path d="M729.767,490.381 C691.483,518.323 647.274,550.589 614.218,574.714 " fill="none" id="Calculette-CalculetteSauvegarde" style="stroke: #A80036; stroke-width: 1.0;"/><polygon fill="none" points="725.759,484.641,746.041,478.505,734.012,495.949,725.759,484.641" style="stroke: #A80036; stroke-width: 1.0;"/><text fill="#000000" font-family="sans-serif" font-size="13" lengthAdjust="spacingAndGlyphs" textLength="71" x="674.5" y="541.0669">Inheritance</text><!--link CalculetteSauvegarde to CalculetteSWING--><path d="M519.377,649.133 C495.539,668.22 464.885,692.767 434.048,717.46 " fill="none" id="CalculetteSauvegarde-CalculetteSWING" style="stroke: #A80036; stroke-width: 1.0;"/><polygon fill="#A80036" points="423.592,725.832,430.7757,725.2039,432.9588,718.3312,425.7751,718.9593,423.592,725.832" style="stroke: #A80036; stroke-width: 1.0;"/><text fill="#000000" font-family="sans-serif" font-size="13" lengthAdjust="spacingAndGlyphs" textLength="62" x="478.5" y="692.0669">calculette</text><text fill="#000000" font-family="sans-serif" font-size="13" lengthAdjust="spacingAndGlyphs" textLength="8" x="503.241" y="668.6356">1</text><text fill="#000000" font-family="sans-serif" font-size="13" lengthAdjust="spacingAndGlyphs" textLength="8" x="424.4847" y="714.9361">1</text><!--link JFrame to CalculetteSWING--><path d="M352.166,655.389 C345.761,675.752 337.789,701.096 329.966,725.967 " fill="none" id="JFrame-CalculetteSWING" style="stroke: #A80036; stroke-width: 1.0;"/><polygon fill="none" points="345.524,653.178,358.202,636.2,358.878,657.379,345.524,653.178" style="stroke: #A80036; stroke-width: 1.0;"/><text fill="#000000" font-family="sans-serif" font-size="13" lengthAdjust="spacingAndGlyphs" textLength="71" x="345.5" y="692.0669">Inheritance</text><!--link WindowListener to CalculetteSWING--><path d="M110.982,650.047 C133.539,671.213 163.014,698.87 191.892,725.967 " fill="none" id="WindowListener-CalculetteSWING" style="stroke: #A80036; stroke-width: 1.0;"/><polygon fill="none" points="106.02,654.99,96.2251,636.2,115.6,644.781,106.02,654.99" style="stroke: #A80036; stroke-width: 1.0;"/><text fill="#000000" font-family="sans-serif" font-size="13" lengthAdjust="spacingAndGlyphs" textLength="71" x="159.5" y="692.0669">Inheritance</text><!--link ActionListener to CalculetteSWING--><path d="M240.011,656.254 C242.611,669.146 245.812,683.236 249.5,696 C252.312,705.732 255.52,715.77 258.918,725.752 " fill="none" id="ActionListener-CalculetteSWING" style="stroke: #A80036; stroke-width: 1.0;"/><polygon fill="none" points="233.045,657.087,236.225,636.137,246.803,654.497,233.045,657.087" style="stroke: #A80036; stroke-width: 1.0;"/><text fill="#000000" font-family="sans-serif" font-size="13" lengthAdjust="spacingAndGlyphs" textLength="71" x="250.5" y="692.0669">Inheritance</text><!--
@startuml
class Operation {
    private String operation;

    public Operation(); 
    public String getOperation();
    public void setOperation(String operation);
}

class OperationMathematique {
    private double resultat;

    public OperationMathematique();
    public void resoudre(String uneOperation) throws OperationException;
    public String toString();
} 

class Calculette {
    private int compteur;

    public Calculette();
    public void calculer(String operation);
    public String toString();
} 

class CalculetteSauvegarde {
    public CalculetteSauvegarde(int uneTaille);
    public void sauvegarder();
}

interface WindowListener {
}

interface ActionListener{
}

class JFrame {
}

class CalculetteSWING {
    private Calculette calculette;
    private JTextField tfOperation;
    private JTextArea taResultat;

    public CalculetteSWING();
    public void windowActivated(WindowEvent evt);
    public void windowDeactivated(WindowEvent evt);
    public void windowClosed(WindowEvent evt);
    public void windowClosing(WindowEvent evt);
    public void windowIconified(WindowEvent evt);
    public void windowDeiconified(WindowEvent evt);
    public void windowOpened(WindowEvent evt);
    public void actionPerformed(ActionEvent evt);
} 

class FichierTexte {
    private BufferedWriter fW;
    private BufferedReader fR;
    private char mode;

    public void ouvrir(String nomDuFichier, String s) throws IOException;
    public void fermer() throws IOException;
    public String lire() throws IOException;
    public void ecrire(String s) throws IOException;
}

Operation <|-down- OperationMathematique: Inheritance
Calculette "1" *-up- "*" OperationMathematique: operations
CalculetteSauvegarde "1" *-up- "1" FichierTexte: ft
Calculette <|-down- CalculetteSauvegarde: Inheritance
CalculetteSWING "1" *-up- "1" CalculetteSauvegarde: calculette
JFrame <|-down- CalculetteSWING: Inheritance
WindowListener <|-down- CalculetteSWING: Inheritance
ActionListener <|-down- CalculetteSWING: Inheritance
@enduml

PlantUML version 1.2018.02(Fri Mar 09 17:20:44 UTC 2018)
(GPL source distribution)
Java Runtime: Java(TM) SE Runtime Environment
JVM: Java HotSpot(TM) 64-Bit Server VM
Java Version: 1.7.0_25-b15
Operating System: Linux
Default Encoding: UTF-8
Language: en
Country: US
--></g></svg>