<?xml version="1.0" encoding="UTF-8" standalone="no"?><svg xmlns="http://www.w3.org/2000/svg" xmlns:xlink="http://www.w3.org/1999/xlink" contentScriptType="application/ecmascript" contentStyleType="text/css" height="1051px" preserveAspectRatio="none" style="width:772px;height:1051px;" version="1.1" viewBox="0 0 772 1051" width="772px" zoomAndPan="magnify"><defs><filter height="300%" id="fr28scm4dxkbj" width="300%" x="-1" y="-1"><feGaussianBlur result="blurOut" stdDeviation="2.0"/><feColorMatrix in="blurOut" result="blurOut2" type="matrix" values="0 0 0 0 0 0 0 0 0 0 0 0 0 0 0 0 0 0 .4 0"/><feOffset dx="4.0" dy="4.0" in="blurOut2" result="blurOut3"/><feBlend in="SourceGraphic" in2="blurOut3" mode="normal"/></filter></defs><g><!--class Operation--><rect fill="#FEFECE" filter="url(#fr28scm4dxkbj)" height="99.2188" id="Operation" style="stroke: #A80036; stroke-width: 1.5;" width="254" x="428" y="8"/><ellipse cx="519.75" cy="24" fill="#ADD1B2" rx="11" ry="11" style="stroke: #A80036; stroke-width: 1.0;"/><path d="M522.0938,19.6719 L522.2656,19.75 C522.4844,19.4375 522.6875,19.3438 522.9844,19.3438 C523.2813,19.3438 523.5625,19.4844 523.7188,19.75 C523.8125,19.9063 523.8281,20.0313 523.8281,20.4688 L523.8281,21.8906 C523.8281,22.3125 523.7969,22.5 523.6875,22.6563 C523.5156,22.875 523.25,23.0156 522.9844,23.0156 C522.7656,23.0156 522.5313,22.9063 522.3906,22.7656 C522.25,22.6406 522.2188,22.5156 522.1563,22.1094 C522.0625,21.7031 521.8906,21.4844 521.4063,21.2031 C520.9375,20.9531 520.3281,20.7969 519.75,20.7969 C518.0156,20.7969 516.7656,22.1094 516.7656,23.8906 L516.7656,24.9844 C516.7656,26.6875 518.0625,27.7813 520.1094,27.7813 C520.875,27.7813 521.5625,27.6563 521.9844,27.3906 C522.1719,27.2969 522.1719,27.2969 522.625,26.8125 C522.8125,26.625 523.0156,26.5469 523.2344,26.5469 C523.7031,26.5469 524.0938,26.9375 524.0938,27.3906 C524.0938,27.7813 523.7656,28.2344 523.1875,28.6406 C522.4375,29.1875 521.2813,29.4844 520.0625,29.4844 C517.1719,29.4844 515.0625,27.5938 515.0625,25.0156 L515.0625,23.8906 C515.0625,21.1719 517.0625,19.0938 519.6875,19.0938 C520.5625,19.0938 521.1563,19.2344 522.0938,19.6719 Z "/><text fill="#000000" font-family="sans-serif" font-size="12" lengthAdjust="spacingAndGlyphs" textLength="62" x="540.25" y="28.1543">Operation</text><line style="stroke: #A80036; stroke-width: 1.5;" x1="429" x2="681" y1="40" y2="40"/><text fill="#000000" font-family="sans-serif" font-size="11" lengthAdjust="spacingAndGlyphs" textLength="139" x="434" y="54.2104">private String operation;</text><line style="stroke: #A80036; stroke-width: 1.5;" x1="429" x2="681" y1="60.8047" y2="60.8047"/><text fill="#000000" font-family="sans-serif" font-size="11" lengthAdjust="spacingAndGlyphs" textLength="105" x="434" y="75.0151">public Operation();</text><text fill="#000000" font-family="sans-serif" font-size="11" lengthAdjust="spacingAndGlyphs" textLength="161" x="434" y="87.8198">public String getOperation();</text><text fill="#000000" font-family="sans-serif" font-size="11" lengthAdjust="spacingAndGlyphs" textLength="242" x="434" y="100.6245">public void setOperation(String operation);</text><!--class OperationMathematique--><rect fill="#FEFECE" filter="url(#fr28scm4dxkbj)" height="99.2188" id="OperationMathematique" style="stroke: #A80036; stroke-width: 1.5;" width="412" x="349" y="184"/><ellipse cx="474.75" cy="200" fill="#ADD1B2" rx="11" ry="11" style="stroke: #A80036; stroke-width: 1.0;"/><path d="M477.0938,195.6719 L477.2656,195.75 C477.4844,195.4375 477.6875,195.3438 477.9844,195.3438 C478.2813,195.3438 478.5625,195.4844 478.7188,195.75 C478.8125,195.9063 478.8281,196.0313 478.8281,196.4688 L478.8281,197.8906 C478.8281,198.3125 478.7969,198.5 478.6875,198.6563 C478.5156,198.875 478.25,199.0156 477.9844,199.0156 C477.7656,199.0156 477.5313,198.9063 477.3906,198.7656 C477.25,198.6406 477.2188,198.5156 477.1563,198.1094 C477.0625,197.7031 476.8906,197.4844 476.4063,197.2031 C475.9375,196.9531 475.3281,196.7969 474.75,196.7969 C473.0156,196.7969 471.7656,198.1094 471.7656,199.8906 L471.7656,200.9844 C471.7656,202.6875 473.0625,203.7813 475.1094,203.7813 C475.875,203.7813 476.5625,203.6563 476.9844,203.3906 C477.1719,203.2969 477.1719,203.2969 477.625,202.8125 C477.8125,202.625 478.0156,202.5469 478.2344,202.5469 C478.7031,202.5469 479.0938,202.9375 479.0938,203.3906 C479.0938,203.7813 478.7656,204.2344 478.1875,204.6406 C477.4375,205.1875 476.2813,205.4844 475.0625,205.4844 C472.1719,205.4844 470.0625,203.5938 470.0625,201.0156 L470.0625,199.8906 C470.0625,197.1719 472.0625,195.0938 474.6875,195.0938 C475.5625,195.0938 476.1563,195.2344 477.0938,195.6719 Z "/><text fill="#000000" font-family="sans-serif" font-size="12" lengthAdjust="spacingAndGlyphs" textLength="152" x="495.25" y="204.1543">OperationMathematique</text><line style="stroke: #A80036; stroke-width: 1.5;" x1="350" x2="760" y1="216" y2="216"/><text fill="#000000" font-family="sans-serif" font-size="11" lengthAdjust="spacingAndGlyphs" textLength="133" x="355" y="230.2104">private double resultat;</text><line style="stroke: #A80036; stroke-width: 1.5;" x1="350" x2="760" y1="236.8047" y2="236.8047"/><text fill="#000000" font-family="sans-serif" font-size="11" lengthAdjust="spacingAndGlyphs" textLength="185" x="355" y="251.0151">public OperationMathematique();</text><text fill="#000000" font-family="sans-serif" font-size="11" lengthAdjust="spacingAndGlyphs" textLength="400" x="355" y="263.8198">public void resoudre(String uneOperation) throws OperationException;</text><text fill="#000000" font-family="sans-serif" font-size="11" lengthAdjust="spacingAndGlyphs" textLength="132" x="355" y="276.6245">public String toString();</text><!--class Calculette--><rect fill="#FEFECE" filter="url(#fr28scm4dxkbj)" height="99.2188" id="Calculette" style="stroke: #A80036; stroke-width: 1.5;" width="224" x="443" y="379.5"/><ellipse cx="519.25" cy="395.5" fill="#ADD1B2" rx="11" ry="11" style="stroke: #A80036; stroke-width: 1.0;"/><path d="M521.5938,391.1719 L521.7656,391.25 C521.9844,390.9375 522.1875,390.8438 522.4844,390.8438 C522.7813,390.8438 523.0625,390.9844 523.2188,391.25 C523.3125,391.4063 523.3281,391.5313 523.3281,391.9688 L523.3281,393.3906 C523.3281,393.8125 523.2969,394 523.1875,394.1563 C523.0156,394.375 522.75,394.5156 522.4844,394.5156 C522.2656,394.5156 522.0313,394.4063 521.8906,394.2656 C521.75,394.1406 521.7188,394.0156 521.6563,393.6094 C521.5625,393.2031 521.3906,392.9844 520.9063,392.7031 C520.4375,392.4531 519.8281,392.2969 519.25,392.2969 C517.5156,392.2969 516.2656,393.6094 516.2656,395.3906 L516.2656,396.4844 C516.2656,398.1875 517.5625,399.2813 519.6094,399.2813 C520.375,399.2813 521.0625,399.1563 521.4844,398.8906 C521.6719,398.7969 521.6719,398.7969 522.125,398.3125 C522.3125,398.125 522.5156,398.0469 522.7344,398.0469 C523.2031,398.0469 523.5938,398.4375 523.5938,398.8906 C523.5938,399.2813 523.2656,399.7344 522.6875,400.1406 C521.9375,400.6875 520.7813,400.9844 519.5625,400.9844 C516.6719,400.9844 514.5625,399.0938 514.5625,396.5156 L514.5625,395.3906 C514.5625,392.6719 516.5625,390.5938 519.1875,390.5938 C520.0625,390.5938 520.6563,390.7344 521.5938,391.1719 Z "/><text fill="#000000" font-family="sans-serif" font-size="12" lengthAdjust="spacingAndGlyphs" textLength="63" x="539.75" y="399.6543">Calculette</text><line style="stroke: #A80036; stroke-width: 1.5;" x1="444" x2="666" y1="411.5" y2="411.5"/><text fill="#000000" font-family="sans-serif" font-size="11" lengthAdjust="spacingAndGlyphs" textLength="119" x="449" y="425.7104">private int compteur;</text><line style="stroke: #A80036; stroke-width: 1.5;" x1="444" x2="666" y1="432.3047" y2="432.3047"/><text fill="#000000" font-family="sans-serif" font-size="11" lengthAdjust="spacingAndGlyphs" textLength="105" x="449" y="446.5151">public Calculette();</text><text fill="#000000" font-family="sans-serif" font-size="11" lengthAdjust="spacingAndGlyphs" textLength="212" x="449" y="459.3198">public void calculer(String operation);</text><text fill="#000000" font-family="sans-serif" font-size="11" lengthAdjust="spacingAndGlyphs" textLength="132" x="449" y="472.1245">public String toString();</text><!--class CalculetteSauvegarde--><rect fill="#FEFECE" filter="url(#fr28scm4dxkbj)" height="73.6094" id="CalculetteSauvegarde" style="stroke: #A80036; stroke-width: 1.5;" width="254" x="179" y="575"/><ellipse cx="232.75" cy="591" fill="#ADD1B2" rx="11" ry="11" style="stroke: #A80036; stroke-width: 1.0;"/><path d="M235.0938,586.6719 L235.2656,586.75 C235.4844,586.4375 235.6875,586.3438 235.9844,586.3438 C236.2813,586.3438 236.5625,586.4844 236.7188,586.75 C236.8125,586.9063 236.8281,587.0313 236.8281,587.4688 L236.8281,588.8906 C236.8281,589.3125 236.7969,589.5 236.6875,589.6563 C236.5156,589.875 236.25,590.0156 235.9844,590.0156 C235.7656,590.0156 235.5313,589.9063 235.3906,589.7656 C235.25,589.6406 235.2188,589.5156 235.1563,589.1094 C235.0625,588.7031 234.8906,588.4844 234.4063,588.2031 C233.9375,587.9531 233.3281,587.7969 232.75,587.7969 C231.0156,587.7969 229.7656,589.1094 229.7656,590.8906 L229.7656,591.9844 C229.7656,593.6875 231.0625,594.7813 233.1094,594.7813 C233.875,594.7813 234.5625,594.6563 234.9844,594.3906 C235.1719,594.2969 235.1719,594.2969 235.625,593.8125 C235.8125,593.625 236.0156,593.5469 236.2344,593.5469 C236.7031,593.5469 237.0938,593.9375 237.0938,594.3906 C237.0938,594.7813 236.7656,595.2344 236.1875,595.6406 C235.4375,596.1875 234.2813,596.4844 233.0625,596.4844 C230.1719,596.4844 228.0625,594.5938 228.0625,592.0156 L228.0625,590.8906 C228.0625,588.1719 230.0625,586.0938 232.6875,586.0938 C233.5625,586.0938 234.1563,586.2344 235.0938,586.6719 Z "/><text fill="#000000" font-family="sans-serif" font-size="12" lengthAdjust="spacingAndGlyphs" textLength="138" x="253.25" y="595.1543">CalculetteSauvegarde</text><line style="stroke: #A80036; stroke-width: 1.5;" x1="180" x2="432" y1="607" y2="607"/><line style="stroke: #A80036; stroke-width: 1.5;" x1="180" x2="432" y1="615" y2="615"/><text fill="#000000" font-family="sans-serif" font-size="11" lengthAdjust="spacingAndGlyphs" textLength="242" x="185" y="629.2104">public CalculetteSauvegarde(int uneTaille);</text><text fill="#000000" font-family="sans-serif" font-size="11" lengthAdjust="spacingAndGlyphs" textLength="148" x="185" y="642.0151">public void sauvegarder();</text><!--class FichierTexte--><rect fill="#FEFECE" filter="url(#fr28scm4dxkbj)" height="137.6328" id="FichierTexte" style="stroke: #A80036; stroke-width: 1.5;" width="402" x="6" y="360"/><ellipse cx="165.25" cy="376" fill="#ADD1B2" rx="11" ry="11" style="stroke: #A80036; stroke-width: 1.0;"/><path d="M167.5938,371.6719 L167.7656,371.75 C167.9844,371.4375 168.1875,371.3438 168.4844,371.3438 C168.7813,371.3438 169.0625,371.4844 169.2188,371.75 C169.3125,371.9063 169.3281,372.0313 169.3281,372.4688 L169.3281,373.8906 C169.3281,374.3125 169.2969,374.5 169.1875,374.6563 C169.0156,374.875 168.75,375.0156 168.4844,375.0156 C168.2656,375.0156 168.0313,374.9063 167.8906,374.7656 C167.75,374.6406 167.7188,374.5156 167.6563,374.1094 C167.5625,373.7031 167.3906,373.4844 166.9063,373.2031 C166.4375,372.9531 165.8281,372.7969 165.25,372.7969 C163.5156,372.7969 162.2656,374.1094 162.2656,375.8906 L162.2656,376.9844 C162.2656,378.6875 163.5625,379.7813 165.6094,379.7813 C166.375,379.7813 167.0625,379.6563 167.4844,379.3906 C167.6719,379.2969 167.6719,379.2969 168.125,378.8125 C168.3125,378.625 168.5156,378.5469 168.7344,378.5469 C169.2031,378.5469 169.5938,378.9375 169.5938,379.3906 C169.5938,379.7813 169.2656,380.2344 168.6875,380.6406 C167.9375,381.1875 166.7813,381.4844 165.5625,381.4844 C162.6719,381.4844 160.5625,379.5938 160.5625,377.0156 L160.5625,375.8906 C160.5625,373.1719 162.5625,371.0938 165.1875,371.0938 C166.0625,371.0938 166.6563,371.2344 167.5938,371.6719 Z "/><text fill="#000000" font-family="sans-serif" font-size="12" lengthAdjust="spacingAndGlyphs" textLength="75" x="185.75" y="380.1543">FichierTexte</text><line style="stroke: #A80036; stroke-width: 1.5;" x1="7" x2="407" y1="392" y2="392"/><text fill="#000000" font-family="sans-serif" font-size="11" lengthAdjust="spacingAndGlyphs" textLength="146" x="12" y="406.2104">private BufferedWriter fW;</text><text fill="#000000" font-family="sans-serif" font-size="11" lengthAdjust="spacingAndGlyphs" textLength="151" x="12" y="419.0151">private BufferedReader fR;</text><text fill="#000000" font-family="sans-serif" font-size="11" lengthAdjust="spacingAndGlyphs" textLength="108" x="12" y="431.8198">private char mode;</text><line style="stroke: #A80036; stroke-width: 1.5;" x1="7" x2="407" y1="438.4141" y2="438.4141"/><text fill="#000000" font-family="sans-serif" font-size="11" lengthAdjust="spacingAndGlyphs" textLength="390" x="12" y="452.6245">public void ouvrir(String nomDuFichier, String s) throws IOException;</text><text fill="#000000" font-family="sans-serif" font-size="11" lengthAdjust="spacingAndGlyphs" textLength="228" x="12" y="465.4292">public void fermer() throws IOException;</text><text fill="#000000" font-family="sans-serif" font-size="11" lengthAdjust="spacingAndGlyphs" textLength="218" x="12" y="478.2339">public String lire() throws IOException;</text><text fill="#000000" font-family="sans-serif" font-size="11" lengthAdjust="spacingAndGlyphs" textLength="267" x="12" y="491.0386">public void ecrire(String s) throws IOException;</text><!--class ServeurTCP--><rect fill="#FEFECE" filter="url(#fr28scm4dxkbj)" height="112.0234" id="ServeurTCP" style="stroke: #A80036; stroke-width: 1.5;" width="220" x="196" y="928"/><ellipse cx="266.25" cy="944" fill="#ADD1B2" rx="11" ry="11" style="stroke: #A80036; stroke-width: 1.0;"/><path d="M268.5938,939.6719 L268.7656,939.75 C268.9844,939.4375 269.1875,939.3438 269.4844,939.3438 C269.7813,939.3438 270.0625,939.4844 270.2188,939.75 C270.3125,939.9063 270.3281,940.0313 270.3281,940.4688 L270.3281,941.8906 C270.3281,942.3125 270.2969,942.5 270.1875,942.6563 C270.0156,942.875 269.75,943.0156 269.4844,943.0156 C269.2656,943.0156 269.0313,942.9063 268.8906,942.7656 C268.75,942.6406 268.7188,942.5156 268.6563,942.1094 C268.5625,941.7031 268.3906,941.4844 267.9063,941.2031 C267.4375,940.9531 266.8281,940.7969 266.25,940.7969 C264.5156,940.7969 263.2656,942.1094 263.2656,943.8906 L263.2656,944.9844 C263.2656,946.6875 264.5625,947.7813 266.6094,947.7813 C267.375,947.7813 268.0625,947.6563 268.4844,947.3906 C268.6719,947.2969 268.6719,947.2969 269.125,946.8125 C269.3125,946.625 269.5156,946.5469 269.7344,946.5469 C270.2031,946.5469 270.5938,946.9375 270.5938,947.3906 C270.5938,947.7813 270.2656,948.2344 269.6875,948.6406 C268.9375,949.1875 267.7813,949.4844 266.5625,949.4844 C263.6719,949.4844 261.5625,947.5938 261.5625,945.0156 L261.5625,943.8906 C261.5625,941.1719 263.5625,939.0938 266.1875,939.0938 C267.0625,939.0938 267.6563,939.2344 268.5938,939.6719 Z "/><text fill="#000000" font-family="sans-serif" font-size="12" lengthAdjust="spacingAndGlyphs" textLength="71" x="286.75" y="948.1543">ServeurTCP</text><line style="stroke: #A80036; stroke-width: 1.5;" x1="197" x2="415" y1="960" y2="960"/><text fill="#000000" font-family="sans-serif" font-size="11" lengthAdjust="spacingAndGlyphs" textLength="88" x="202" y="974.2104">private int port;</text><text fill="#000000" font-family="sans-serif" font-size="11" lengthAdjust="spacingAndGlyphs" textLength="208" x="202" y="987.0151">private ServerSocket receptionniste;</text><text fill="#000000" font-family="sans-serif" font-size="11" lengthAdjust="spacingAndGlyphs" textLength="83" x="202" y="999.8198">Socket socket;</text><line style="stroke: #A80036; stroke-width: 1.5;" x1="197" x2="415" y1="1006.4141" y2="1006.4141"/><text fill="#000000" font-family="sans-serif" font-size="11" lengthAdjust="spacingAndGlyphs" textLength="171" x="202" y="1020.6245">public ServeurTCP(int unPort);</text><text fill="#000000" font-family="sans-serif" font-size="11" lengthAdjust="spacingAndGlyphs" textLength="119" x="202" y="1033.4292">public void ecouter();</text><!--class Service--><rect fill="#FEFECE" filter="url(#fr28scm4dxkbj)" height="124.8281" id="Service" style="stroke: #A80036; stroke-width: 1.5;" width="190" x="211" y="726"/><ellipse cx="279.25" cy="742" fill="#ADD1B2" rx="11" ry="11" style="stroke: #A80036; stroke-width: 1.0;"/><path d="M281.5938,737.6719 L281.7656,737.75 C281.9844,737.4375 282.1875,737.3438 282.4844,737.3438 C282.7813,737.3438 283.0625,737.4844 283.2188,737.75 C283.3125,737.9063 283.3281,738.0313 283.3281,738.4688 L283.3281,739.8906 C283.3281,740.3125 283.2969,740.5 283.1875,740.6563 C283.0156,740.875 282.75,741.0156 282.4844,741.0156 C282.2656,741.0156 282.0313,740.9063 281.8906,740.7656 C281.75,740.6406 281.7188,740.5156 281.6563,740.1094 C281.5625,739.7031 281.3906,739.4844 280.9063,739.2031 C280.4375,738.9531 279.8281,738.7969 279.25,738.7969 C277.5156,738.7969 276.2656,740.1094 276.2656,741.8906 L276.2656,742.9844 C276.2656,744.6875 277.5625,745.7813 279.6094,745.7813 C280.375,745.7813 281.0625,745.6563 281.4844,745.3906 C281.6719,745.2969 281.6719,745.2969 282.125,744.8125 C282.3125,744.625 282.5156,744.5469 282.7344,744.5469 C283.2031,744.5469 283.5938,744.9375 283.5938,745.3906 C283.5938,745.7813 283.2656,746.2344 282.6875,746.6406 C281.9375,747.1875 280.7813,747.4844 279.5625,747.4844 C276.6719,747.4844 274.5625,745.5938 274.5625,743.0156 L274.5625,741.8906 C274.5625,739.1719 276.5625,737.0938 279.1875,737.0938 C280.0625,737.0938 280.6563,737.2344 281.5938,737.6719 Z "/><text fill="#000000" font-family="sans-serif" font-size="12" lengthAdjust="spacingAndGlyphs" textLength="45" x="299.75" y="746.1543">Service</text><line style="stroke: #A80036; stroke-width: 1.5;" x1="212" x2="400" y1="758" y2="758"/><text fill="#000000" font-family="sans-serif" font-size="11" lengthAdjust="spacingAndGlyphs" textLength="83" x="217" y="772.2104">Socket socket;</text><text fill="#000000" font-family="sans-serif" font-size="11" lengthAdjust="spacingAndGlyphs" textLength="151" x="217" y="785.0151">ObjectInputStream entree;</text><text fill="#000000" font-family="sans-serif" font-size="11" lengthAdjust="spacingAndGlyphs" textLength="157" x="217" y="797.8198">ObjectOutputStream sortie;</text><line style="stroke: #A80036; stroke-width: 1.5;" x1="212" x2="400" y1="804.4141" y2="804.4141"/><text fill="#000000" font-family="sans-serif" font-size="11" lengthAdjust="spacingAndGlyphs" textLength="155" x="217" y="818.6245">Service(Socket uneSocket);</text><text fill="#000000" font-family="sans-serif" font-size="11" lengthAdjust="spacingAndGlyphs" textLength="178" x="217" y="831.4292">public boolean rendreService();</text><text fill="#000000" font-family="sans-serif" font-size="11" lengthAdjust="spacingAndGlyphs" textLength="125" x="217" y="844.2339">public void terminer();</text><!--link Operation to OperationMathematique--><path d="M555,127.63 C555,146.479 555,166.496 555,183.936 " fill="none" id="Operation-OperationMathematique" style="stroke: #A80036; stroke-width: 1.0;"/><polygon fill="none" points="548,127.432,555,107.432,562,127.432,548,127.432" style="stroke: #A80036; stroke-width: 1.0;"/><text fill="#000000" font-family="sans-serif" font-size="13" lengthAdjust="spacingAndGlyphs" textLength="71" x="556" y="150.0669">Inheritance</text><!--link OperationMathematique to Calculette--><path d="M555,283.328 C555,308.422 555,339.269 555,366.025 " fill="none" id="OperationMathematique-Calculette" style="stroke: #A80036; stroke-width: 1.0;"/><polygon fill="#A80036" points="555,379.187,559,373.187,555,367.187,551,373.187,555,379.187" style="stroke: #A80036; stroke-width: 1.0;"/><text fill="#000000" font-family="sans-serif" font-size="13" lengthAdjust="spacingAndGlyphs" textLength="68" x="556" y="326.0669">operations</text><text fill="#000000" font-family="sans-serif" font-size="13" lengthAdjust="spacingAndGlyphs" textLength="7" x="547.5078" y="303.4506">*</text><text fill="#000000" font-family="sans-serif" font-size="13" lengthAdjust="spacingAndGlyphs" textLength="8" x="546.4625" y="368.5467">1</text><!--link FichierTexte to CalculetteSauvegarde--><path d="M244.287,498.17 C256.144,519.849 268.998,543.351 279.891,563.265 " fill="none" id="FichierTexte-CalculetteSauvegarde" style="stroke: #A80036; stroke-width: 1.0;"/><polygon fill="#A80036" points="286.223,574.843,286.8531,567.6595,280.4645,564.315,279.8344,571.4985,286.223,574.843" style="stroke: #A80036; stroke-width: 1.0;"/><text fill="#000000" font-family="sans-serif" font-size="13" lengthAdjust="spacingAndGlyphs" textLength="9" x="269" y="541.0669">ft</text><text fill="#000000" font-family="sans-serif" font-size="13" lengthAdjust="spacingAndGlyphs" textLength="8" x="239.5637" y="517.8087">1</text><text fill="#000000" font-family="sans-serif" font-size="13" lengthAdjust="spacingAndGlyphs" textLength="8" x="273.9877" y="564.002">1</text><!--link Calculette to CalculetteSauvegarde--><path d="M471.934,490.381 C433.495,518.323 389.107,550.589 355.919,574.714 " fill="none" id="Calculette-CalculetteSauvegarde" style="stroke: #A80036; stroke-width: 1.0;"/><polygon fill="none" points="467.979,484.602,488.273,478.505,476.211,495.926,467.979,484.602" style="stroke: #A80036; stroke-width: 1.0;"/><text fill="#000000" font-family="sans-serif" font-size="13" lengthAdjust="spacingAndGlyphs" textLength="71" x="416" y="541.0669">Inheritance</text><!--link CalculetteSauvegarde to Service--><path d="M306,649.157 C306,667.596 306,690.736 306,712.786 " fill="none" id="CalculetteSauvegarde-Service" style="stroke: #A80036; stroke-width: 1.0;"/><polygon fill="#A80036" points="306,725.959,310,719.959,306,713.959,302,719.959,306,725.959" style="stroke: #A80036; stroke-width: 1.0;"/><text fill="#000000" font-family="sans-serif" font-size="13" lengthAdjust="spacingAndGlyphs" textLength="62" x="307" y="692.0669">calculette</text><text fill="#000000" font-family="sans-serif" font-size="13" lengthAdjust="spacingAndGlyphs" textLength="8" x="297.3375" y="668.6636">1</text><text fill="#000000" font-family="sans-serif" font-size="13" lengthAdjust="spacingAndGlyphs" textLength="8" x="297.5375" y="714.945">1</text><!--link Service to ServeurTCP--><path d="M306,851.257 C306,871.399 306,893.879 306,914.486 " fill="none" id="Service-ServeurTCP" style="stroke: #A80036; stroke-width: 1.0;"/><polygon fill="#A80036" points="306,927.715,310,921.715,306,915.715,302,921.715,306,927.715" style="stroke: #A80036; stroke-width: 1.0;"/><text fill="#000000" font-family="sans-serif" font-size="13" lengthAdjust="spacingAndGlyphs" textLength="109" x="307" y="894.0669">serviceCalculette</text><text fill="#000000" font-family="sans-serif" font-size="13" lengthAdjust="spacingAndGlyphs" textLength="8" x="297.5625" y="871.0249">1</text><text fill="#000000" font-family="sans-serif" font-size="13" lengthAdjust="spacingAndGlyphs" textLength="8" x="297.5125" y="917.0148">1</text><!--
@startuml
class Operation {
    private String operation;

    public Operation(); 
    public String getOperation();
    public void setOperation(String operation);
}

class OperationMathematique {
    private double resultat;

    public OperationMathematique();
    public void resoudre(String uneOperation) throws OperationException;
    public String toString();
} 

class Calculette {
    private int compteur;

    public Calculette();
    public void calculer(String operation);
    public String toString();
} 

class CalculetteSauvegarde {
    public CalculetteSauvegarde(int uneTaille);
    public void sauvegarder();
}

class FichierTexte {
    private BufferedWriter fW;
    private BufferedReader fR;
    private char mode;

    public void ouvrir(String nomDuFichier, String s) throws IOException;
    public void fermer() throws IOException;
    public String lire() throws IOException;
    public void ecrire(String s) throws IOException;
}

class ServeurTCP {
    private int port;
    private ServerSocket receptionniste;
    Socket socket;

    public ServeurTCP(int unPort);
    public void ecouter();
}

class Service {
    Socket socket;
    ObjectInputStream entree;
    ObjectOutputStream sortie;

    Service(Socket uneSocket);
    public boolean rendreService();
    public void terminer();
}

Operation <|-down- OperationMathematique: Inheritance
Calculette "1" *-up- "*" OperationMathematique: operations
CalculetteSauvegarde "1" *-up- "1" FichierTexte: ft
Calculette <|-down- CalculetteSauvegarde: Inheritance
Service "1" *-up- "1" CalculetteSauvegarde: calculette
ServeurTCP "1" *-up- "1" Service: serviceCalculette
@enduml

PlantUML version 1.2018.02(Fri Mar 09 17:20:44 UTC 2018)
(GPL source distribution)
Java Runtime: Java(TM) SE Runtime Environment
JVM: Java HotSpot(TM) 64-Bit Server VM
Java Version: 1.7.0_25-b15
Operating System: Linux
Default Encoding: UTF-8
Language: en
Country: US
--></g></svg>