<?xml version="1.0" encoding="UTF-8" standalone="no"?><svg xmlns="http://www.w3.org/2000/svg" xmlns:xlink="http://www.w3.org/1999/xlink" contentScriptType="application/ecmascript" contentStyleType="text/css" height="560px" preserveAspectRatio="none" style="width:413px;height:560px;" version="1.1" viewBox="0 0 413 560" width="413px" zoomAndPan="magnify"><defs><filter height="300%" id="f667iipwzpam0" width="300%" x="-1" y="-1"><feGaussianBlur result="blurOut" stdDeviation="2.0"/><feColorMatrix in="blurOut" result="blurOut2" type="matrix" values="0 0 0 0 0 0 0 0 0 0 0 0 0 0 0 0 0 0 .4 0"/><feOffset dx="4.0" dy="4.0" in="blurOut2" result="blurOut3"/><feBlend in="SourceGraphic" in2="blurOut3" mode="normal"/></filter></defs><g><!--class WindowListener--><rect fill="#FEFECE" filter="url(#f667iipwzpam0)" height="48" id="WindowListener" style="stroke: #A80036; stroke-width: 1.5;" width="131" x="6" y="8"/><ellipse cx="21" cy="24" fill="#B4A7E5" rx="11" ry="11" style="stroke: #A80036; stroke-width: 1.0;"/><path d="M21.9531,20.7813 L21.9531,27.2969 L23.6719,27.2969 C24.125,27.2969 24.2656,27.3281 24.4375,27.4531 C24.6719,27.625 24.7813,27.875 24.7813,28.1563 C24.7813,28.7188 24.4219,29 23.6719,29 L18.5313,29 C18.125,29 17.9219,28.9531 17.7656,28.8281 C17.5469,28.6719 17.4063,28.4063 17.4063,28.1563 C17.4063,27.8594 17.5625,27.5781 17.8125,27.4219 C17.9688,27.3125 18.0938,27.2969 18.5313,27.2969 L20.25,27.2969 L20.25,20.7813 L18.5313,20.7813 C18.1094,20.7813 17.9219,20.75 17.7656,20.6406 C17.5469,20.4688 17.4063,20.2188 17.4063,19.9375 C17.4063,19.6563 17.5625,19.3594 17.8125,19.2031 C17.9688,19.1094 18.0938,19.0938 18.5313,19.0938 L23.6719,19.0938 C24.125,19.0938 24.2656,19.125 24.4375,19.2344 C24.6719,19.4063 24.7813,19.6719 24.7813,19.9375 C24.7813,20.2344 24.6406,20.5156 24.375,20.6719 C24.25,20.75 24.0625,20.7813 23.6719,20.7813 Z "/><text fill="#000000" font-family="sans-serif" font-size="12" font-style="italic" lengthAdjust="spacingAndGlyphs" textLength="99" x="35" y="28.1543">WindowListener</text><line style="stroke: #A80036; stroke-width: 1.5;" x1="7" x2="136" y1="40" y2="40"/><line style="stroke: #A80036; stroke-width: 1.5;" x1="7" x2="136" y1="48" y2="48"/><!--class ActionListener--><rect fill="#FEFECE" filter="url(#f667iipwzpam0)" height="48" id="ActionListener" style="stroke: #A80036; stroke-width: 1.5;" width="121" x="172" y="8"/><ellipse cx="187" cy="24" fill="#B4A7E5" rx="11" ry="11" style="stroke: #A80036; stroke-width: 1.0;"/><path d="M187.9531,20.7813 L187.9531,27.2969 L189.6719,27.2969 C190.125,27.2969 190.2656,27.3281 190.4375,27.4531 C190.6719,27.625 190.7813,27.875 190.7813,28.1563 C190.7813,28.7188 190.4219,29 189.6719,29 L184.5313,29 C184.125,29 183.9219,28.9531 183.7656,28.8281 C183.5469,28.6719 183.4063,28.4063 183.4063,28.1563 C183.4063,27.8594 183.5625,27.5781 183.8125,27.4219 C183.9688,27.3125 184.0938,27.2969 184.5313,27.2969 L186.25,27.2969 L186.25,20.7813 L184.5313,20.7813 C184.1094,20.7813 183.9219,20.75 183.7656,20.6406 C183.5469,20.4688 183.4063,20.2188 183.4063,19.9375 C183.4063,19.6563 183.5625,19.3594 183.8125,19.2031 C183.9688,19.1094 184.0938,19.0938 184.5313,19.0938 L189.6719,19.0938 C190.125,19.0938 190.2656,19.125 190.4375,19.2344 C190.6719,19.4063 190.7813,19.6719 190.7813,19.9375 C190.7813,20.2344 190.6406,20.5156 190.375,20.6719 C190.25,20.75 190.0625,20.7813 189.6719,20.7813 Z "/><text fill="#000000" font-family="sans-serif" font-size="12" font-style="italic" lengthAdjust="spacingAndGlyphs" textLength="89" x="201" y="28.1543">ActionListener</text><line style="stroke: #A80036; stroke-width: 1.5;" x1="173" x2="292" y1="40" y2="40"/><line style="stroke: #A80036; stroke-width: 1.5;" x1="173" x2="292" y1="48" y2="48"/><!--class JFrame--><rect fill="#FEFECE" filter="url(#f667iipwzpam0)" height="48" id="JFrame" style="stroke: #A80036; stroke-width: 1.5;" width="74" x="328.5" y="8"/><ellipse cx="343.5" cy="24" fill="#ADD1B2" rx="11" ry="11" style="stroke: #A80036; stroke-width: 1.0;"/><path d="M345.8438,19.6719 L346.0156,19.75 C346.2344,19.4375 346.4375,19.3438 346.7344,19.3438 C347.0313,19.3438 347.3125,19.4844 347.4688,19.75 C347.5625,19.9063 347.5781,20.0313 347.5781,20.4688 L347.5781,21.8906 C347.5781,22.3125 347.5469,22.5 347.4375,22.6563 C347.2656,22.875 347,23.0156 346.7344,23.0156 C346.5156,23.0156 346.2813,22.9063 346.1406,22.7656 C346,22.6406 345.9688,22.5156 345.9063,22.1094 C345.8125,21.7031 345.6406,21.4844 345.1563,21.2031 C344.6875,20.9531 344.0781,20.7969 343.5,20.7969 C341.7656,20.7969 340.5156,22.1094 340.5156,23.8906 L340.5156,24.9844 C340.5156,26.6875 341.8125,27.7813 343.8594,27.7813 C344.625,27.7813 345.3125,27.6563 345.7344,27.3906 C345.9219,27.2969 345.9219,27.2969 346.375,26.8125 C346.5625,26.625 346.7656,26.5469 346.9844,26.5469 C347.4531,26.5469 347.8438,26.9375 347.8438,27.3906 C347.8438,27.7813 347.5156,28.2344 346.9375,28.6406 C346.1875,29.1875 345.0313,29.4844 343.8125,29.4844 C340.9219,29.4844 338.8125,27.5938 338.8125,25.0156 L338.8125,23.8906 C338.8125,21.1719 340.8125,19.0938 343.4375,19.0938 C344.3125,19.0938 344.9063,19.2344 345.8438,19.6719 Z "/><text fill="#000000" font-family="sans-serif" font-size="12" lengthAdjust="spacingAndGlyphs" textLength="42" x="357.5" y="28.1543">JFrame</text><line style="stroke: #A80036; stroke-width: 1.5;" x1="329.5" x2="401.5" y1="40" y2="40"/><line style="stroke: #A80036; stroke-width: 1.5;" x1="329.5" x2="401.5" y1="48" y2="48"/><!--class CalculetteSWING--><rect fill="#FEFECE" filter="url(#f667iipwzpam0)" height="188.8516" id="CalculetteSWING" style="stroke: #A80036; stroke-width: 1.5;" width="290" x="87.5" y="133"/><ellipse cx="176.75" cy="149" fill="#ADD1B2" rx="11" ry="11" style="stroke: #A80036; stroke-width: 1.0;"/><path d="M179.0938,144.6719 L179.2656,144.75 C179.4844,144.4375 179.6875,144.3438 179.9844,144.3438 C180.2813,144.3438 180.5625,144.4844 180.7188,144.75 C180.8125,144.9063 180.8281,145.0313 180.8281,145.4688 L180.8281,146.8906 C180.8281,147.3125 180.7969,147.5 180.6875,147.6563 C180.5156,147.875 180.25,148.0156 179.9844,148.0156 C179.7656,148.0156 179.5313,147.9063 179.3906,147.7656 C179.25,147.6406 179.2188,147.5156 179.1563,147.1094 C179.0625,146.7031 178.8906,146.4844 178.4063,146.2031 C177.9375,145.9531 177.3281,145.7969 176.75,145.7969 C175.0156,145.7969 173.7656,147.1094 173.7656,148.8906 L173.7656,149.9844 C173.7656,151.6875 175.0625,152.7813 177.1094,152.7813 C177.875,152.7813 178.5625,152.6563 178.9844,152.3906 C179.1719,152.2969 179.1719,152.2969 179.625,151.8125 C179.8125,151.625 180.0156,151.5469 180.2344,151.5469 C180.7031,151.5469 181.0938,151.9375 181.0938,152.3906 C181.0938,152.7813 180.7656,153.2344 180.1875,153.6406 C179.4375,154.1875 178.2813,154.4844 177.0625,154.4844 C174.1719,154.4844 172.0625,152.5938 172.0625,150.0156 L172.0625,148.8906 C172.0625,146.1719 174.0625,144.0938 176.6875,144.0938 C177.5625,144.0938 178.1563,144.2344 179.0938,144.6719 Z "/><text fill="#000000" font-family="sans-serif" font-size="12" lengthAdjust="spacingAndGlyphs" textLength="103" x="197.25" y="153.1543">CalculetteSWING</text><line style="stroke: #A80036; stroke-width: 1.5;" x1="88.5" x2="376.5" y1="165" y2="165"/><text fill="#000000" font-family="sans-serif" font-size="11" lengthAdjust="spacingAndGlyphs" textLength="168" x="93.5" y="179.2104">private JTextField tfOperation;</text><text fill="#000000" font-family="sans-serif" font-size="11" lengthAdjust="spacingAndGlyphs" textLength="161" x="93.5" y="192.0151">private JTextArea taResultat;</text><line style="stroke: #A80036; stroke-width: 1.5;" x1="88.5" x2="376.5" y1="198.6094" y2="198.6094"/><text fill="#000000" font-family="sans-serif" font-size="11" lengthAdjust="spacingAndGlyphs" textLength="142" x="93.5" y="212.8198">public CalculetteSWING();</text><text fill="#000000" font-family="sans-serif" font-size="11" lengthAdjust="spacingAndGlyphs" textLength="263" x="93.5" y="225.6245">public void windowActivated(WindowEvent evt);</text><text fill="#000000" font-family="sans-serif" font-size="11" lengthAdjust="spacingAndGlyphs" textLength="278" x="93.5" y="238.4292">public void windowDeactivated(WindowEvent evt);</text><text fill="#000000" font-family="sans-serif" font-size="11" lengthAdjust="spacingAndGlyphs" textLength="251" x="93.5" y="251.2339">public void windowClosed(WindowEvent evt);</text><text fill="#000000" font-family="sans-serif" font-size="11" lengthAdjust="spacingAndGlyphs" textLength="254" x="93.5" y="264.0386">public void windowClosing(WindowEvent evt);</text><text fill="#000000" font-family="sans-serif" font-size="11" lengthAdjust="spacingAndGlyphs" textLength="259" x="93.5" y="276.8433">public void windowIconified(WindowEvent evt);</text><text fill="#000000" font-family="sans-serif" font-size="11" lengthAdjust="spacingAndGlyphs" textLength="274" x="93.5" y="289.6479">public void windowDeiconified(WindowEvent evt);</text><text fill="#000000" font-family="sans-serif" font-size="11" lengthAdjust="spacingAndGlyphs" textLength="256" x="93.5" y="302.4526">public void windowOpened(WindowEvent evt);</text><text fill="#000000" font-family="sans-serif" font-size="11" lengthAdjust="spacingAndGlyphs" textLength="256" x="93.5" y="315.2573">public void actionPerformed(ActionEvent evt);</text><!--class ClientTCP--><rect fill="#FEFECE" filter="url(#f667iipwzpam0)" height="150.4375" id="ClientTCP" style="stroke: #A80036; stroke-width: 1.5;" width="253" x="106" y="399"/><ellipse cx="199.25" cy="415" fill="#ADD1B2" rx="11" ry="11" style="stroke: #A80036; stroke-width: 1.0;"/><path d="M201.5938,410.6719 L201.7656,410.75 C201.9844,410.4375 202.1875,410.3438 202.4844,410.3438 C202.7813,410.3438 203.0625,410.4844 203.2188,410.75 C203.3125,410.9063 203.3281,411.0313 203.3281,411.4688 L203.3281,412.8906 C203.3281,413.3125 203.2969,413.5 203.1875,413.6563 C203.0156,413.875 202.75,414.0156 202.4844,414.0156 C202.2656,414.0156 202.0313,413.9063 201.8906,413.7656 C201.75,413.6406 201.7188,413.5156 201.6563,413.1094 C201.5625,412.7031 201.3906,412.4844 200.9063,412.2031 C200.4375,411.9531 199.8281,411.7969 199.25,411.7969 C197.5156,411.7969 196.2656,413.1094 196.2656,414.8906 L196.2656,415.9844 C196.2656,417.6875 197.5625,418.7813 199.6094,418.7813 C200.375,418.7813 201.0625,418.6563 201.4844,418.3906 C201.6719,418.2969 201.6719,418.2969 202.125,417.8125 C202.3125,417.625 202.5156,417.5469 202.7344,417.5469 C203.2031,417.5469 203.5938,417.9375 203.5938,418.3906 C203.5938,418.7813 203.2656,419.2344 202.6875,419.6406 C201.9375,420.1875 200.7813,420.4844 199.5625,420.4844 C196.6719,420.4844 194.5625,418.5938 194.5625,416.0156 L194.5625,414.8906 C194.5625,412.1719 196.5625,410.0938 199.1875,410.0938 C200.0625,410.0938 200.6563,410.2344 201.5938,410.6719 Z "/><text fill="#000000" font-family="sans-serif" font-size="12" lengthAdjust="spacingAndGlyphs" textLength="58" x="219.75" y="419.1543">ClientTCP</text><line style="stroke: #A80036; stroke-width: 1.5;" x1="107" x2="358" y1="431" y2="431"/><text fill="#000000" font-family="sans-serif" font-size="11" lengthAdjust="spacingAndGlyphs" textLength="88" x="112" y="445.2104">private int port;</text><text fill="#000000" font-family="sans-serif" font-size="11" lengthAdjust="spacingAndGlyphs" textLength="126" x="112" y="458.0151">private Socket socket;</text><text fill="#000000" font-family="sans-serif" font-size="11" lengthAdjust="spacingAndGlyphs" textLength="200" x="112" y="470.8198">private ObjectOutputStream sortie;</text><text fill="#000000" font-family="sans-serif" font-size="11" lengthAdjust="spacingAndGlyphs" textLength="194" x="112" y="483.6245">private ObjectInputStream entree;</text><line style="stroke: #A80036; stroke-width: 1.5;" x1="107" x2="358" y1="490.2188" y2="490.2188"/><text fill="#000000" font-family="sans-serif" font-size="11" lengthAdjust="spacingAndGlyphs" textLength="158" x="112" y="504.4292">public ClientTCP(int unPort);</text><text fill="#000000" font-family="sans-serif" font-size="11" lengthAdjust="spacingAndGlyphs" textLength="229" x="112" y="517.2339">public void connecter(String unServeur);</text><text fill="#000000" font-family="sans-serif" font-size="11" lengthAdjust="spacingAndGlyphs" textLength="241" x="112" y="530.0386">public String requeter(String uneRequete);</text><text fill="#000000" font-family="sans-serif" font-size="11" lengthAdjust="spacingAndGlyphs" textLength="146" x="112" y="542.8433">public void deconnecter();</text><!--link CalculetteSWING to ClientTCP--><path d="M232.5,335.514 C232.5,356.856 232.5,378.827 232.5,398.771 " fill="none" id="CalculetteSWING-ClientTCP" style="stroke: #A80036; stroke-width: 1.0;"/><polygon fill="#A80036" points="232.5,322.331,228.5,328.331,232.5,334.331,236.5,328.331,232.5,322.331" style="stroke: #A80036; stroke-width: 1.0;"/><text fill="#000000" font-family="sans-serif" font-size="13" lengthAdjust="spacingAndGlyphs" textLength="58" x="233.5" y="365.0669">clientTCP</text><text fill="#000000" font-family="sans-serif" font-size="13" lengthAdjust="spacingAndGlyphs" textLength="8" x="224.2063" y="341.9232">1</text><text fill="#000000" font-family="sans-serif" font-size="13" lengthAdjust="spacingAndGlyphs" textLength="8" x="224.1188" y="387.9383">1</text><!--link JFrame to CalculetteSWING--><path d="M338.017,72.985 C326.017,90.443 311.395,111.716 296.906,132.797 " fill="none" id="JFrame-CalculetteSWING" style="stroke: #A80036; stroke-width: 1.0;"/><polygon fill="none" points="332.36,68.858,349.457,56.341,343.897,76.788,332.36,68.858" style="stroke: #A80036; stroke-width: 1.0;"/><text fill="#000000" font-family="sans-serif" font-size="13" lengthAdjust="spacingAndGlyphs" textLength="71" x="327.5" y="99.0669">Inheritance</text><!--link WindowListener to CalculetteSWING--><path d="M103.8557,71.887 C118.549,89.547 136.626,111.272 154.535,132.797 " fill="none" id="WindowListener-CalculetteSWING" style="stroke: #A80036; stroke-width: 1.0;"/><polygon fill="none" points="98.3314,76.192,90.9204,56.341,109.093,67.238,98.3314,76.192" style="stroke: #A80036; stroke-width: 1.0;"/><text fill="#000000" font-family="sans-serif" font-size="13" lengthAdjust="spacingAndGlyphs" textLength="71" x="129.5" y="99.0669">Inheritance</text><!--link ActionListener to CalculetteSWING--><path d="M232.5,76.62 C232.5,93.353 232.5,113.159 232.5,132.797 " fill="none" id="ActionListener-CalculetteSWING" style="stroke: #A80036; stroke-width: 1.0;"/><polygon fill="none" points="225.5,76.341,232.5,56.341,239.5,76.341,225.5,76.341" style="stroke: #A80036; stroke-width: 1.0;"/><text fill="#000000" font-family="sans-serif" font-size="13" lengthAdjust="spacingAndGlyphs" textLength="71" x="233.5" y="99.0669">Inheritance</text><!--
@startuml
interface WindowListener {
}

interface ActionListener{
}

class JFrame {
}

class CalculetteSWING {
    private JTextField tfOperation;
    private JTextArea taResultat;

    public CalculetteSWING();
    public void windowActivated(WindowEvent evt);
    public void windowDeactivated(WindowEvent evt);
    public void windowClosed(WindowEvent evt);
    public void windowClosing(WindowEvent evt);
    public void windowIconified(WindowEvent evt);
    public void windowDeiconified(WindowEvent evt);
    public void windowOpened(WindowEvent evt);
    public void actionPerformed(ActionEvent evt);
} 

class ClientTCP {
    private int port;
    private Socket socket;
    private ObjectOutputStream sortie;
    private ObjectInputStream entree;

    public ClientTCP(int unPort);
    public void connecter(String unServeur);
    public String requeter(String uneRequete);
    public void deconnecter();
}

CalculetteSWING "1" *-down- "1" ClientTCP: clientTCP
JFrame <|-down- CalculetteSWING: Inheritance
WindowListener <|-down- CalculetteSWING: Inheritance
ActionListener <|-down- CalculetteSWING: Inheritance
@enduml

PlantUML version 1.2018.02(Fri Mar 09 17:20:44 UTC 2018)
(GPL source distribution)
Java Runtime: Java(TM) SE Runtime Environment
JVM: Java HotSpot(TM) 64-Bit Server VM
Java Version: 1.7.0_25-b15
Operating System: Linux
Default Encoding: UTF-8
Language: en
Country: US
--></g></svg>